<svg xmlns="http://www.w3.org/2000/svg" xmlns:xlink="http://www.w3.org/1999/xlink" width="1080" zoomAndPan="magnify" viewBox="0 0 810 809.999993" height="1080" preserveAspectRatio="xMidYMid meet" version="1.0"><defs><clipPath id="ec37fa32ca"><path d="M 19.882812 0 L 790 0 L 790 810 L 19.882812 810 Z M 19.882812 0 " clip-rule="nonzero"/></clipPath><clipPath id="eab8122aea"><path d="M 114 95 L 790.132812 95 L 790.132812 725 L 114 725 Z M 114 95 " clip-rule="nonzero"/></clipPath></defs><g clip-path="url(#ec37fa32ca)"><path fill="#d2d4df" d="M 218.058594 668.035156 C 194.230469 663.671875 174.429688 666.859375 158.488281 673.574219 C 157.816406 673.238281 156.980469 672.902344 156.308594 672.734375 C 152.785156 671.558594 148.085938 670.71875 143.386719 670.71875 C 139.191406 670.71875 134.996094 671.390625 131.640625 673.238281 C 134.660156 665.851562 138.183594 658.132812 142.378906 650.078125 C 142.546875 650.75 142.546875 651.421875 142.882812 652.09375 C 144.898438 657.796875 151.273438 662.328125 156.140625 663.839844 C 158.152344 664.34375 160.167969 664.679688 162.179688 664.679688 C 168.558594 664.679688 175.101562 661.824219 179.128906 656.960938 C 181.644531 653.9375 183.660156 649.242188 181.980469 644.878906 C 180.808594 641.855469 177.785156 639.675781 173.421875 638.164062 C 169.898438 636.992188 165.203125 636.152344 160.503906 636.152344 C 156.308594 636.152344 152.113281 636.824219 148.757812 638.667969 C 153.121094 631.621094 157.984375 624.40625 163.523438 617.359375 C 164.195312 616.6875 164.027344 615.511719 163.1875 615.007812 C 162.515625 614.503906 161.339844 614.503906 160.839844 615.34375 C 155.46875 622.054688 150.769531 628.9375 146.574219 635.648438 C 146.070312 628.769531 142.378906 621.554688 138.855469 617.023438 C 136.003906 613.332031 132.984375 611.316406 129.625 611.148438 C 125.097656 610.8125 121.234375 614.335938 119.222656 617.691406 C 114.859375 624.910156 115.363281 634.808594 120.230469 641.6875 C 123.25 645.882812 129.792969 650.414062 135.667969 650.414062 C 136.507812 650.414062 137.34375 650.246094 138.183594 650.078125 C 134.660156 656.792969 131.640625 663.335938 129.125 669.546875 C 128.453125 662.832031 124.929688 655.953125 121.402344 651.421875 C 118.550781 647.730469 115.53125 645.714844 112.175781 645.550781 C 107.476562 645.214844 103.785156 648.738281 101.769531 652.09375 C 101.601562 652.429688 101.433594 652.765625 101.265625 653.101562 C 87.339844 632.964844 63.34375 611.484375 22.230469 597.722656 C 21.558594 597.390625 20.722656 597.722656 20.21875 598.394531 C 19.882812 599.066406 19.882812 599.90625 20.386719 600.410156 C 20.722656 600.746094 58.644531 638.667969 63.679688 720.894531 L 54.617188 720.894531 C 53.777344 720.894531 52.941406 721.734375 52.941406 722.570312 L 52.941406 740.191406 C 52.941406 741.199219 53.777344 741.871094 54.617188 741.871094 L 64.183594 741.871094 L 76.433594 808.152344 C 76.601562 808.992188 77.269531 809.496094 78.109375 809.496094 L 141.539062 809.496094 C 142.378906 809.496094 143.050781 808.992188 143.21875 808.152344 L 155.46875 741.871094 L 164.867188 741.871094 C 165.871094 741.871094 166.542969 741.199219 166.542969 740.191406 L 166.542969 722.570312 C 166.542969 721.734375 165.871094 720.894531 164.867188 720.894531 L 156.980469 720.894531 C 169.230469 679.445312 217.554688 671.054688 218.058594 670.886719 C 218.898438 670.71875 219.402344 670.046875 219.402344 669.210938 C 219.402344 668.875 218.898438 668.203125 218.058594 668.035156 Z M 117.375 684.816406 C 117.878906 684.816406 118.382812 684.984375 119.054688 684.984375 C 121.070312 684.984375 122.914062 684.480469 124.425781 683.472656 C 122.914062 688.003906 121.570312 692.199219 120.398438 696.226562 C 119.726562 692.535156 118.71875 688.675781 117.375 684.816406 Z M 123.25 698.40625 C 124.089844 695.050781 125.261719 691.695312 126.4375 687.835938 C 127.109375 689.347656 128.285156 690.855469 129.457031 692.199219 C 127.277344 694.210938 125.097656 696.394531 123.25 698.40625 Z M 718.289062 95.820312 C 678.519531 95.820312 646.300781 120.652344 646.300781 151.363281 C 646.300781 176.03125 667.441406 197.675781 697.984375 204.554688 L 690.601562 234.089844 C 690.433594 234.761719 690.769531 235.601562 691.269531 235.9375 C 691.605469 236.105469 691.941406 236.273438 692.109375 236.273438 C 692.445312 236.273438 692.949219 236.105469 693.117188 235.9375 L 729.867188 206.234375 C 764.769531 201.871094 789.941406 178.882812 789.941406 151.53125 C 790.109375 120.652344 757.890625 95.820312 718.289062 95.820312 Z M 748.15625 498.886719 C 749.332031 498.214844 750.507812 497.542969 751.511719 496.875 C 752.183594 496.539062 752.351562 495.699219 752.183594 495.027344 C 737.417969 428.914062 719.292969 377.058594 695.296875 331.921875 C 696.304688 328.230469 695.632812 323.363281 693.453125 320.175781 C 692.109375 318.160156 690.097656 316.984375 687.914062 316.984375 L 645.628906 310.273438 L 645.628906 297.519531 C 652.339844 294.332031 657.878906 288.960938 661.402344 281.914062 C 662.242188 282.082031 663.078125 282.082031 663.917969 282.082031 C 672.980469 282.082031 680.363281 274.195312 680.363281 264.628906 C 680.363281 257.414062 676.167969 250.871094 669.960938 248.355469 C 672.476562 242.984375 678.351562 227.210938 665.429688 217.308594 C 664.757812 214.792969 661.402344 205.058594 651.5 200.527344 C 641.601562 196 628.34375 198.011719 612.402344 206.570312 C 582.03125 222.847656 579.34375 236.773438 581.023438 244.328125 C 575.148438 247.347656 570.117188 249.527344 570.117188 249.527344 C 569.445312 249.863281 569.109375 250.367188 569.109375 251.207031 C 569.109375 251.878906 569.613281 252.546875 570.285156 252.714844 C 575.316406 254.226562 580.351562 255.234375 585.554688 255.738281 C 584.042969 258.421875 583.203125 261.609375 583.203125 264.628906 C 583.203125 274.363281 590.585938 282.082031 599.648438 282.082031 C 600.488281 282.082031 601.328125 281.914062 602.167969 281.914062 C 605.859375 288.960938 611.394531 294.332031 617.941406 297.519531 L 617.941406 310.273438 L 575.484375 316.984375 C 575.148438 316.984375 574.980469 317.152344 574.644531 317.320312 C 574.144531 317.65625 573.472656 317.992188 572.96875 318.496094 C 572.464844 318.832031 571.960938 319.167969 571.457031 319.503906 C 554.507812 316.316406 534.875 314.972656 513.0625 315.308594 C 507.523438 307.589844 501.820312 299.871094 496.28125 292.320312 C 493.09375 288.125 490.074219 283.761719 486.882812 279.398438 C 487.722656 279.398438 488.5625 278.726562 488.5625 277.71875 L 488.5625 93.300781 C 488.5625 92.796875 488.394531 92.292969 487.890625 91.960938 L 447.617188 58.0625 C 447.617188 58.0625 447.449219 58.0625 447.449219 57.894531 C 447.28125 57.894531 447.28125 57.726562 447.113281 57.726562 C 446.945312 57.726562 446.945312 57.726562 446.777344 57.726562 C 446.777344 57.726562 446.609375 57.726562 446.609375 57.726562 L 55.457031 57.726562 C 54.617188 57.726562 53.777344 58.566406 53.777344 59.40625 L 53.777344 569.867188 C 53.777344 570.035156 53.777344 570.035156 53.777344 570.203125 C 53.777344 570.371094 53.777344 570.371094 53.777344 570.539062 C 53.777344 570.539062 53.945312 570.707031 53.945312 570.875 C 53.945312 571.042969 54.113281 571.042969 54.113281 571.210938 L 94.386719 605.109375 C 94.722656 605.445312 95.058594 605.445312 95.394531 605.445312 L 486.714844 605.445312 C 486.882812 605.445312 487.21875 605.445312 487.386719 605.277344 C 487.386719 605.277344 487.386719 605.277344 487.554688 605.277344 C 487.722656 605.277344 487.890625 605.109375 487.890625 604.941406 C 487.890625 604.941406 487.890625 604.773438 488.058594 604.773438 C 488.058594 604.605469 488.226562 604.605469 488.226562 604.4375 C 488.226562 604.269531 488.226562 604.269531 488.226562 604.101562 C 488.226562 604.101562 488.226562 603.933594 488.226562 603.933594 L 488.226562 339.640625 C 490.574219 342.996094 492.925781 346.519531 495.273438 349.875 C 495.609375 350.210938 495.945312 350.546875 496.449219 350.546875 C 507.859375 351.722656 519.4375 353.902344 530.847656 356.085938 C 541.757812 358.097656 552.832031 360.28125 563.90625 361.453125 C 563.066406 381.253906 561.894531 401.390625 560.71875 421.023438 C 559.542969 441.160156 558.371094 461.800781 557.363281 482.105469 C 557.363281 482.777344 557.699219 483.449219 558.371094 483.785156 C 562.5625 485.628906 566.589844 487.308594 570.785156 488.652344 L 573.808594 771.570312 C 573.808594 772.242188 574.144531 772.746094 574.8125 773.082031 C 576.492188 773.921875 578.339844 774.757812 580.015625 775.261719 L 576.492188 786.503906 C 562.5625 791.875 565.25 808.320312 565.25 808.488281 C 565.417969 809.328125 566.089844 809.832031 566.925781 809.832031 L 617.269531 809.832031 C 618.109375 809.832031 618.945312 809.160156 618.945312 808.152344 C 619.113281 798.082031 617.773438 785.164062 616.765625 775.765625 C 620.289062 774.421875 622.304688 773.082031 622.472656 773.082031 C 622.972656 772.746094 623.140625 772.242188 623.308594 771.738281 L 628.007812 505.097656 L 639.921875 505.097656 L 644.621094 771.738281 C 644.621094 772.242188 644.957031 772.746094 645.460938 773.082031 C 645.628906 773.082031 647.640625 774.421875 651.164062 775.765625 C 649.992188 785.332031 648.816406 798.25 648.984375 808.152344 C 648.984375 808.992188 649.824219 809.832031 650.664062 809.832031 L 701.003906 809.832031 C 701.84375 809.832031 702.515625 809.328125 702.683594 808.488281 C 702.683594 808.320312 705.367188 792.042969 691.4375 786.503906 L 687.914062 775.261719 C 689.59375 774.589844 691.4375 773.921875 693.117188 773.082031 C 693.621094 772.746094 693.957031 772.242188 694.125 771.570312 L 696.976562 492.175781 C 699.828125 491.167969 702.683594 489.992188 705.535156 488.820312 C 706.207031 488.484375 706.542969 487.8125 706.542969 487.140625 C 706.207031 482.441406 705.703125 475.730469 705.199219 469.183594 C 705.03125 467.507812 705.03125 465.660156 704.863281 463.816406 C 709.394531 476.738281 713.757812 489.65625 718.289062 502.746094 C 718.457031 503.25 718.957031 503.753906 719.460938 503.921875 C 721.140625 504.257812 722.820312 504.59375 724.496094 504.761719 C 723.824219 514.324219 725.335938 524.058594 728.859375 532.953125 C 729.53125 534.460938 731.375 535.972656 733.054688 535.972656 C 733.222656 535.972656 733.390625 535.972656 733.558594 535.972656 C 733.726562 535.972656 733.726562 535.972656 733.894531 535.804688 C 736.242188 536.980469 738.929688 537.648438 741.613281 537.648438 C 744.96875 537.648438 748.15625 536.644531 750.339844 534.292969 C 753.359375 531.105469 758.394531 525.902344 756.882812 520.199219 C 754.871094 512.648438 752.015625 505.597656 748.15625 498.886719 Z M 490.074219 77.863281 L 704.023438 77.863281 C 704.863281 77.863281 705.535156 77.359375 705.703125 76.519531 C 705.871094 75.683594 705.535156 75.011719 704.863281 74.675781 L 677.679688 61.417969 C 674.324219 51.855469 665.09375 45.140625 654.855469 45.140625 C 653.851562 45.140625 652.675781 45.140625 651.667969 45.308594 C 648.648438 24.835938 631.195312 9.566406 610.222656 9.566406 C 593.609375 9.566406 578.339844 19.636719 571.792969 34.738281 C 567.933594 33.058594 563.738281 32.21875 559.375 32.21875 C 542.929688 32.21875 529.339844 45.308594 528.667969 61.585938 L 489.570312 74.507812 C 488.730469 74.84375 488.226562 75.515625 488.394531 76.351562 C 488.5625 77.359375 489.402344 77.863281 490.074219 77.863281 Z M 27.601562 45.476562 L 164.867188 45.476562 C 165.703125 45.476562 166.375 44.972656 166.542969 44.132812 C 166.710938 43.296875 166.375 42.625 165.703125 42.289062 L 139.863281 29.871094 C 136.171875 21.648438 128.117188 16.277344 118.886719 16.277344 C 117.375 16.277344 115.867188 16.445312 114.355469 16.78125 C 108.988281 6.546875 98.246094 0 86.667969 0 C 69.886719 0 56.296875 13.257812 55.625 29.871094 L 26.929688 42.289062 C 26.257812 42.625 25.753906 43.464844 25.921875 44.132812 C 26.089844 44.972656 26.761719 45.476562 27.601562 45.476562 Z M 27.601562 45.476562 " fill-opacity="1" fill-rule="nonzero"/></g><path fill="#c96bdb" d="M 182.148438 645.214844 C 180.976562 642.191406 177.953125 640.011719 173.589844 638.5 C 166.039062 635.984375 153.789062 634.976562 146.910156 640.347656 C 148.085938 632.460938 143.554688 622.894531 139.191406 617.359375 C 136.339844 613.664062 133.316406 611.652344 129.960938 611.484375 C 125.429688 611.148438 121.570312 614.671875 119.558594 618.027344 C 115.195312 625.246094 115.699219 635.144531 120.734375 642.023438 C 123.753906 646.21875 130.296875 650.75 136.171875 650.75 C 138.519531 650.75 140.703125 650.078125 142.378906 648.570312 C 142.378906 649.742188 142.546875 651.085938 143.050781 652.429688 C 145.066406 658.132812 151.273438 662.664062 156.308594 664.175781 C 158.320312 664.847656 160.335938 665.015625 162.347656 665.015625 C 168.726562 665.015625 175.269531 662.160156 179.296875 657.296875 C 181.980469 654.273438 183.996094 649.410156 182.148438 645.214844 Z M 136.171875 647.226562 C 131.472656 647.226562 125.933594 643.535156 123.417969 640.011719 C 119.222656 634.304688 118.886719 625.914062 122.410156 619.707031 C 123.921875 617.191406 126.4375 614.671875 129.457031 614.671875 C 129.625 614.671875 129.625 614.671875 129.792969 614.671875 C 131.976562 614.839844 134.15625 616.351562 136.507812 619.371094 C 141.207031 625.414062 146.742188 637.660156 141.707031 644.375 C 140.535156 646.386719 138.519531 647.226562 136.171875 647.226562 Z M 176.78125 655.113281 C 172.25 660.652344 164.195312 663 157.3125 660.988281 C 153.121094 659.644531 147.75 655.785156 146.238281 651.253906 C 145.398438 649.074219 145.734375 646.890625 147.078125 645.046875 C 149.761719 641.1875 155.132812 639.84375 160.503906 639.84375 C 164.867188 639.84375 169.230469 640.683594 172.417969 641.6875 C 175.941406 642.863281 178.121094 644.542969 178.960938 646.554688 C 180.304688 649.410156 178.792969 652.765625 176.78125 655.113281 Z M 156.308594 672.734375 C 148.757812 670.214844 136.507812 669.210938 129.625 674.578125 C 130.800781 666.691406 126.269531 657.128906 121.90625 651.589844 C 119.054688 647.898438 116.035156 645.882812 112.679688 645.714844 C 107.980469 645.382812 104.289062 648.90625 102.273438 652.261719 C 97.910156 659.476562 98.414062 669.378906 103.449219 676.257812 C 106.46875 680.453125 113.015625 684.984375 118.886719 684.984375 C 121.234375 684.984375 123.417969 684.3125 125.097656 682.800781 C 125.097656 683.976562 125.261719 685.320312 125.765625 686.660156 C 127.78125 692.367188 133.988281 696.898438 139.023438 698.40625 C 141.039062 699.078125 143.050781 699.246094 145.066406 699.246094 C 151.441406 699.246094 157.984375 696.394531 162.011719 691.527344 C 164.53125 688.507812 166.542969 683.808594 164.867188 679.445312 C 163.691406 676.425781 160.839844 674.242188 156.308594 672.734375 Z M 119.054688 681.628906 C 114.355469 681.628906 108.820312 677.933594 106.300781 674.410156 C 102.105469 668.707031 101.769531 660.316406 105.292969 654.105469 C 106.804688 651.589844 109.320312 649.074219 112.34375 649.074219 C 112.511719 649.074219 112.511719 649.074219 112.679688 649.074219 C 114.859375 649.242188 117.207031 650.75 119.390625 653.769531 C 124.089844 659.8125 129.625 672.0625 124.59375 678.773438 C 123.25 680.621094 121.402344 681.628906 119.054688 681.628906 Z M 159.664062 689.347656 C 155.132812 694.882812 147.078125 697.234375 140.199219 695.21875 C 136.003906 693.875 130.632812 690.015625 129.125 685.488281 C 128.285156 683.304688 128.621094 681.125 129.960938 679.277344 C 132.648438 675.417969 138.015625 674.074219 143.386719 674.074219 C 147.75 674.074219 152.113281 674.914062 155.300781 675.921875 C 158.824219 677.097656 161.007812 678.773438 161.84375 680.789062 C 163.019531 683.640625 161.507812 687.164062 159.664062 689.347656 Z M 159.664062 689.347656 " fill-opacity="1" fill-rule="nonzero"/><g clip-path="url(#eab8122aea)"><path fill="#000000" d="M 650.828125 451.398438 L 642.441406 451.398438 C 642.941406 450.222656 643.109375 449.050781 643.109375 447.875 C 643.109375 446.53125 642.773438 445.355469 642.441406 444.351562 L 650.328125 444.351562 C 651.332031 444.351562 652.003906 443.679688 652.003906 442.671875 C 652.003906 441.664062 651.332031 440.996094 650.328125 440.996094 L 639.921875 440.996094 C 638.246094 439.484375 636.0625 438.644531 633.714844 438.644531 C 631.363281 438.644531 629.183594 439.484375 627.503906 440.996094 L 614.417969 440.996094 C 613.410156 440.996094 612.738281 441.664062 612.738281 442.671875 C 612.738281 443.679688 613.410156 444.351562 614.417969 444.351562 L 625.15625 444.351562 C 624.652344 445.523438 624.484375 446.699219 624.484375 447.875 C 624.484375 449.214844 624.820312 450.390625 625.15625 451.398438 L 613.914062 451.398438 C 612.90625 451.398438 612.234375 452.070312 612.234375 453.078125 C 612.234375 454.082031 612.90625 454.753906 613.914062 454.753906 L 627.503906 454.753906 C 629.183594 456.265625 631.363281 457.105469 633.714844 457.105469 C 636.0625 457.105469 638.246094 456.265625 639.921875 454.753906 L 650.660156 454.753906 C 651.667969 454.753906 652.339844 454.082031 652.339844 453.078125 C 652.339844 452.070312 651.835938 451.398438 650.828125 451.398438 Z M 628.34375 449.382812 L 633.042969 449.382812 C 634.050781 449.382812 634.71875 448.714844 634.71875 447.707031 C 634.71875 446.699219 634.050781 446.027344 633.042969 446.027344 L 628.34375 446.027344 C 629.015625 443.511719 631.363281 441.832031 634.050781 441.832031 C 637.40625 441.832031 639.921875 444.519531 639.921875 447.707031 C 639.921875 450.894531 637.238281 453.578125 634.050781 453.578125 C 631.195312 453.746094 629.015625 451.902344 628.34375 449.382812 Z M 619.785156 313.460938 C 620.792969 313.460938 621.464844 312.789062 621.464844 311.785156 L 621.464844 296.515625 C 621.464844 295.507812 620.792969 294.835938 619.785156 294.835938 C 618.777344 294.835938 618.109375 295.507812 618.109375 296.515625 L 618.109375 311.785156 C 618.109375 312.789062 618.777344 313.460938 619.785156 313.460938 Z M 644.117188 313.460938 C 645.125 313.460938 645.796875 312.789062 645.796875 311.785156 L 645.796875 296.515625 C 645.796875 295.507812 645.125 294.835938 644.117188 294.835938 C 643.109375 294.835938 642.441406 295.507812 642.441406 296.515625 L 642.441406 311.785156 C 642.441406 312.789062 643.109375 313.460938 644.117188 313.460938 Z M 631.867188 341.988281 C 637.238281 341.988281 642.609375 339.808594 646.632812 336.117188 C 647.304688 335.445312 647.304688 334.4375 646.800781 333.765625 C 646.300781 333.09375 645.125 333.09375 644.453125 333.597656 C 640.929688 336.789062 636.398438 338.632812 632.035156 338.632812 C 628.007812 338.632812 623.8125 337.121094 620.457031 334.4375 C 619.785156 333.933594 618.609375 333.933594 618.109375 334.773438 C 617.605469 335.445312 617.605469 336.621094 618.445312 337.121094 C 622.304688 340.144531 627 341.988281 631.867188 341.988281 Z M 614.917969 436.800781 L 650.160156 436.800781 C 651.164062 436.800781 651.835938 436.128906 651.835938 435.121094 C 651.835938 434.113281 651.164062 433.441406 650.160156 433.441406 L 614.917969 433.441406 C 613.914062 433.441406 613.242188 434.113281 613.242188 435.121094 C 613.242188 436.128906 614.082031 436.800781 614.917969 436.800781 Z M 465.238281 262.953125 C 463.390625 260.769531 461.210938 258.757812 458.859375 257.414062 C 454.160156 254.730469 448.457031 253.722656 443.085938 254.5625 C 441.746094 254.058594 439.898438 253.21875 438.890625 252.382812 C 437.382812 251.039062 435.703125 249.863281 433.691406 249.527344 C 431.339844 249.191406 428.488281 250.367188 427.816406 253.050781 C 427.144531 255.90625 429.496094 258.085938 430.332031 259.09375 L 430.667969 259.429688 C 430.835938 259.597656 431.003906 259.765625 431.171875 259.933594 C 425.804688 258.589844 420.265625 257.414062 415.566406 256.578125 C 411.035156 255.90625 409.191406 257.414062 408.519531 258.757812 C 407.679688 260.4375 408.015625 262.617188 409.359375 264.296875 C 410.53125 265.636719 412.042969 266.308594 413.21875 266.8125 C 421.609375 270.839844 430 274.867188 438.386719 278.726562 C 444.429688 281.578125 451.140625 282.753906 457.519531 283.929688 L 459.53125 284.265625 C 459.699219 284.265625 459.699219 284.265625 459.867188 284.265625 C 460.707031 284.265625 461.378906 283.761719 461.546875 282.921875 C 461.714844 282.082031 461.042969 281.074219 460.203125 280.90625 L 458.1875 280.574219 C 451.644531 279.398438 445.605469 278.222656 439.898438 275.539062 C 431.507812 271.511719 423.117188 267.484375 414.726562 263.625 C 413.722656 263.121094 412.714844 262.617188 412.042969 261.945312 C 411.539062 261.441406 411.371094 260.605469 411.539062 260.101562 C 411.875 259.429688 413.21875 259.261719 415.230469 259.597656 C 423.285156 260.9375 433.691406 263.121094 442.082031 266.644531 C 442.414062 266.8125 442.917969 266.8125 443.253906 266.644531 C 447.785156 265.132812 454.328125 263.121094 460.707031 264.464844 C 465.574219 265.46875 469.9375 268.65625 471.613281 272.683594 C 471.949219 273.523438 472.957031 273.859375 473.796875 273.523438 C 474.632812 273.1875 474.96875 272.183594 474.632812 271.34375 C 472.957031 267.988281 469.433594 264.796875 465.238281 262.953125 Z M 442.582031 263.792969 C 441.074219 263.121094 439.5625 262.617188 437.886719 262.113281 C 436.207031 260.4375 434.695312 258.925781 433.019531 257.246094 L 432.683594 256.910156 C 431.84375 256.074219 430.835938 254.898438 431.003906 253.890625 C 431.171875 253.21875 432.179688 252.714844 433.1875 252.882812 C 434.359375 253.050781 435.535156 253.890625 436.710938 254.898438 C 438.21875 256.242188 440.738281 257.414062 442.246094 257.917969 C 442.582031 258.085938 442.75 258.085938 443.085938 257.917969 C 447.785156 256.910156 452.820312 257.75 457.015625 260.269531 C 457.519531 260.601562 458.023438 260.9375 458.523438 261.273438 C 452.652344 260.769531 446.777344 262.449219 442.582031 263.792969 Z M 747.316406 497.375 C 746.816406 496.539062 745.808594 496.371094 744.96875 496.875 C 744.128906 497.375 743.960938 498.382812 744.464844 499.222656 C 748.492188 506.101562 751.679688 513.484375 753.527344 521.039062 C 753.527344 521.207031 753.527344 521.371094 753.527344 521.539062 C 749.835938 523.050781 745.808594 524.058594 741.78125 524.058594 C 741.78125 524.058594 741.613281 524.058594 741.613281 524.058594 C 740.773438 524.058594 739.933594 524.730469 739.933594 525.734375 C 739.933594 526.742188 740.605469 527.414062 741.613281 527.414062 C 741.613281 527.414062 741.78125 527.414062 741.78125 527.414062 C 745.472656 527.414062 749.332031 526.742188 752.855469 525.566406 C 751.847656 527.75 749.835938 530.097656 747.820312 532.113281 C 745.304688 534.796875 740.4375 534.964844 736.578125 533.621094 C 736.578125 533.453125 736.746094 533.453125 736.746094 533.285156 C 737.25 532.113281 737.417969 530.9375 737.417969 529.761719 C 737.585938 526.238281 737.25 522.714844 736.410156 519.191406 C 736.242188 518.351562 735.234375 517.679688 734.398438 518.015625 C 733.558594 518.183594 732.886719 519.191406 733.222656 520.03125 C 734.0625 523.21875 734.230469 526.40625 734.0625 529.59375 C 734.0625 530.433594 733.894531 531.273438 733.726562 531.945312 C 733.558594 532.449219 733.054688 532.785156 732.886719 532.785156 C 732.550781 532.785156 731.878906 532.28125 731.710938 531.945312 C 728.1875 523.050781 726.84375 513.316406 727.683594 503.585938 C 727.851562 502.746094 727.179688 501.90625 726.175781 501.738281 C 725.335938 501.738281 724.496094 502.242188 724.328125 503.25 C 723.320312 513.316406 724.832031 523.722656 728.523438 533.121094 C 729.195312 534.628906 731.039062 536.140625 732.71875 536.140625 C 732.886719 536.140625 733.054688 536.140625 733.222656 536.140625 C 733.390625 536.140625 733.390625 536.140625 733.558594 535.972656 C 735.90625 537.148438 738.59375 537.816406 741.277344 537.816406 C 744.632812 537.816406 747.820312 536.8125 750.003906 534.460938 C 753.023438 531.273438 758.058594 526.070312 756.546875 520.367188 C 754.703125 512.144531 751.511719 504.425781 747.316406 497.375 Z M 161.175781 615.679688 C 121.402344 666.019531 114.523438 722.234375 114.355469 722.738281 C 114.1875 723.578125 114.859375 724.417969 115.867188 724.585938 C 115.867188 724.585938 116.035156 724.585938 116.035156 724.585938 C 116.875 724.585938 117.542969 723.914062 117.710938 723.074219 C 117.710938 722.570312 124.59375 667.195312 163.691406 617.691406 C 164.195312 617.023438 164.195312 615.847656 163.355469 615.34375 C 162.515625 614.839844 161.84375 615.007812 161.175781 615.679688 Z M 735.90625 140.957031 L 696.976562 179.722656 L 694.460938 177.203125 L 733.390625 138.273438 C 734.0625 137.601562 734.0625 136.59375 733.390625 135.925781 C 732.71875 135.253906 731.710938 135.253906 731.039062 135.925781 L 692.109375 174.855469 L 689.59375 172.335938 L 728.523438 133.40625 C 729.195312 132.734375 729.195312 131.730469 728.523438 131.058594 C 727.851562 130.386719 726.847656 130.386719 726.175781 131.058594 L 686.070312 171.164062 C 685.902344 171.332031 685.902344 171.5 685.734375 171.667969 C 685.734375 171.667969 685.734375 171.835938 685.734375 171.835938 C 685.734375 171.835938 685.734375 172.003906 685.734375 172.003906 L 683.382812 183.917969 C 683.214844 184.417969 683.382812 185.089844 683.886719 185.425781 C 684.222656 185.761719 684.558594 185.929688 685.0625 185.929688 C 685.230469 185.929688 685.230469 185.929688 685.398438 185.929688 L 697.3125 183.582031 C 697.3125 183.582031 697.480469 183.582031 697.480469 183.582031 C 697.480469 183.582031 697.648438 183.582031 697.648438 183.582031 C 697.816406 183.582031 697.984375 183.414062 698.152344 183.246094 L 738.257812 143.140625 C 738.929688 142.46875 738.929688 141.460938 738.257812 140.789062 C 737.585938 140.121094 736.410156 140.285156 735.90625 140.957031 Z M 688.417969 176.03125 L 690.933594 178.546875 L 693.453125 181.0625 L 687.074219 182.238281 Z M 747.988281 118.304688 C 745.640625 115.957031 741.445312 115.957031 739.09375 118.304688 L 735.066406 122.332031 C 734.398438 123.003906 734.398438 124.011719 735.066406 124.679688 C 735.738281 125.351562 736.746094 125.351562 737.417969 124.679688 L 741.445312 120.652344 C 742.621094 119.480469 744.464844 119.480469 745.472656 120.652344 L 748.660156 123.84375 C 749.164062 124.34375 749.5 125.183594 749.5 125.855469 C 749.5 126.527344 749.164062 127.367188 748.660156 127.871094 L 744.632812 131.898438 C 743.960938 132.566406 743.960938 133.574219 744.632812 134.246094 C 744.96875 134.582031 745.472656 134.75 745.808594 134.75 C 746.144531 134.75 746.648438 134.582031 746.980469 134.246094 L 751.007812 130.21875 C 752.183594 129.042969 752.855469 127.535156 752.855469 125.855469 C 752.855469 124.179688 752.183594 122.667969 751.007812 121.492188 Z M 718.289062 95.820312 C 678.6875 95.820312 646.300781 120.652344 646.300781 151.363281 C 646.300781 176.03125 667.441406 197.675781 697.984375 204.554688 L 690.601562 234.089844 C 690.433594 234.761719 690.769531 235.601562 691.269531 235.9375 C 691.605469 236.105469 691.941406 236.273438 692.109375 236.273438 C 692.445312 236.273438 692.78125 236.105469 693.117188 235.9375 L 729.867188 206.234375 C 764.769531 201.871094 790.109375 178.882812 790.109375 151.53125 C 790.109375 120.652344 757.890625 95.820312 718.289062 95.820312 Z M 729.195312 202.710938 C 728.859375 202.710938 728.523438 202.878906 728.355469 203.046875 L 695.128906 229.894531 L 701.675781 203.550781 C 701.84375 203.046875 701.675781 202.710938 701.507812 202.207031 C 701.339844 201.703125 700.835938 201.535156 700.5 201.535156 C 670.632812 195.496094 649.824219 174.6875 649.824219 151.195312 C 649.824219 122.5 680.53125 99.007812 718.457031 99.007812 C 756.378906 99.007812 787.085938 122.332031 787.085938 151.195312 C 786.753906 177.035156 762.589844 198.683594 729.195312 202.710938 Z M 729.195312 202.710938 " fill-opacity="1" fill-rule="nonzero"/></g><path fill="#c96bdb" d="M 490.074219 77.863281 L 704.023438 77.863281 C 704.863281 77.863281 705.535156 77.359375 705.703125 76.519531 C 705.871094 75.683594 705.535156 75.011719 704.863281 74.675781 L 677.679688 61.417969 C 674.324219 51.855469 665.09375 45.140625 654.855469 45.140625 C 653.851562 45.140625 652.675781 45.140625 651.667969 45.308594 C 648.648438 24.835938 631.195312 9.566406 610.222656 9.566406 C 593.609375 9.566406 578.339844 19.636719 571.792969 34.738281 C 567.933594 33.058594 563.738281 32.050781 559.375 32.050781 C 542.929688 32.050781 529.339844 45.140625 528.667969 61.417969 L 489.570312 74.339844 C 488.730469 74.675781 488.226562 75.347656 488.394531 76.183594 C 488.5625 77.023438 489.234375 77.863281 490.074219 77.863281 Z M 530.847656 64.605469 C 531.519531 64.4375 532.023438 63.769531 532.023438 63.097656 C 532.023438 47.992188 544.273438 35.746094 559.375 35.746094 C 563.738281 35.746094 567.933594 36.75 571.792969 38.765625 C 572.296875 38.933594 572.632812 38.933594 573.136719 38.765625 C 573.640625 38.597656 573.976562 38.261719 574.144531 37.757812 C 579.847656 22.992188 594.28125 13.089844 610.054688 13.089844 C 629.855469 13.089844 646.300781 27.859375 648.480469 47.492188 C 648.480469 47.992188 648.816406 48.328125 649.152344 48.664062 C 649.488281 49 649.992188 49 650.496094 49 C 651.835938 48.664062 653.347656 48.496094 654.855469 48.496094 C 663.917969 48.496094 672.140625 54.539062 674.824219 63.433594 C 674.992188 64.101562 675.664062 64.605469 676.503906 64.605469 L 696.976562 74.507812 L 500.644531 74.507812 Z M 619.449219 310.273438 L 575.652344 317.152344 C 575.316406 317.152344 575.148438 317.320312 574.8125 317.488281 C 574.3125 317.824219 573.640625 318.160156 573.136719 318.664062 C 572.632812 319 572.128906 319.335938 571.625 319.671875 C 554.675781 316.484375 535.042969 315.140625 513.230469 315.476562 C 507.691406 307.757812 501.988281 299.871094 496.449219 292.488281 C 490.742188 284.765625 484.871094 276.710938 479.164062 268.65625 C 478.660156 267.988281 477.65625 267.652344 476.984375 268.15625 C 467.25 274.027344 459.53125 280.238281 454.496094 286.78125 C 453.996094 287.285156 453.996094 288.125 454.496094 288.792969 C 461.714844 299.367188 468.59375 309.601562 475.136719 319.335938 C 481.683594 329.234375 488.5625 339.472656 495.777344 350.042969 C 496.113281 350.378906 496.449219 350.714844 496.953125 350.714844 C 508.195312 351.890625 519.941406 354.070312 531.183594 356.253906 C 542.09375 358.265625 553.167969 360.449219 564.242188 361.621094 C 563.402344 381.421875 562.230469 401.558594 561.054688 421.191406 C 559.878906 441.328125 558.703125 461.96875 557.699219 482.273438 C 557.699219 482.945312 558.035156 483.617188 558.703125 483.953125 C 576.828125 492.007812 595.285156 496.539062 613.074219 497.210938 C 613.578125 497.210938 613.914062 497.042969 614.25 496.707031 C 614.585938 496.371094 614.75 496.035156 614.75 495.53125 C 615.085938 464.824219 616.597656 433.777344 618.109375 403.910156 C 619.617188 373.871094 621.128906 342.828125 621.464844 312.121094 C 621.464844 311.617188 621.296875 311.113281 620.960938 310.777344 C 620.457031 310.273438 619.953125 310.105469 619.449219 310.273438 Z M 752.351562 495.027344 C 737.585938 428.914062 719.460938 377.058594 695.464844 331.921875 C 696.472656 328.230469 695.800781 323.363281 693.621094 320.175781 C 692.277344 318.160156 690.265625 316.984375 688.082031 316.984375 L 644.453125 310.105469 C 643.949219 310.105469 643.445312 310.105469 643.109375 310.441406 C 642.773438 310.777344 642.609375 311.28125 642.609375 311.785156 C 646.132812 365.144531 648.144531 418.84375 649.992188 470.863281 L 650.828125 495.195312 C 650.828125 496.035156 651.5 496.707031 652.171875 496.707031 C 667.777344 499.558594 688.082031 496.371094 705.367188 488.484375 C 706.039062 488.148438 706.375 487.476562 706.375 486.804688 C 706.039062 482.105469 705.535156 475.394531 705.03125 468.851562 C 704.863281 467.003906 704.863281 465.324219 704.695312 463.480469 C 709.226562 476.402344 713.757812 489.320312 718.121094 502.410156 C 718.289062 502.914062 718.792969 503.417969 719.292969 503.585938 C 722.316406 504.257812 725.167969 504.59375 727.851562 504.59375 C 735.402344 504.59375 742.789062 501.90625 751.511719 496.371094 C 752.183594 496.371094 752.519531 495.699219 752.351562 495.027344 Z M 415.0625 88.265625 L 236.855469 88.265625 C 235.847656 88.265625 235.175781 88.9375 235.175781 89.945312 L 235.175781 131.394531 C 235.175781 132.398438 235.847656 133.070312 236.855469 133.070312 L 415.0625 133.070312 C 416.070312 133.070312 416.742188 132.398438 416.742188 131.394531 L 416.742188 89.945312 C 416.742188 88.9375 415.902344 88.265625 415.0625 88.265625 Z M 413.386719 129.546875 L 238.53125 129.546875 L 238.53125 91.625 L 413.386719 91.625 Z M 325.957031 220.332031 C 296.089844 220.332031 271.589844 244.660156 271.589844 274.699219 C 271.589844 304.570312 295.921875 329.066406 325.957031 329.066406 C 355.828125 329.066406 380.328125 304.734375 380.328125 274.699219 C 380.160156 244.660156 355.828125 220.332031 325.957031 220.332031 Z M 351.96875 274.699219 C 351.96875 289.128906 340.222656 300.707031 325.957031 300.707031 C 311.527344 300.707031 299.949219 288.960938 299.949219 274.699219 C 299.949219 260.4375 311.695312 248.6875 325.957031 248.6875 C 340.390625 248.523438 351.96875 260.269531 351.96875 274.699219 Z M 201.949219 489.320312 L 107.476562 489.320312 C 95.5625 489.320312 85.828125 499.054688 85.828125 510.96875 L 85.828125 515.835938 C 85.828125 527.75 95.5625 537.480469 107.476562 537.480469 L 201.949219 537.480469 C 213.863281 537.480469 223.597656 527.75 223.597656 515.835938 L 223.597656 510.96875 C 223.597656 499.054688 213.863281 489.320312 201.949219 489.320312 Z M 218.058594 668.035156 C 139.695312 653.769531 106.132812 721.566406 105.796875 722.234375 C 105.628906 722.738281 105.628906 723.410156 105.964844 723.914062 C 106.300781 724.417969 106.804688 724.753906 107.308594 724.753906 L 154.628906 724.753906 C 155.46875 724.753906 156.140625 724.25 156.308594 723.410156 C 167.382812 680.117188 217.554688 671.558594 218.058594 671.390625 C 218.898438 671.222656 219.402344 670.550781 219.402344 669.714844 C 219.402344 668.875 218.898438 668.203125 218.058594 668.035156 Z M 218.058594 668.035156 " fill-opacity="1" fill-rule="nonzero"/><path fill="#c96bdb" d="M 339.046875 394.175781 L 313.039062 394.175781 C 312.03125 394.175781 311.359375 394.847656 311.359375 395.855469 L 311.359375 535.804688 C 311.359375 536.8125 312.03125 537.480469 313.039062 537.480469 L 339.046875 537.480469 C 340.054688 537.480469 340.726562 536.8125 340.726562 535.804688 L 340.726562 395.855469 C 340.726562 395.015625 339.886719 394.175781 339.046875 394.175781 Z M 337.371094 534.125 L 314.714844 534.125 L 314.714844 397.53125 L 337.371094 397.53125 Z M 615.925781 773.25 C 615.421875 772.914062 614.917969 772.914062 614.417969 773.082031 C 607.367188 775.597656 596.292969 777.613281 582.867188 772.746094 C 582.367188 772.578125 582.03125 772.578125 581.527344 772.746094 C 581.191406 772.914062 580.855469 773.25 580.6875 773.753906 L 576.660156 786.335938 C 562.730469 791.707031 565.417969 808.152344 565.417969 808.320312 C 565.585938 809.160156 566.257812 809.664062 567.09375 809.664062 L 617.4375 809.664062 C 618.277344 809.664062 619.113281 808.992188 619.113281 807.984375 C 619.28125 797.582031 617.941406 783.820312 616.765625 774.253906 C 616.597656 773.921875 616.261719 773.417969 615.925781 773.25 Z M 691.269531 786.503906 L 687.242188 773.921875 C 687.074219 773.417969 686.742188 773.082031 686.40625 772.914062 C 686.070312 772.746094 685.566406 772.746094 685.0625 772.914062 C 671.636719 777.613281 660.394531 775.765625 653.515625 773.25 C 653.011719 773.082031 652.507812 773.082031 652.003906 773.417969 C 651.5 773.753906 651.332031 774.085938 651.164062 774.589844 C 649.992188 784.15625 648.648438 797.917969 648.816406 808.320312 C 648.816406 809.160156 649.65625 810 650.496094 810 L 700.835938 810 C 701.675781 810 702.347656 809.496094 702.515625 808.65625 C 702.515625 808.320312 705.199219 791.875 691.269531 786.503906 Z M 415.0625 372.027344 L 389.054688 372.027344 C 388.046875 372.027344 387.375 372.699219 387.375 373.703125 L 387.375 535.972656 C 387.375 536.980469 388.046875 537.648438 389.054688 537.648438 L 415.0625 537.648438 C 416.070312 537.648438 416.742188 536.980469 416.742188 535.972656 L 416.742188 373.703125 C 416.742188 372.699219 415.902344 372.027344 415.0625 372.027344 Z M 413.386719 534.125 L 390.730469 534.125 L 390.730469 375.214844 L 413.386719 375.214844 Z M 376.972656 515.332031 L 350.960938 515.332031 C 349.953125 515.332031 349.285156 516.003906 349.285156 517.011719 L 349.285156 535.804688 C 349.285156 536.8125 349.953125 537.480469 350.960938 537.480469 L 376.972656 537.480469 C 377.976562 537.480469 378.648438 536.8125 378.648438 535.804688 L 378.648438 517.011719 C 378.648438 516.171875 377.976562 515.332031 376.972656 515.332031 Z M 375.292969 534.125 L 352.640625 534.125 L 352.640625 518.6875 L 375.292969 518.6875 Z M 300.957031 464.320312 L 274.945312 464.320312 C 273.9375 464.320312 273.269531 464.992188 273.269531 465.996094 L 273.269531 535.804688 C 273.269531 536.8125 273.9375 537.480469 274.945312 537.480469 L 300.957031 537.480469 C 301.960938 537.480469 302.632812 536.8125 302.632812 535.804688 L 302.632812 465.996094 C 302.632812 465.160156 301.792969 464.320312 300.957031 464.320312 Z M 299.277344 534.125 L 276.625 534.125 L 276.625 467.675781 L 299.277344 467.675781 Z M 262.863281 354.40625 L 236.855469 354.40625 C 235.847656 354.40625 235.175781 355.078125 235.175781 356.085938 L 235.175781 535.804688 C 235.175781 536.8125 235.847656 537.480469 236.855469 537.480469 L 262.863281 537.480469 C 263.871094 537.480469 264.542969 536.8125 264.542969 535.804688 L 264.542969 356.085938 C 264.542969 355.078125 263.871094 354.40625 262.863281 354.40625 Z M 261.1875 534.125 L 238.53125 534.125 L 238.53125 357.761719 L 261.1875 357.761719 Z M 22.902344 597.890625 C 22.230469 597.722656 21.390625 597.890625 20.886719 598.5625 C 20.554688 599.234375 20.554688 600.074219 21.222656 600.578125 C 21.558594 600.914062 59.988281 639.339844 64.6875 722.90625 C 64.6875 723.746094 65.523438 724.417969 66.363281 724.417969 L 121.234375 724.417969 C 122.074219 724.417969 122.746094 723.746094 122.914062 722.90625 C 123.082031 722.066406 124.929688 700.253906 113.515625 673.738281 C 102.945312 649.578125 78.78125 616.6875 22.902344 597.890625 Z M 139.695312 120.820312 C 124.929688 120.820312 112.847656 132.902344 112.847656 147.671875 C 112.847656 162.4375 124.929688 174.519531 139.695312 174.519531 C 154.460938 174.519531 166.542969 162.4375 166.542969 147.671875 C 166.542969 132.902344 154.460938 120.820312 139.695312 120.820312 Z M 748.660156 133.574219 L 736.074219 120.988281 C 735.402344 120.316406 734.398438 120.316406 733.726562 120.988281 L 724.832031 129.882812 C 724.496094 130.21875 724.328125 130.554688 724.328125 131.058594 C 724.328125 131.5625 724.496094 131.898438 724.832031 132.230469 L 737.417969 144.816406 C 737.753906 145.152344 738.089844 145.320312 738.59375 145.320312 C 739.09375 145.320312 739.429688 145.152344 739.765625 144.816406 L 748.660156 135.925781 C 749.332031 135.253906 749.332031 134.246094 748.660156 133.574219 Z M 165.703125 42.289062 L 139.863281 29.871094 C 136.171875 21.648438 128.117188 16.277344 118.886719 16.277344 C 117.375 16.277344 115.867188 16.445312 114.355469 16.78125 C 108.988281 6.546875 98.246094 0 86.667969 0 C 69.886719 0 56.296875 13.257812 55.625 29.871094 L 26.929688 42.289062 C 26.257812 42.625 25.753906 43.464844 25.921875 44.132812 C 26.089844 44.972656 26.761719 45.476562 27.601562 45.476562 L 164.867188 45.476562 C 165.703125 45.476562 166.375 44.972656 166.542969 44.132812 C 166.710938 43.464844 166.375 42.625 165.703125 42.289062 Z M 165.703125 42.289062 " fill-opacity="1" fill-rule="nonzero"/><path fill="#000000" d="M 188.191406 670.886719 C 186.175781 671.726562 141.539062 690.351562 134.996094 721.230469 L 93.714844 721.230469 C 89.6875 659.644531 47.234375 615.847656 46.730469 615.511719 C 46.058594 614.839844 45.050781 614.839844 44.382812 615.511719 C 43.710938 616.183594 43.710938 617.191406 44.382812 617.859375 C 44.886719 618.363281 86.332031 660.988281 90.359375 721.230469 L 55.457031 721.230469 C 54.449219 721.230469 53.777344 721.898438 53.777344 722.90625 L 53.777344 740.527344 C 53.777344 741.535156 54.449219 742.203125 55.457031 742.203125 L 64.855469 742.203125 L 77.101562 808.488281 C 77.269531 809.328125 77.941406 809.832031 78.78125 809.832031 L 141.539062 809.832031 C 142.378906 809.832031 143.050781 809.328125 143.21875 808.488281 L 155.46875 742.203125 L 164.867188 742.203125 C 165.871094 742.203125 166.542969 741.535156 166.542969 740.527344 L 166.542969 722.90625 C 166.542969 721.898438 165.871094 721.230469 164.867188 721.230469 L 138.351562 721.230469 C 145.066406 692.535156 189.03125 674.074219 189.363281 673.90625 C 190.203125 673.574219 190.707031 672.566406 190.203125 671.726562 C 190.035156 670.886719 189.03125 670.550781 188.191406 670.886719 Z M 140.03125 806.472656 L 80.125 806.472656 L 68.210938 742.203125 L 151.945312 742.203125 Z M 163.1875 738.847656 L 57.132812 738.847656 L 57.132812 724.585938 L 163.1875 724.585938 Z M 665.765625 273.523438 C 665.597656 274.363281 666.101562 275.371094 667.105469 275.539062 C 667.273438 275.539062 667.273438 275.539062 667.441406 275.539062 C 668.28125 275.539062 668.953125 275.035156 669.121094 274.195312 L 672.8125 257.75 C 672.980469 256.910156 672.476562 255.90625 671.46875 255.738281 C 670.632812 255.570312 669.625 256.074219 669.457031 257.078125 Z M 631.867188 276.878906 C 632.875 276.878906 633.546875 276.210938 633.546875 275.203125 L 633.546875 260.601562 C 633.546875 259.597656 632.875 258.925781 631.867188 258.925781 C 630.859375 258.925781 630.191406 259.597656 630.191406 260.601562 L 630.191406 275.203125 C 630.191406 276.042969 631.027344 276.878906 631.867188 276.878906 Z M 650.828125 274.867188 C 649.992188 274.363281 648.984375 274.699219 648.480469 275.539062 C 643.109375 285.101562 632.539062 284.097656 632.035156 284.097656 C 631.027344 283.929688 630.359375 284.601562 630.191406 285.605469 C 630.023438 286.445312 630.691406 287.285156 631.699219 287.453125 C 631.867188 287.453125 632.371094 287.453125 633.210938 287.453125 C 636.902344 287.453125 646.132812 286.445312 651.332031 277.214844 C 651.835938 276.378906 651.667969 275.371094 650.828125 274.867188 Z M 610.554688 415.152344 C 610.722656 415.152344 610.890625 415.152344 611.226562 414.984375 C 612.066406 414.648438 612.570312 413.640625 612.234375 412.804688 C 609.886719 406.59375 607.703125 400.386719 605.523438 394.175781 C 603.507812 388.472656 601.496094 382.597656 599.3125 376.726562 C 600.65625 375.71875 602 374.710938 603.507812 373.535156 C 605.1875 372.195312 606.863281 370.851562 608.542969 369.675781 C 609.046875 369.339844 609.214844 368.839844 609.214844 368.335938 C 609.214844 367.832031 609.046875 367.328125 608.542969 366.992188 C 607.03125 365.648438 605.355469 364.476562 603.84375 363.132812 C 602.503906 361.957031 601.160156 360.785156 599.816406 359.777344 L 602.335938 321.011719 C 602.335938 320.007812 601.664062 319.335938 600.824219 319.167969 C 599.984375 319.167969 599.144531 319.839844 598.976562 320.675781 L 596.292969 360.28125 C 596.292969 360.785156 596.460938 361.285156 596.964844 361.621094 C 598.476562 362.964844 600.152344 364.140625 601.664062 365.480469 C 602.667969 366.320312 603.675781 367.160156 604.683594 368 C 603.507812 368.835938 602.335938 369.675781 601.328125 370.683594 C 599.648438 372.027344 597.972656 373.367188 596.292969 374.542969 C 595.621094 375.046875 595.453125 375.71875 595.621094 376.558594 C 597.972656 382.765625 600.152344 388.972656 602.335938 395.183594 C 604.515625 401.222656 606.695312 407.601562 609.046875 413.808594 C 609.214844 414.648438 609.71875 415.152344 610.554688 415.152344 Z M 652.675781 412.804688 C 652.339844 413.640625 652.84375 414.648438 653.683594 414.984375 C 653.851562 414.984375 654.019531 415.152344 654.355469 415.152344 C 655.023438 415.152344 655.695312 414.816406 655.863281 414.144531 C 658.214844 407.9375 660.394531 401.726562 662.578125 395.519531 C 664.757812 389.476562 666.9375 383.101562 669.289062 376.890625 C 669.625 376.222656 669.289062 375.382812 668.617188 374.878906 C 666.9375 373.703125 665.261719 372.363281 663.582031 371.019531 C 662.410156 370.179688 661.402344 369.171875 660.226562 368.335938 C 661.234375 367.496094 662.242188 366.65625 663.246094 365.816406 C 664.757812 364.476562 666.4375 363.132812 667.945312 361.957031 C 668.449219 361.621094 668.617188 361.117188 668.617188 360.617188 L 665.933594 321.011719 C 665.933594 320.007812 665.09375 319.335938 664.085938 319.503906 C 663.078125 319.503906 662.410156 320.34375 662.578125 321.347656 L 665.09375 360.113281 C 663.75 361.285156 662.410156 362.292969 661.066406 363.46875 C 659.554688 364.8125 657.878906 366.152344 656.367188 367.328125 C 656.03125 367.664062 655.695312 368.167969 655.695312 368.671875 C 655.695312 369.171875 656.03125 369.675781 656.367188 370.011719 C 658.046875 371.1875 659.722656 372.53125 661.402344 373.871094 C 662.742188 374.878906 664.085938 376.054688 665.597656 377.058594 C 663.414062 382.765625 661.402344 388.808594 659.386719 394.511719 C 657.207031 400.386719 655.023438 406.761719 652.675781 412.804688 Z M 603.84375 430.589844 L 574.476562 459.789062 C 573.808594 460.460938 573.808594 461.464844 574.476562 462.136719 C 574.8125 462.472656 575.316406 462.640625 575.652344 462.640625 C 575.988281 462.640625 576.492188 462.472656 576.828125 462.136719 L 606.195312 432.773438 C 606.863281 432.101562 606.863281 431.09375 606.195312 430.421875 C 605.523438 429.917969 604.515625 429.917969 603.84375 430.589844 Z M 572.464844 345.34375 L 574.144531 327.390625 C 574.3125 326.550781 573.640625 325.710938 572.632812 325.542969 C 571.792969 325.542969 570.953125 326.046875 570.785156 327.054688 L 569.109375 345.007812 C 568.941406 345.847656 569.613281 346.6875 570.617188 346.855469 C 570.617188 346.855469 570.785156 346.855469 570.785156 346.855469 C 571.792969 346.855469 572.464844 346.183594 572.464844 345.34375 Z M 509.707031 321.515625 C 508.867188 321.179688 507.859375 321.515625 507.523438 322.355469 L 501.148438 335.613281 C 500.8125 336.453125 501.148438 337.457031 501.988281 337.792969 C 502.15625 337.960938 502.488281 337.960938 502.65625 337.960938 C 503.328125 337.960938 503.832031 337.625 504.167969 336.953125 L 510.542969 323.699219 C 510.878906 323.027344 510.542969 322.019531 509.707031 321.515625 Z M 678.6875 350.042969 C 679.019531 350.210938 679.355469 350.378906 679.691406 350.378906 C 680.195312 350.378906 680.699219 350.042969 681.035156 349.707031 L 690.097656 336.285156 C 690.601562 335.445312 690.433594 334.4375 689.59375 333.933594 C 688.753906 333.429688 687.746094 333.597656 687.242188 334.4375 L 678.183594 347.863281 C 677.679688 348.367188 677.847656 349.371094 678.6875 350.042969 Z M 610.890625 798.585938 L 572.632812 798.585938 C 571.625 798.585938 570.953125 799.257812 570.953125 800.265625 C 570.953125 801.273438 571.625 801.945312 572.632812 801.945312 L 610.890625 801.945312 C 611.898438 801.945312 612.570312 801.273438 612.570312 800.265625 C 612.570312 799.257812 611.898438 798.585938 610.890625 798.585938 Z M 672.980469 778.785156 C 673.148438 778.785156 673.316406 778.785156 673.316406 778.785156 C 673.652344 778.785156 673.820312 778.785156 674.15625 778.617188 C 678.015625 778.28125 682.042969 777.277344 686.238281 775.765625 C 688.417969 774.925781 690.769531 774.085938 692.949219 772.914062 C 693.453125 772.578125 693.957031 772.074219 693.957031 771.402344 L 696.976562 490.832031 C 696.976562 489.824219 696.304688 489.15625 695.296875 489.15625 C 694.460938 489.15625 693.621094 489.824219 693.621094 490.832031 L 690.769531 770.394531 C 688.921875 771.234375 687.074219 772.074219 685.398438 772.578125 C 681.875 773.753906 678.519531 774.589844 675.328125 775.09375 L 677.175781 507.445312 C 677.175781 506.4375 676.503906 505.765625 675.496094 505.765625 C 674.660156 505.765625 673.820312 506.4375 673.820312 507.445312 L 671.972656 775.429688 C 664.589844 775.933594 658.214844 774.589844 653.851562 772.914062 C 651.164062 771.90625 649.320312 771.066406 648.3125 770.5625 L 643.277344 503.25 C 643.277344 502.410156 642.441406 501.570312 641.601562 501.570312 L 626.5 501.570312 C 625.660156 501.570312 624.820312 502.242188 624.820312 503.25 L 620.121094 770.730469 C 619.113281 771.234375 617.269531 772.242188 614.582031 773.082031 C 610.558594 774.589844 604.851562 775.765625 598.308594 775.597656 L 596.292969 507.613281 C 596.292969 506.773438 595.453125 505.933594 594.613281 505.933594 C 593.609375 505.933594 592.9375 506.773438 592.9375 507.613281 L 594.78125 775.429688 C 591.089844 775.09375 587.0625 774.253906 582.867188 772.746094 C 581.023438 772.074219 579.175781 771.402344 577.5 770.5625 L 574.476562 487.644531 C 574.476562 486.804688 573.640625 485.964844 572.800781 485.964844 C 571.792969 485.964844 571.121094 486.804688 571.121094 487.644531 L 574.144531 771.738281 C 574.144531 772.410156 574.476562 772.914062 575.148438 773.25 C 577.332031 774.421875 579.679688 775.261719 581.863281 776.101562 C 588.238281 778.28125 594.113281 779.121094 599.480469 779.121094 C 606.027344 779.121094 611.5625 777.78125 615.757812 776.269531 C 620.121094 774.757812 622.636719 773.082031 622.636719 773.082031 C 623.140625 772.746094 623.308594 772.242188 623.476562 771.738281 L 628.175781 505.097656 L 640.257812 505.097656 L 644.957031 771.738281 C 644.957031 772.242188 645.292969 772.746094 645.796875 773.082031 C 645.964844 773.082031 648.480469 774.757812 652.675781 776.269531 C 656.871094 777.78125 662.410156 779.121094 668.953125 779.121094 C 670.128906 778.953125 671.46875 778.953125 672.980469 778.785156 Z M 695.296875 798.585938 L 657.039062 798.585938 C 656.03125 798.585938 655.359375 799.257812 655.359375 800.265625 C 655.359375 801.273438 656.03125 801.945312 657.039062 801.945312 L 695.296875 801.945312 C 696.304688 801.945312 696.976562 801.273438 696.976562 800.265625 C 696.976562 799.257812 696.304688 798.585938 695.296875 798.585938 Z M 447.785156 58.230469 C 447.785156 58.230469 447.617188 58.230469 447.617188 58.0625 C 447.449219 58.0625 447.449219 57.894531 447.28125 57.894531 C 447.113281 57.894531 447.113281 57.894531 446.945312 57.894531 C 446.945312 57.894531 446.777344 57.894531 446.777344 57.894531 L 55.457031 57.894531 C 54.449219 57.894531 53.777344 58.566406 53.777344 59.574219 L 53.777344 570.035156 C 53.777344 570.203125 53.777344 570.203125 53.777344 570.371094 C 53.777344 570.539062 53.777344 570.539062 53.777344 570.707031 C 53.777344 570.875 53.945312 570.875 53.945312 570.875 C 53.945312 571.042969 54.113281 571.042969 54.113281 571.210938 L 94.386719 605.109375 C 94.722656 605.445312 95.058594 605.445312 95.394531 605.445312 L 486.714844 605.445312 C 486.882812 605.445312 487.21875 605.445312 487.386719 605.277344 C 487.386719 605.277344 487.554688 605.277344 487.554688 605.109375 C 487.722656 604.941406 487.890625 604.941406 488.058594 604.773438 C 488.058594 604.773438 488.058594 604.605469 488.226562 604.605469 C 488.226562 604.4375 488.394531 604.4375 488.394531 604.269531 C 488.394531 604.101562 488.394531 604.101562 488.394531 603.933594 C 488.394531 603.933594 488.394531 603.765625 488.394531 603.765625 L 488.394531 340.3125 C 488.394531 339.304688 487.722656 338.632812 486.714844 338.632812 C 485.710938 338.632812 485.039062 339.304688 485.039062 340.3125 L 485.039062 600.242188 L 475.808594 592.355469 L 475.808594 435.121094 C 475.808594 434.113281 475.136719 433.441406 474.132812 433.441406 C 473.125 433.441406 472.453125 434.113281 472.453125 435.121094 L 472.453125 589.5 L 462.050781 580.609375 L 462.050781 334.101562 C 462.050781 333.09375 461.378906 332.425781 460.371094 332.425781 C 459.363281 332.425781 458.691406 333.09375 458.691406 334.101562 L 458.691406 577.753906 L 448.457031 569.199219 L 448.457031 280.574219 C 448.457031 279.566406 447.785156 278.894531 446.777344 278.894531 C 445.773438 278.894531 445.101562 279.566406 445.101562 280.574219 L 445.101562 568.359375 L 57.132812 568.359375 L 57.132812 61.082031 L 445.101562 61.082031 L 445.101562 255.90625 C 445.101562 256.910156 445.773438 257.582031 446.777344 257.582031 C 447.785156 257.582031 448.457031 256.910156 448.457031 255.90625 L 448.457031 63.097656 L 458.691406 71.65625 L 458.691406 231.574219 C 458.691406 232.578125 459.363281 233.25 460.371094 233.25 C 461.378906 233.25 462.050781 232.578125 462.050781 231.574219 L 462.050781 74.507812 L 472.621094 83.402344 L 472.621094 258.253906 C 472.621094 259.261719 473.292969 259.933594 474.296875 259.933594 C 475.304688 259.933594 475.976562 259.261719 475.976562 258.253906 L 475.976562 86.253906 L 485.207031 94.140625 L 485.207031 276.378906 C 485.207031 277.382812 485.878906 278.054688 486.882812 278.054688 C 487.890625 278.054688 488.5625 277.382812 488.5625 276.378906 L 488.5625 93.46875 C 488.5625 92.964844 488.394531 92.460938 487.890625 92.125 Z M 446.105469 571.546875 L 455.671875 579.601562 L 331.160156 579.601562 C 330.152344 579.601562 329.484375 580.273438 329.484375 581.28125 C 329.484375 582.285156 330.152344 582.957031 331.160156 582.957031 L 459.699219 582.957031 L 469.769531 591.347656 L 401.972656 591.347656 C 400.96875 591.347656 400.296875 592.019531 400.296875 593.027344 C 400.296875 594.03125 400.96875 594.703125 401.972656 594.703125 L 473.796875 594.703125 L 482.519531 602.085938 L 96.234375 602.085938 L 87.507812 594.703125 L 162.683594 594.703125 C 163.691406 594.703125 164.363281 594.03125 164.363281 593.027344 C 164.363281 592.019531 163.691406 591.347656 162.683594 591.347656 L 83.648438 591.347656 L 73.578125 582.957031 L 221.917969 582.957031 C 222.925781 582.957031 223.597656 582.285156 223.597656 581.28125 C 223.597656 580.273438 222.925781 579.601562 221.917969 579.601562 L 69.550781 579.601562 L 59.988281 571.546875 Z M 315.050781 145.992188 L 236.855469 145.992188 C 235.847656 145.992188 235.175781 146.664062 235.175781 147.671875 C 235.175781 148.675781 235.847656 149.347656 236.855469 149.347656 L 315.050781 149.347656 C 316.058594 149.347656 316.730469 148.675781 316.730469 147.671875 C 316.730469 146.664062 315.890625 145.992188 315.050781 145.992188 Z M 315.050781 156.898438 L 236.855469 156.898438 C 235.847656 156.898438 235.175781 157.570312 235.175781 158.578125 C 235.175781 159.585938 235.847656 160.257812 236.855469 160.257812 L 315.050781 160.257812 C 316.058594 160.257812 316.730469 159.585938 316.730469 158.578125 C 316.730469 157.570312 315.890625 156.898438 315.050781 156.898438 Z M 315.050781 167.976562 L 236.855469 167.976562 C 235.847656 167.976562 235.175781 168.644531 235.175781 169.652344 C 235.175781 170.660156 235.847656 171.332031 236.855469 171.332031 L 315.050781 171.332031 C 316.058594 171.332031 316.730469 170.660156 316.730469 169.652344 C 316.730469 168.644531 315.890625 167.976562 315.050781 167.976562 Z M 316.730469 180.558594 C 316.730469 179.554688 316.058594 178.882812 315.050781 178.882812 L 236.855469 178.882812 C 235.847656 178.882812 235.175781 179.554688 235.175781 180.558594 C 235.175781 181.566406 235.847656 182.238281 236.855469 182.238281 L 315.050781 182.238281 C 315.890625 182.238281 316.730469 181.398438 316.730469 180.558594 Z M 236.855469 189.789062 C 235.847656 189.789062 235.175781 190.460938 235.175781 191.46875 C 235.175781 192.472656 235.847656 193.144531 236.855469 193.144531 L 283 193.144531 C 284.007812 193.144531 284.679688 192.472656 284.679688 191.46875 C 284.679688 190.460938 284.007812 189.789062 283 189.789062 Z M 221.917969 354.40625 L 87.507812 354.40625 C 86.5 354.40625 85.828125 355.078125 85.828125 356.085938 C 85.828125 357.089844 86.5 357.761719 87.507812 357.761719 L 221.917969 357.761719 C 222.925781 357.761719 223.597656 357.089844 223.597656 356.085938 C 223.597656 355.078125 222.925781 354.40625 221.917969 354.40625 Z M 221.917969 365.3125 L 87.507812 365.3125 C 86.5 365.3125 85.828125 365.984375 85.828125 366.992188 C 85.828125 368 86.5 368.671875 87.507812 368.671875 L 221.917969 368.671875 C 222.925781 368.671875 223.597656 368 223.597656 366.992188 C 223.597656 365.984375 222.925781 365.3125 221.917969 365.3125 Z M 221.917969 376.222656 L 87.507812 376.222656 C 86.5 376.222656 85.828125 376.890625 85.828125 377.898438 C 85.828125 378.90625 86.5 379.578125 87.507812 379.578125 L 221.917969 379.578125 C 222.925781 379.578125 223.597656 378.90625 223.597656 377.898438 C 223.597656 376.890625 222.925781 376.222656 221.917969 376.222656 Z M 221.917969 387.296875 L 87.507812 387.296875 C 86.5 387.296875 85.828125 387.96875 85.828125 388.972656 C 85.828125 389.980469 86.5 390.652344 87.507812 390.652344 L 221.917969 390.652344 C 222.925781 390.652344 223.597656 389.980469 223.597656 388.972656 C 223.597656 387.96875 222.925781 387.296875 221.917969 387.296875 Z M 87.507812 401.558594 L 154.796875 401.558594 C 155.804688 401.558594 156.476562 400.890625 156.476562 399.882812 C 156.476562 398.875 155.804688 398.203125 154.796875 398.203125 L 87.507812 398.203125 C 86.5 398.203125 85.828125 398.875 85.828125 399.882812 C 85.828125 400.890625 86.5 401.558594 87.507812 401.558594 Z M 221.917969 420.523438 L 87.507812 420.523438 C 86.5 420.523438 85.828125 421.191406 85.828125 422.199219 C 85.828125 423.207031 86.5 423.878906 87.507812 423.878906 L 221.917969 423.878906 C 222.925781 423.878906 223.597656 423.207031 223.597656 422.199219 C 223.597656 421.191406 222.925781 420.523438 221.917969 420.523438 Z M 221.917969 431.597656 L 87.507812 431.597656 C 86.5 431.597656 85.828125 432.269531 85.828125 433.273438 C 85.828125 434.28125 86.5 434.953125 87.507812 434.953125 L 221.917969 434.953125 C 222.925781 434.953125 223.597656 434.28125 223.597656 433.273438 C 223.597656 432.269531 222.925781 431.597656 221.917969 431.597656 Z M 206.984375 506.269531 L 102.441406 506.269531 C 101.433594 506.269531 100.765625 506.941406 100.765625 507.949219 C 100.765625 508.957031 101.433594 509.625 102.441406 509.625 L 206.984375 509.625 C 207.992188 509.625 208.664062 508.957031 208.664062 507.949219 C 208.664062 506.941406 207.824219 506.269531 206.984375 506.269531 Z M 206.984375 517.179688 L 102.441406 517.179688 C 101.433594 517.179688 100.765625 517.847656 100.765625 518.855469 C 100.765625 519.863281 101.433594 520.535156 102.441406 520.535156 L 206.984375 520.535156 C 207.992188 520.535156 208.664062 519.863281 208.664062 518.855469 C 208.664062 517.847656 207.824219 517.179688 206.984375 517.179688 Z M 221.917969 442.503906 L 87.507812 442.503906 C 86.5 442.503906 85.828125 443.175781 85.828125 444.183594 C 85.828125 445.1875 86.5 445.859375 87.507812 445.859375 L 221.917969 445.859375 C 222.925781 445.859375 223.597656 445.1875 223.597656 444.183594 C 223.597656 443.175781 222.925781 442.503906 221.917969 442.503906 Z M 223.597656 455.089844 C 223.597656 454.082031 222.925781 453.410156 221.917969 453.410156 L 87.507812 453.410156 C 86.5 453.410156 85.828125 454.082031 85.828125 455.089844 C 85.828125 456.097656 86.5 456.769531 87.507812 456.769531 L 221.917969 456.769531 C 222.925781 456.769531 223.597656 456.097656 223.597656 455.089844 Z M 156.308594 465.996094 C 156.308594 464.992188 155.636719 464.320312 154.628906 464.320312 L 87.507812 464.320312 C 86.5 464.320312 85.828125 464.992188 85.828125 465.996094 C 85.828125 467.003906 86.5 467.675781 87.507812 467.675781 L 154.796875 467.675781 C 155.636719 467.675781 156.308594 467.003906 156.308594 465.996094 Z M 415.0625 145.992188 L 336.867188 145.992188 C 335.859375 145.992188 335.1875 146.664062 335.1875 147.671875 C 335.1875 148.675781 335.859375 149.347656 336.867188 149.347656 L 415.0625 149.347656 C 416.070312 149.347656 416.742188 148.675781 416.742188 147.671875 C 416.742188 146.664062 415.902344 145.992188 415.0625 145.992188 Z M 415.0625 156.898438 L 336.867188 156.898438 C 335.859375 156.898438 335.1875 157.570312 335.1875 158.578125 C 335.1875 159.585938 335.859375 160.257812 336.867188 160.257812 L 415.0625 160.257812 C 416.070312 160.257812 416.742188 159.585938 416.742188 158.578125 C 416.742188 157.570312 415.902344 156.898438 415.0625 156.898438 Z M 415.0625 167.976562 L 336.867188 167.976562 C 335.859375 167.976562 335.1875 168.644531 335.1875 169.652344 C 335.1875 170.660156 335.859375 171.332031 336.867188 171.332031 L 415.0625 171.332031 C 416.070312 171.332031 416.742188 170.660156 416.742188 169.652344 C 416.742188 168.644531 415.902344 167.976562 415.0625 167.976562 Z M 416.742188 180.558594 C 416.742188 179.554688 416.070312 178.882812 415.0625 178.882812 L 336.867188 178.882812 C 335.859375 178.882812 335.1875 179.554688 335.1875 180.558594 C 335.1875 181.566406 335.859375 182.238281 336.867188 182.238281 L 415.0625 182.238281 C 415.902344 182.238281 416.742188 181.398438 416.742188 180.558594 Z M 384.691406 191.46875 C 384.691406 190.460938 384.019531 189.789062 383.011719 189.789062 L 336.867188 189.789062 C 335.859375 189.789062 335.1875 190.460938 335.1875 191.46875 C 335.1875 192.472656 335.859375 193.144531 336.867188 193.144531 L 383.011719 193.144531 C 383.851562 193.144531 384.691406 192.472656 384.691406 191.46875 Z M 362.035156 236.273438 L 344.417969 253.890625 C 343.746094 254.5625 343.746094 255.570312 344.417969 256.242188 C 344.753906 256.574219 345.257812 256.742188 345.59375 256.742188 C 345.925781 256.742188 346.429688 256.574219 346.765625 256.242188 L 364.386719 238.621094 C 365.058594 237.949219 365.058594 236.941406 364.386719 236.273438 C 363.714844 235.601562 362.539062 235.601562 362.035156 236.273438 Z M 287.53125 236.273438 C 286.859375 236.941406 286.859375 237.949219 287.53125 238.621094 L 305.152344 256.242188 C 305.488281 256.574219 305.988281 256.742188 306.324219 256.742188 C 306.660156 256.742188 307.164062 256.574219 307.5 256.242188 C 308.171875 255.570312 308.171875 254.5625 307.5 253.890625 L 289.878906 236.273438 C 289.210938 235.601562 288.203125 235.601562 287.53125 236.273438 Z M 324.28125 302.386719 L 324.28125 327.222656 C 324.28125 328.230469 324.953125 328.898438 325.957031 328.898438 C 326.964844 328.898438 327.636719 328.230469 327.636719 327.222656 L 327.636719 302.386719 C 327.636719 301.378906 326.964844 300.707031 325.957031 300.707031 C 324.953125 300.707031 324.28125 301.378906 324.28125 302.386719 Z M 693.285156 364.8125 C 693.117188 363.972656 692.277344 363.300781 691.4375 363.300781 C 690.601562 363.46875 689.929688 364.308594 689.929688 365.144531 L 700.332031 449.550781 C 700.5 450.390625 701.171875 451.0625 702.011719 451.0625 C 702.011719 451.0625 702.179688 451.0625 702.179688 451.0625 C 703.015625 450.894531 703.6875 450.054688 703.6875 449.214844 Z M 570.449219 252.882812 C 575.484375 254.394531 580.519531 255.402344 585.722656 255.90625 C 584.210938 258.589844 583.371094 261.777344 583.371094 264.964844 C 583.371094 274.53125 590.753906 282.417969 599.816406 282.417969 C 600.65625 282.417969 601.496094 282.25 602.335938 282.25 C 608.207031 293.828125 619.449219 301.042969 632.035156 301.042969 C 644.453125 301.042969 655.695312 293.828125 661.738281 282.25 C 662.578125 282.417969 663.414062 282.417969 664.253906 282.417969 C 673.316406 282.417969 680.699219 274.53125 680.699219 264.964844 C 680.699219 257.75 676.503906 251.207031 670.128906 248.6875 C 672.644531 243.320312 678.519531 227.546875 665.597656 217.644531 C 664.925781 215.128906 661.570312 205.394531 651.667969 200.863281 C 641.769531 196.335938 628.511719 198.347656 612.570312 206.90625 C 582.199219 223.183594 579.511719 237.109375 581.191406 244.660156 C 575.316406 247.683594 570.285156 249.863281 570.285156 249.863281 C 569.613281 250.199219 569.277344 250.871094 569.277344 251.542969 C 569.277344 252.046875 569.78125 252.550781 570.449219 252.882812 Z M 586.558594 264.796875 C 586.558594 261.609375 587.566406 258.589844 589.246094 256.242188 C 589.917969 256.242188 590.585938 256.410156 591.257812 256.410156 C 590.921875 256.742188 590.753906 257.246094 590.921875 257.75 L 594.613281 274.195312 C 594.78125 275.035156 595.453125 275.539062 596.292969 275.539062 C 596.460938 275.539062 596.460938 275.539062 596.628906 275.539062 C 597.46875 275.371094 598.140625 274.363281 597.972656 273.523438 L 594.28125 257.078125 C 594.28125 256.910156 594.113281 256.742188 594.113281 256.578125 C 594.949219 256.578125 595.957031 256.578125 596.796875 256.578125 C 597.46875 256.578125 598.308594 256.578125 598.976562 256.578125 C 598.308594 259.261719 597.972656 262.113281 597.972656 264.964844 C 597.972656 269.832031 598.808594 274.53125 600.65625 279.0625 C 600.320312 279.0625 599.984375 279.0625 599.648438 279.0625 C 592.433594 279.0625 586.558594 272.683594 586.558594 264.796875 Z M 631.867188 297.519531 C 620.289062 297.519531 609.886719 290.640625 604.683594 279.566406 C 602.503906 275.035156 601.496094 270.167969 601.496094 264.964844 C 601.496094 262.113281 601.832031 259.261719 602.503906 256.410156 C 628.511719 254.898438 647.304688 243.488281 652.003906 240.300781 C 652.339844 240.632812 652.675781 240.96875 653.011719 241.304688 C 655.527344 243.824219 657.542969 246.84375 659.050781 250.03125 C 659.050781 250.03125 659.050781 250.199219 659.21875 250.199219 C 661.402344 254.730469 662.410156 259.597656 662.410156 264.628906 C 662.410156 269.832031 661.234375 274.699219 659.21875 279.230469 C 654.019531 290.640625 643.445312 297.519531 631.867188 297.519531 Z M 677.175781 264.964844 C 677.175781 272.683594 671.300781 279.0625 664.085938 279.0625 C 663.75 279.0625 663.414062 279.0625 663.078125 279.0625 C 664.925781 274.699219 665.765625 269.832031 665.765625 264.964844 C 665.765625 260.101562 664.925781 255.402344 663.078125 250.871094 C 663.75 250.871094 664.421875 250.871094 665.261719 250.871094 C 665.429688 250.871094 665.597656 250.871094 665.765625 250.871094 C 665.765625 250.871094 665.765625 250.871094 665.933594 250.871094 C 666.4375 250.871094 666.9375 251.039062 667.441406 251.207031 C 673.148438 252.714844 677.175781 258.421875 677.175781 264.964844 Z M 583.875 246.84375 C 584.546875 246.507812 584.882812 245.667969 584.714844 244.828125 C 583.203125 239.796875 582.867188 226.371094 614.082031 209.757812 C 629.183594 201.703125 641.265625 199.691406 650.160156 203.886719 C 659.890625 208.417969 662.410156 218.988281 662.410156 218.988281 C 662.578125 219.324219 662.742188 219.660156 663.078125 219.996094 C 674.992188 228.71875 668.785156 243.65625 666.769531 247.683594 C 666.605469 247.683594 666.4375 247.683594 666.269531 247.683594 C 666.101562 247.683594 665.933594 247.683594 665.933594 247.683594 C 665.261719 247.683594 664.757812 247.515625 664.085938 247.515625 C 663.582031 247.515625 662.910156 247.515625 662.410156 247.683594 C 662.242188 247.683594 662.074219 247.683594 662.074219 247.683594 C 661.90625 247.683594 661.738281 247.683594 661.738281 247.683594 C 661.570312 247.515625 661.570312 247.347656 661.402344 247.179688 C 661.066406 246.675781 660.898438 246.171875 660.5625 245.667969 C 660.226562 244.996094 659.722656 244.496094 659.386719 243.824219 C 659.21875 243.488281 658.882812 243.152344 658.550781 242.648438 C 658.382812 242.3125 658.046875 241.976562 657.878906 241.640625 C 657.207031 240.800781 656.535156 239.964844 655.695312 239.125 C 655.695312 239.125 655.695312 239.125 655.527344 238.957031 C 655.191406 238.453125 654.6875 238.117188 654.355469 237.78125 C 654.019531 237.445312 653.515625 237.109375 653.179688 236.773438 C 653.011719 236.605469 652.84375 236.605469 652.675781 236.441406 C 652.675781 236.441406 652.507812 236.441406 652.507812 236.441406 C 652.339844 236.441406 652.339844 236.441406 652.171875 236.441406 C 652.171875 236.441406 652.003906 236.441406 652.003906 236.441406 C 651.835938 236.441406 651.835938 236.441406 651.667969 236.605469 C 651.667969 236.605469 651.5 236.605469 651.5 236.773438 C 651.5 236.773438 651.332031 236.773438 651.332031 236.773438 C 651.164062 236.941406 630.691406 251.710938 601.328125 253.050781 C 592.9375 253.386719 584.378906 252.714844 576.15625 250.703125 C 578.003906 249.695312 580.855469 248.355469 583.875 246.84375 Z M 599.816406 239.796875 C 599.984375 239.796875 600.152344 239.796875 600.320312 239.628906 L 636.566406 226.539062 C 637.40625 226.203125 637.910156 225.195312 637.574219 224.359375 C 637.238281 223.519531 636.230469 223.015625 635.390625 223.351562 L 599.144531 236.441406 C 598.308594 236.773438 597.804688 237.78125 598.140625 238.621094 C 598.476562 239.460938 599.144531 239.796875 599.816406 239.796875 Z M 202.789062 593.195312 C 202.789062 594.199219 203.460938 594.871094 204.46875 594.871094 L 331.160156 594.871094 C 332.167969 594.871094 332.839844 594.199219 332.839844 593.195312 C 332.839844 592.1875 332.167969 591.515625 331.160156 591.515625 L 204.46875 591.515625 C 203.628906 591.515625 202.789062 592.1875 202.789062 593.195312 Z M 223.597656 89.945312 C 223.597656 88.9375 222.925781 88.265625 221.917969 88.265625 L 87.507812 88.265625 C 86.5 88.265625 85.828125 88.9375 85.828125 89.945312 L 85.828125 327.222656 C 85.828125 328.230469 86.5 328.898438 87.507812 328.898438 L 221.917969 328.898438 C 222.925781 328.898438 223.597656 328.230469 223.597656 327.222656 Z M 220.242188 91.625 L 220.242188 227.378906 L 189.03125 163.445312 C 188.695312 162.941406 188.191406 162.4375 187.519531 162.4375 C 186.847656 162.4375 186.34375 162.773438 186.007812 163.445312 L 139.695312 258.253906 L 117.542969 212.945312 C 117.207031 212.441406 116.707031 211.941406 116.035156 211.941406 C 115.363281 211.941406 114.859375 212.277344 114.523438 212.945312 L 89.183594 264.964844 L 89.183594 91.625 Z M 89.183594 272.519531 L 116.035156 217.476562 L 137.847656 261.945312 L 106.636719 325.542969 L 89.183594 325.542969 Z M 110.496094 325.542969 L 187.519531 167.976562 L 220.242188 235.097656 L 220.242188 325.710938 L 110.496094 325.710938 Z M 110.496094 325.542969 " fill-opacity="1" fill-rule="nonzero"/></svg>