<svg xmlns="http://www.w3.org/2000/svg" xmlns:xlink="http://www.w3.org/1999/xlink" width="1080" zoomAndPan="magnify" viewBox="0 0 810 809.999993" height="1080" preserveAspectRatio="xMidYMid meet" version="1.0"><defs><clipPath id="21ea328929"><path d="M 12.964844 12.25 L 384 12.25 L 384 307 L 12.964844 307 Z M 12.964844 12.25 " clip-rule="nonzero"/></clipPath><clipPath id="33834b1ad7"><path d="M 48 58 L 789 58 L 789 796.75 L 48 796.75 Z M 48 58 " clip-rule="nonzero"/></clipPath><clipPath id="88b5bbc217"><path d="M 12.964844 12.25 L 738 12.25 L 738 728 L 12.964844 728 Z M 12.964844 12.25 " clip-rule="nonzero"/></clipPath></defs><path fill="#f2edf4" d="M 775.71875 582.765625 C 770.007812 560.898438 764.097656 541.199219 758.582031 522.09375 C 747.945312 485.648438 737.898438 451.371094 729.230469 407.441406 C 725.878906 391.289062 703.421875 373.953125 662.054688 355.832031 C 648.460938 349.921875 626.203125 341.058594 596.0625 331.796875 L 586.015625 323.128906 C 584.636719 321.949219 583.652344 320.175781 583.457031 318.402344 L 580.105469 292.003906 C 580.105469 292.203125 580.105469 292.398438 580.304688 292.792969 L 579.515625 276.835938 C 579.515625 276.445312 579.316406 276.050781 578.925781 275.851562 C 578.726562 275.851562 578.726562 275.65625 578.53125 275.65625 C 581.289062 268.367188 595.273438 230.148438 601.578125 196.859375 C 607.292969 166.523438 591.136719 139.730469 550.753906 136.183594 C 545.632812 135.789062 540.511719 135.398438 535.78125 135.398438 C 529.480469 126.136719 518.839844 120.621094 507.613281 120.226562 C 501.902344 120.03125 495.003906 121.214844 491.066406 125.746094 C 488.898438 128.304688 488.109375 131.0625 488.503906 133.625 C 471.957031 132.046875 459.152344 139.925781 455.804688 144.457031 C 448.710938 153.914062 448.121094 165.734375 451.273438 176.765625 C 450.878906 180.507812 451.863281 188.585938 452.457031 190.949219 C 454.03125 197.449219 457.578125 201.390625 459.742188 203.164062 C 459.742188 203.753906 459.742188 204.148438 459.742188 204.148438 L 459.351562 230.742188 C 456.394531 260.488281 457.378906 297.324219 463.09375 304.808594 C 466.046875 308.75 474.320312 309.933594 480.625 310.324219 C 480.035156 313.28125 478.457031 320.175781 476.683594 328.054688 C 460.136719 333.769531 373.460938 363.316406 364.003906 373.167969 C 359.671875 377.699219 345.09375 406.457031 327.363281 466.738281 L 312.589844 492.347656 L 311.800781 482.101562 C 312.589844 481.90625 312.984375 481.316406 312.984375 480.527344 L 309.636719 440.734375 C 309.4375 439.160156 308.652344 437.582031 307.46875 436.597656 C 306.285156 435.613281 304.710938 435.21875 303.136719 435.613281 L 302.542969 435.808594 C 301.757812 424.976562 300.769531 413.945312 299.390625 408.429688 C 296.832031 398.382812 292.695312 396.804688 284.816406 394.046875 C 283.632812 393.652344 282.253906 393.0625 280.679688 392.667969 C 278.707031 391.882812 276.542969 391.488281 274.375 390.894531 C 270.632812 390.109375 266.691406 389.121094 263.933594 386.757812 C 260.386719 383.605469 259.601562 378.089844 259.007812 373.167969 C 258.8125 372.378906 258.8125 371.589844 258.613281 370.804688 C 258.417969 369.621094 258.222656 368.4375 258.023438 367.257812 C 257.628906 365.089844 257.234375 362.726562 257.039062 360.558594 C 255.855469 350.90625 248.960938 345.980469 243.25 346.574219 C 239.703125 346.964844 235.761719 349.722656 236.355469 356.621094 C 236.75 360.363281 236.75 376.515625 236.75 387.351562 C 234.1875 378.089844 230.839844 365.484375 230.050781 363.121094 L 229.066406 360.757812 C 226.503906 353.863281 223.746094 346.574219 219.609375 340.464844 C 216.851562 336.328125 210.941406 329.238281 201.882812 328.84375 C 197.941406 328.644531 194.199219 330.222656 191.835938 332.785156 C 186.710938 327.070312 181.195312 324.902344 175.285156 326.28125 C 169.574219 327.464844 166.421875 331.601562 166.027344 337.707031 C 164.058594 337.511719 162.285156 337.90625 160.511719 338.890625 C 153.816406 343.027344 155.785156 351.496094 156.964844 356.226562 C 159.921875 368.242188 172.136719 393.457031 173.316406 394.441406 C 182.773438 402.125 192.820312 409.214844 202.667969 416.109375 C 206.410156 418.671875 210.15625 421.234375 213.699219 423.992188 C 214.292969 424.382812 214.882812 424.777344 215.472656 425.171875 C 217.640625 426.550781 220.203125 428.324219 220.988281 430.492188 C 221.582031 432.265625 222.367188 441.324219 222.960938 450.980469 L 211.140625 453.144531 C 208.578125 453.539062 206.804688 455.902344 206.609375 458.464844 L 205.03125 497.273438 C 205.03125 497.664062 205.03125 498.257812 205.425781 498.453125 C 205.625 498.652344 205.625 498.652344 206.804688 498.652344 C 207.988281 498.652344 209.957031 498.453125 214.09375 497.863281 C 216.0625 515.59375 219.414062 548.6875 222.960938 600.691406 C 223.746094 613.890625 244.039062 633.195312 263.539062 645.214844 C 272.207031 650.53125 293.484375 662.546875 305.695312 657.425781 C 325.789062 649.152344 377.203125 614.679688 382.71875 599.707031 C 382.71875 599.511719 382.917969 599.511719 382.917969 599.3125 L 385.675781 626.894531 L 366.171875 794.140625 C 366.171875 794.535156 366.171875 794.925781 366.566406 795.125 C 366.761719 795.320312 367.15625 795.519531 367.550781 795.519531 L 393.554688 794.335938 C 394.144531 794.335938 394.539062 793.941406 394.738281 793.546875 L 397.496094 786.0625 L 580.5 785.667969 L 585.226562 795.125 C 585.425781 795.519531 585.820312 795.914062 586.410156 795.914062 L 686.875 795.914062 C 687.269531 795.914062 687.664062 795.714844 687.859375 795.519531 C 688.058594 795.320312 688.253906 794.925781 688.253906 794.535156 L 676.828125 698.203125 C 730.609375 712.386719 761.535156 711.796875 777.097656 696.234375 C 795.8125 677.519531 790.101562 637.332031 775.71875 582.765625 Z M 579.515625 290.824219 C 579.910156 291.019531 580.105469 291.613281 580.105469 291.808594 C 580.105469 291.414062 579.910156 291.21875 579.515625 290.824219 Z M 465.261719 334.753906 Z M 579.121094 783.304688 Z M 675.253906 696.429688 Z M 675.253906 696.429688 " fill-opacity="1" fill-rule="nonzero"/><g clip-path="url(#21ea328929)"><path fill="#f2edf4" d="M 201.683594 306.78125 C 206.019531 306.78125 210.15625 305.203125 213.503906 301.855469 L 254.082031 261.472656 C 256.644531 258.910156 260.191406 257.335938 263.933594 257.335938 L 363.019531 257.335938 C 374.445312 257.335938 383.703125 248.078125 383.703125 236.652344 L 383.703125 33.355469 C 383.703125 21.929688 374.445312 12.671875 363.019531 12.671875 L 33.648438 12.671875 C 22.222656 12.671875 12.964844 21.929688 12.964844 33.355469 L 12.964844 236.847656 C 12.964844 248.273438 22.222656 257.53125 33.648438 257.53125 L 139.433594 257.53125 C 143.175781 257.53125 146.722656 258.910156 149.285156 261.667969 L 189.863281 302.050781 C 193.015625 305.203125 197.351562 306.78125 201.683594 306.78125 Z M 201.683594 306.78125 " fill-opacity="1" fill-rule="nonzero"/></g><path fill="#f2edf4" d="M 362.824219 14.050781 L 33.648438 14.050781 C 23.011719 14.050781 14.34375 22.71875 14.34375 33.355469 L 14.34375 236.847656 C 14.34375 247.484375 23.011719 256.152344 33.648438 256.152344 L 139.433594 256.152344 C 143.570312 256.152344 147.3125 257.730469 150.269531 260.683594 L 190.847656 301.066406 C 196.757812 306.976562 206.609375 306.976562 212.519531 301.066406 L 253.097656 260.683594 C 256.054688 257.730469 259.796875 256.152344 263.933594 256.152344 L 363.019531 256.152344 C 373.660156 256.152344 382.324219 247.484375 382.324219 236.847656 L 382.324219 33.355469 C 382.128906 22.71875 373.460938 14.050781 362.824219 14.050781 Z M 120.917969 197.253906 C 120.917969 206.707031 113.234375 214.195312 103.976562 214.195312 C 94.71875 214.195312 87.035156 206.511719 87.035156 197.253906 L 87.035156 194.691406 C 87.035156 192.917969 88.414062 191.539062 90.1875 191.539062 L 117.960938 191.539062 C 119.734375 191.539062 121.113281 192.917969 121.113281 194.691406 C 120.917969 194.691406 120.917969 197.253906 120.917969 197.253906 Z M 123.085938 166.523438 C 121.902344 166.914062 121.113281 168.097656 121.113281 169.476562 L 121.113281 176.765625 C 121.113281 178.539062 119.734375 179.917969 117.960938 179.917969 L 90.1875 179.917969 C 88.414062 179.917969 87.035156 178.539062 87.035156 176.765625 L 87.035156 169.476562 C 87.035156 168.097656 86.246094 166.914062 85.066406 166.523438 C 63.59375 158.839844 48.425781 138.351562 48.425781 114.320312 C 48.425781 84.769531 71.472656 60.539062 100.824219 58.765625 C 102.597656 58.570312 104.171875 60.144531 104.171875 61.917969 L 104.171875 111.167969 C 104.171875 112.941406 105.550781 114.320312 107.324219 114.320312 L 156.574219 114.320312 C 158.34375 114.320312 159.726562 115.894531 159.726562 117.667969 C 158.148438 140.125 143.375 159.035156 123.085938 166.523438 Z M 170.363281 102.300781 L 121.113281 102.300781 C 119.339844 102.300781 117.960938 100.921875 117.960938 99.148438 L 117.960938 49.902344 C 117.960938 48.128906 119.539062 46.75 121.3125 46.75 C 149.480469 48.328125 171.9375 70.785156 173.515625 98.953125 C 173.515625 100.921875 172.136719 102.300781 170.363281 102.300781 Z M 223.351562 200.011719 C 223.351562 205.722656 218.625 210.449219 212.914062 210.449219 C 207.199219 210.449219 202.472656 205.722656 202.472656 200.011719 L 202.472656 75.117188 C 202.472656 69.40625 207.199219 64.675781 212.914062 64.675781 C 218.625 64.675781 223.351562 69.40625 223.351562 75.117188 Z M 263.34375 200.011719 C 263.34375 205.722656 258.613281 210.449219 252.902344 210.449219 C 247.1875 210.449219 242.460938 205.722656 242.460938 200.011719 L 242.460938 123.773438 C 242.460938 118.0625 247.1875 113.332031 252.902344 113.332031 C 258.613281 113.332031 263.34375 118.0625 263.34375 123.773438 Z M 303.332031 200.011719 C 303.332031 205.722656 298.605469 210.449219 292.890625 210.449219 C 287.179688 210.449219 282.449219 205.722656 282.449219 200.011719 L 282.449219 142.882812 C 282.449219 137.167969 287.179688 132.441406 292.890625 132.441406 C 298.605469 132.441406 303.332031 137.167969 303.332031 142.882812 Z M 340.367188 200.011719 C 340.367188 205.722656 335.640625 210.449219 329.925781 210.449219 C 324.214844 210.449219 319.484375 205.722656 319.484375 200.011719 L 319.484375 161.398438 C 319.484375 155.6875 324.214844 150.960938 329.925781 150.960938 C 335.640625 150.960938 340.367188 155.6875 340.367188 161.398438 Z M 549.375 724.402344 L 579.910156 784.488281 L 397.886719 784.878906 L 419.753906 722.828125 Z M 550.558594 707.070312 L 550.164062 721.644531 Z M 464.273438 304.023438 C 458.757812 297.128906 457.972656 260.488281 460.925781 230.9375 L 461.320312 204.148438 C 461.320312 204.148438 461.515625 196.859375 461.515625 189.765625 C 461.515625 188.191406 466.441406 187.007812 468.019531 187.601562 C 473.730469 189.964844 486.730469 193.707031 499.734375 187.796875 C 511.945312 182.28125 527.507812 186.613281 533.8125 189.175781 C 535.585938 189.964844 536.570312 191.539062 536.375 193.507812 C 535.78125 199.8125 534.402344 218.527344 534.601562 220.890625 C 534.601562 220.890625 536.570312 228.769531 541.300781 234.679688 C 544.648438 223.453125 555.089844 216.753906 564.742188 219.316406 C 574.589844 222.074219 579.910156 233.5 576.757812 244.925781 C 574 254.773438 565.726562 261.273438 557.058594 261.078125 C 558.832031 265.609375 560.605469 269.546875 561.984375 271.320312 C 568.089844 279.59375 578.332031 276.640625 578.332031 276.640625 L 579.121094 291.808594 L 582.46875 318.402344 C 582.667969 320.570312 583.847656 322.539062 585.425781 323.917969 L 595.667969 332.585938 C 595.667969 332.585938 567.5 424.1875 567.5 424.1875 C 566.90625 429.898438 560.605469 431.082031 557.453125 426.355469 L 512.933594 355.632812 L 469.003906 419.460938 C 467.03125 422.613281 462.5 421.625 462.109375 417.882812 L 471.367188 363.316406 C 473.335938 351.101562 482.792969 308.75 482.792969 308.75 L 482.988281 308.75 C 476.488281 308.75 467.230469 307.765625 464.273438 304.023438 Z M 617.335938 674.566406 C 623.246094 652.109375 641.566406 572.128906 641.566406 572.128906 L 693.375 585.722656 L 710.710938 479.542969 L 676.433594 474.027344 L 673.085938 427.339844 L 490.867188 440.539062 L 498.15625 541.988281 C 494.21875 541.398438 491.066406 540.808594 490.277344 540.609375 C 488.503906 540.019531 486.535156 539.429688 484.566406 540.019531 C 480.820312 541.199219 480.230469 545.535156 480.230469 548.882812 C 480.230469 553.019531 481.214844 557.355469 483.1875 561.097656 C 483.578125 561.886719 486.929688 562.871094 487.324219 563.660156 C 487.914062 564.839844 487.71875 565.234375 487.324219 566.417969 C 486.730469 568.1875 486.335938 569.960938 486.140625 571.734375 C 485.550781 578.433594 491.460938 585.328125 495.992188 590.449219 C 492.246094 595.964844 497.566406 608.375 503.277344 615.269531 L 503.277344 615.859375 L 490.082031 697.417969 L 670.527344 726.769531 L 675.449219 696.628906 Z M 547.207031 477.964844 L 685.300781 500.421875 L 681.953125 521.5 L 543.859375 499.042969 Z M 308.257812 440.933594 L 311.605469 480.722656 C 311.605469 480.722656 206.214844 499.042969 206.410156 497.664062 L 207.988281 458.859375 C 207.988281 456.886719 209.5625 455.117188 211.335938 454.917969 L 224.339844 452.359375 C 223.746094 443.296875 222.761719 432.460938 222.171875 430.292969 C 221.1875 426.945312 217.050781 424.976562 214.292969 423.003906 C 200.894531 413.351562 186.910156 403.898438 173.90625 393.457031 C 173.316406 393.0625 161.105469 368.4375 158.148438 356.027344 C 156.964844 350.710938 155.390625 343.617188 161.105469 340.269531 C 163.269531 338.890625 165.4375 338.890625 167.40625 339.679688 C 167.011719 334.359375 168.984375 329.238281 175.484375 327.859375 C 182.378906 326.28125 187.699219 330.222656 191.835938 335.148438 C 193.804688 331.996094 197.742188 330.222656 201.882812 330.417969 C 208.972656 330.8125 214.683594 335.738281 218.429688 341.449219 C 222.960938 348.148438 225.71875 356.226562 228.671875 363.90625 C 230.050781 367.453125 238.128906 398.183594 238.128906 398.183594 C 238.128906 398.183594 238.324219 362.527344 237.734375 356.621094 C 236.550781 343.617188 253.886719 345.390625 255.855469 360.953125 C 256.25 364.300781 256.84375 367.847656 257.433594 371.195312 C 258.222656 376.710938 258.613281 383.804688 263.144531 387.941406 C 267.675781 392.078125 274.769531 391.878906 280.285156 394.046875 C 291.316406 398.183594 295.253906 397.988281 298.210938 408.820312 C 299.785156 414.535156 300.769531 426.15625 301.363281 437.386719 L 303.527344 436.992188 C 305.695312 436.597656 308.058594 438.371094 308.257812 440.933594 Z M 308.257812 440.933594 " fill-opacity="1" fill-rule="nonzero"/><path fill="#000000" d="M 601.578125 196.859375 C 594.488281 233.894531 578.136719 276.835938 578.136719 276.835938 C 578.136719 276.835938 567.894531 279.792969 561.785156 271.519531 C 560.40625 269.546875 558.632812 265.609375 556.859375 261.273438 C 565.332031 261.472656 573.800781 254.972656 576.558594 245.121094 C 579.710938 233.695312 574.394531 222.269531 564.542969 219.511719 C 554.890625 216.753906 544.449219 223.648438 541.101562 234.878906 C 536.375 229.164062 534.402344 221.089844 534.402344 221.089844 C 534.207031 218.726562 535.585938 200.011719 536.175781 193.707031 C 536.375 191.933594 535.390625 190.160156 533.617188 189.371094 C 527.117188 186.613281 511.75 182.28125 499.535156 187.992188 C 486.535156 193.902344 473.535156 190.160156 467.820312 187.796875 C 466.441406 187.207031 461.515625 188.386719 461.320312 189.964844 C 461.320312 197.054688 461.121094 204.34375 461.121094 204.34375 C 461.121094 204.34375 454.820312 200.207031 452.652344 191.144531 C 452.0625 188.78125 451.078125 180.707031 451.46875 176.960938 C 448.320312 166.128906 449.105469 154.109375 456 144.65625 C 459.351562 140.125 472.15625 132.441406 488.703125 133.820312 C 488.503906 131.0625 489.097656 128.503906 491.261719 125.941406 C 495.203125 121.214844 501.898438 120.226562 507.808594 120.425781 C 519.039062 120.820312 529.675781 126.335938 535.980469 135.59375 C 540.90625 135.789062 545.828125 135.988281 550.953125 136.382812 C 591.136719 139.730469 607.292969 166.523438 601.578125 196.859375 Z M 685.496094 500.421875 L 547.40625 477.964844 L 544.058594 499.042969 L 682.148438 521.5 Z M 117.960938 49.902344 L 117.960938 99.148438 C 117.960938 100.921875 119.339844 102.300781 121.113281 102.300781 L 170.363281 102.300781 C 172.136719 102.300781 173.515625 100.726562 173.515625 98.953125 C 171.9375 70.785156 149.480469 48.328125 121.3125 46.75 C 119.339844 46.75 117.960938 48.128906 117.960938 49.902344 Z M 263.34375 200.011719 L 263.34375 123.773438 C 263.34375 118.0625 258.613281 113.332031 252.902344 113.332031 C 247.1875 113.332031 242.460938 118.0625 242.460938 123.773438 L 242.460938 200.011719 C 242.460938 205.722656 247.1875 210.449219 252.902344 210.449219 C 258.613281 210.253906 263.34375 205.722656 263.34375 200.011719 Z M 340.367188 200.011719 L 340.367188 161.398438 C 340.367188 155.6875 335.640625 150.960938 329.925781 150.960938 C 324.214844 150.960938 319.484375 155.6875 319.484375 161.398438 L 319.484375 200.011719 C 319.484375 205.722656 324.214844 210.449219 329.925781 210.449219 C 335.835938 210.253906 340.367188 205.722656 340.367188 200.011719 Z M 340.367188 200.011719 " fill-opacity="1" fill-rule="nonzero"/><path fill="#8d57f6" d="M 550.558594 707.070312 L 550.164062 723.023438 L 418.769531 721.644531 C 418.769531 721.644531 425.074219 551.640625 430.785156 495.105469 C 436.105469 442.902344 465.652344 333.175781 465.652344 333.175781 C 471.167969 331.207031 475.503906 329.828125 477.867188 329.039062 C 475.109375 341.84375 471.957031 357.011719 470.972656 363.515625 L 461.714844 418.082031 C 462.109375 421.824219 466.640625 422.808594 468.609375 419.65625 L 506.628906 364.5 L 491.855469 385.972656 L 491.261719 413.550781 C 468.410156 491.164062 462.109375 670.230469 462.5 671.214844 L 483.578125 703.523438 C 484.367188 704.703125 486.140625 704.902344 486.929688 703.71875 L 491.65625 697.414062 Z M 528.886719 382.226562 L 533.023438 388.925781 Z M 517.070312 438.371094 L 570.847656 434.429688 L 595.273438 332.78125 C 595.273438 332.78125 567.105469 424.382812 567.105469 424.382812 C 566.515625 430.097656 560.210938 431.28125 557.058594 426.550781 L 533.222656 388.730469 L 518.25 416.109375 C 517.855469 420.246094 517.460938 428.128906 517.070312 438.371094 Z M 512.734375 356.421875 L 512.339844 355.832031 L 511.75 356.621094 C 512.144531 356.421875 512.539062 356.421875 512.734375 356.421875 Z M 223.351562 200.011719 L 223.351562 75.117188 C 223.351562 69.40625 218.625 64.675781 212.914062 64.675781 C 207.199219 64.675781 202.472656 69.40625 202.472656 75.117188 L 202.472656 200.011719 C 202.472656 205.722656 207.199219 210.449219 212.914062 210.449219 C 218.625 210.253906 223.351562 205.722656 223.351562 200.011719 Z M 303.332031 200.011719 L 303.332031 142.882812 C 303.332031 137.167969 298.605469 132.441406 292.890625 132.441406 C 287.179688 132.441406 282.449219 137.167969 282.449219 142.882812 L 282.449219 200.011719 C 282.449219 205.722656 287.179688 210.449219 292.890625 210.449219 C 298.605469 210.253906 303.332031 205.722656 303.332031 200.011719 Z M 303.332031 200.011719 " fill-opacity="1" fill-rule="nonzero"/><g clip-path="url(#33834b1ad7)"><path fill="#c96bdb" d="M 775.71875 582.765625 C 770.007812 560.898438 764.097656 541.199219 758.582031 522.09375 C 747.945312 485.648438 737.898438 451.371094 729.230469 407.441406 C 725.878906 391.289062 703.421875 373.757812 662.054688 355.832031 C 648.460938 349.921875 626.203125 341.058594 596.0625 331.796875 L 586.015625 323.128906 C 584.636719 321.949219 583.652344 320.175781 583.457031 318.402344 L 580.105469 291.808594 C 580.105469 291.21875 579.710938 290.824219 579.121094 290.625 C 578.53125 290.429688 578.136719 290.625 577.742188 291.21875 C 577.347656 291.808594 540.3125 341.84375 512.539062 337.117188 C 502.097656 335.34375 494.019531 325.691406 488.898438 308.554688 C 488.703125 307.960938 488.308594 307.566406 487.71875 307.566406 L 482.398438 307.566406 C 481.609375 307.566406 481.214844 307.960938 481.019531 308.554688 C 481.019531 308.75 479.050781 317.417969 476.882812 328.054688 C 460.136719 333.769531 373.460938 363.316406 364.003906 373.167969 C 359.671875 377.699219 345.09375 406.457031 327.363281 466.738281 L 312.589844 492.347656 L 311.800781 482.101562 C 310.816406 482.300781 310.03125 482.496094 309.242188 482.496094 C 250.539062 492.742188 225.125 496.679688 214.292969 498.058594 C 216.261719 515.789062 219.609375 548.882812 223.15625 600.890625 C 223.945312 614.089844 244.234375 633.394531 263.738281 645.410156 C 272.402344 650.730469 293.679688 662.746094 305.894531 657.625 C 325.984375 649.351562 377.402344 614.875 382.917969 599.90625 C 382.917969 599.707031 383.113281 599.707031 383.113281 599.511719 L 385.871094 627.089844 L 366.371094 794.335938 C 366.371094 794.730469 366.371094 795.125 366.761719 795.320312 C 366.960938 795.519531 367.355469 795.714844 367.75 795.714844 L 393.75 794.535156 C 394.34375 794.535156 394.738281 794.140625 394.933594 793.746094 L 397.691406 786.257812 L 580.695312 785.867188 L 585.425781 795.320312 C 585.621094 795.714844 586.015625 796.109375 586.605469 796.109375 L 687.074219 796.109375 C 687.46875 796.109375 687.859375 795.914062 688.058594 795.714844 C 688.253906 795.519531 688.453125 795.125 688.453125 794.730469 L 676.828125 698.203125 C 730.609375 712.386719 761.535156 711.796875 777.097656 696.234375 C 795.8125 677.519531 790.101562 637.332031 775.71875 582.765625 Z M 483.1875 310.324219 L 486.535156 310.324219 C 492.050781 327.859375 500.71875 337.90625 512.144531 339.679688 C 524.554688 341.84375 539.722656 334.554688 557.453125 318.007812 C 566.90625 309.144531 574.589844 299.6875 578.136719 295.355469 L 581.089844 318.601562 C 581.484375 321.160156 582.667969 323.328125 584.441406 324.902344 L 593.894531 333.175781 L 565.921875 423.992188 C 565.921875 423.992188 565.921875 424.1875 565.921875 424.1875 C 565.726562 426.15625 564.542969 427.535156 563.164062 427.929688 C 561.390625 428.324219 559.617188 427.535156 558.4375 425.761719 L 513.917969 355.042969 C 513.71875 354.648438 513.324219 354.453125 512.734375 354.453125 C 512.339844 354.453125 511.945312 354.648438 511.554688 355.042969 L 467.625 418.867188 C 466.835938 420.050781 465.652344 420.246094 464.867188 420.050781 C 463.878906 419.855469 463.289062 419.066406 463.09375 418.082031 L 472.351562 363.710938 C 473.925781 352.875 481.808594 317.023438 483.1875 310.324219 Z M 398.28125 783.699219 L 419.753906 723.023438 L 549.375 724.402344 L 579.121094 783.109375 Z M 693.179688 585.722656 L 641.371094 572.128906 C 641.371094 572.128906 623.246094 652.109375 617.140625 674.566406 L 675.058594 696.429688 C 675.449219 696.628906 676.042969 696.628906 676.4375 696.824219 L 675.648438 701.554688 L 675.058594 696.628906 L 670.132812 726.769531 L 550.359375 707.265625 L 549.964844 721.84375 L 418.769531 720.464844 C 418.964844 717.113281 419.164062 708.054688 419.753906 694.855469 C 419.753906 694.066406 419.753906 693.082031 419.953125 692.097656 C 422.117188 640.878906 426.648438 536.867188 430.785156 495.105469 C 435.710938 446.449219 461.714844 348.148438 465.261719 334.753906 C 469.003906 333.375 472.546875 332.191406 476.09375 331.011719 C 473.535156 343.222656 470.578125 357.210938 469.59375 363.316406 L 460.335938 417.882812 C 460.335938 418.082031 460.335938 418.082031 460.335938 418.277344 C 460.53125 420.640625 462.109375 422.414062 464.078125 422.808594 C 466.246094 423.398438 468.410156 422.414062 469.59375 420.445312 L 491.65625 388.53125 L 491.066406 413.550781 C 468.214844 491.164062 461.910156 670.230469 462.304688 671.214844 L 483.382812 703.523438 C 484.171875 704.703125 485.945312 704.902344 486.730469 703.71875 L 491.460938 697.414062 L 490.277344 697.21875 L 503.476562 615.664062 L 503.476562 615.074219 C 497.566406 608.179688 492.246094 595.964844 496.1875 590.253906 C 491.65625 585.328125 485.550781 578.433594 486.339844 571.539062 C 486.535156 569.566406 486.929688 567.992188 487.519531 566.21875 C 487.914062 564.839844 488.109375 564.644531 487.519531 563.460938 C 487.125 562.476562 483.972656 561.6875 483.382812 560.898438 C 481.414062 557.15625 480.429688 553.019531 480.429688 548.6875 C 480.429688 545.335938 481.019531 541.003906 484.761719 539.820312 C 486.730469 539.230469 488.703125 539.820312 490.476562 540.414062 C 491.261719 540.609375 494.414062 541.199219 498.355469 541.792969 L 491.066406 440.339844 L 517.660156 438.371094 C 518.054688 428.128906 518.449219 420.246094 518.644531 416.109375 L 532.828125 390.109375 L 556.269531 427.339844 C 557.847656 429.703125 560.210938 430.886719 562.378906 430.886719 C 562.96875 430.886719 563.363281 430.886719 563.953125 430.6875 C 566.515625 430.097656 568.285156 427.734375 568.679688 424.777344 L 590.742188 353.269531 L 571.242188 434.429688 L 673.285156 427.140625 L 676.632812 473.828125 L 710.910156 479.34375 Z M 120.917969 194.691406 L 120.917969 197.253906 C 120.917969 206.707031 113.234375 214.195312 103.976562 214.195312 C 94.71875 214.195312 87.035156 206.511719 87.035156 197.253906 L 87.035156 194.691406 C 87.035156 192.917969 88.414062 191.539062 90.1875 191.539062 L 117.960938 191.539062 C 119.539062 191.539062 120.917969 192.917969 120.917969 194.691406 Z M 159.527344 117.46875 C 158.148438 140.125 143.375 159.035156 123.085938 166.523438 C 121.902344 166.914062 121.113281 168.097656 121.113281 169.476562 L 121.113281 176.765625 C 121.113281 178.539062 119.734375 179.917969 117.960938 179.917969 L 90.1875 179.917969 C 88.414062 179.917969 87.035156 178.539062 87.035156 176.765625 L 87.035156 169.476562 C 87.035156 168.097656 86.246094 166.914062 85.066406 166.523438 C 63.59375 158.839844 48.425781 138.351562 48.425781 114.320312 C 48.425781 84.769531 71.472656 60.539062 100.824219 58.765625 C 102.597656 58.570312 104.171875 60.144531 104.171875 61.917969 L 104.171875 111.167969 C 104.171875 112.941406 105.550781 114.320312 107.324219 114.320312 L 156.574219 114.320312 C 158.148438 114.320312 159.726562 115.699219 159.527344 117.46875 Z M 159.527344 117.46875 " fill-opacity="1" fill-rule="nonzero"/></g><g clip-path="url(#88b5bbc217)"><path fill="#000000" d="M 383.507812 33.355469 C 383.507812 21.929688 374.25 12.671875 362.824219 12.671875 L 33.648438 12.671875 C 22.222656 12.671875 12.964844 21.929688 12.964844 33.355469 L 12.964844 236.847656 C 12.964844 248.273438 22.222656 257.53125 33.648438 257.53125 L 139.433594 257.53125 C 143.175781 257.53125 146.722656 258.910156 149.285156 261.667969 L 189.863281 302.050781 C 193.214844 305.203125 197.351562 306.976562 201.683594 306.976562 C 206.019531 306.976562 210.15625 305.402344 213.503906 302.050781 L 254.082031 261.667969 C 256.644531 259.109375 260.191406 257.53125 263.933594 257.53125 L 363.019531 257.53125 C 374.445312 257.53125 383.703125 248.273438 383.703125 236.847656 Z M 380.75 236.847656 C 380.75 246.699219 372.671875 254.773438 362.824219 254.773438 L 263.738281 254.773438 C 259.207031 254.773438 255.070312 256.546875 251.917969 259.699219 L 211.335938 300.082031 C 205.820312 305.402344 197.152344 305.402344 191.636719 300.082031 L 151.058594 259.699219 C 147.90625 256.546875 143.769531 254.773438 139.238281 254.773438 L 33.648438 254.773438 C 23.800781 254.773438 15.722656 246.699219 15.722656 236.847656 L 15.722656 33.355469 C 15.722656 23.503906 23.800781 15.429688 33.648438 15.429688 L 363.019531 15.429688 C 372.871094 15.429688 380.945312 23.503906 380.945312 33.355469 Z M 391.386719 417.488281 L 384.691406 594.585938 C 384.691406 595.375 384.097656 595.964844 383.3125 595.964844 C 382.523438 595.964844 381.933594 595.375 381.933594 594.585938 L 388.628906 417.488281 C 388.628906 416.703125 389.417969 416.109375 390.007812 416.109375 C 390.992188 416.109375 391.585938 416.703125 391.386719 417.488281 Z M 312.984375 480.527344 L 309.636719 440.734375 C 309.4375 439.160156 308.652344 437.582031 307.46875 436.597656 C 306.285156 435.613281 304.710938 435.21875 303.136719 435.613281 L 302.542969 435.808594 C 301.757812 424.976562 300.769531 413.945312 299.390625 408.429688 C 296.832031 398.382812 292.695312 396.804688 284.816406 394.046875 C 283.632812 393.652344 282.253906 393.0625 280.679688 392.667969 C 278.707031 391.882812 276.542969 391.488281 274.375 390.894531 C 270.632812 390.109375 266.691406 389.121094 263.933594 386.757812 C 260.386719 383.605469 259.601562 378.089844 259.007812 373.167969 C 258.8125 372.378906 258.8125 371.589844 258.613281 370.804688 C 258.417969 369.621094 258.222656 368.4375 258.023438 367.257812 C 257.628906 365.089844 257.234375 362.726562 257.039062 360.558594 C 255.855469 350.90625 248.960938 345.980469 243.25 346.574219 C 239.703125 346.964844 235.761719 349.722656 236.355469 356.621094 C 236.75 360.363281 236.75 376.515625 236.75 387.351562 C 234.1875 378.089844 230.839844 365.484375 230.050781 363.121094 L 229.066406 360.757812 C 226.503906 353.863281 223.746094 346.574219 219.609375 340.464844 C 216.851562 336.328125 210.941406 329.238281 201.882812 328.84375 C 197.941406 328.644531 194.199219 330.222656 191.835938 332.785156 C 186.710938 327.070312 181.195312 324.902344 175.285156 326.28125 C 169.574219 327.464844 166.421875 331.601562 166.027344 337.707031 C 164.058594 337.511719 162.285156 337.90625 160.511719 338.890625 C 153.816406 343.027344 155.785156 351.496094 156.964844 356.226562 C 159.921875 368.242188 172.136719 393.457031 173.316406 394.441406 C 182.773438 402.125 192.820312 409.214844 202.667969 416.109375 C 206.410156 418.671875 210.15625 421.234375 213.699219 423.992188 C 214.292969 424.382812 214.882812 424.777344 215.472656 425.171875 C 217.640625 426.550781 220.203125 428.324219 220.988281 430.492188 C 221.582031 432.265625 222.367188 441.324219 222.960938 450.980469 L 211.140625 453.144531 C 208.578125 453.539062 206.804688 455.902344 206.609375 458.464844 L 205.03125 497.273438 C 205.03125 497.664062 205.03125 498.257812 205.425781 498.453125 C 205.625 498.652344 205.820312 498.652344 206.804688 498.652344 C 210.941406 498.652344 228.671875 496.285156 311.800781 481.90625 C 312.589844 481.90625 313.183594 481.316406 312.984375 480.527344 Z M 217.050781 423.003906 C 216.457031 422.613281 215.867188 422.21875 215.277344 421.824219 C 211.535156 419.261719 207.988281 416.503906 204.246094 413.945312 C 194.59375 407.050781 184.546875 399.957031 175.089844 392.472656 C 173.710938 390.304688 162.484375 367.257812 159.527344 355.632812 C 158.148438 350.117188 157.164062 344.207031 161.695312 341.253906 C 163.074219 340.464844 164.648438 340.269531 166.027344 340.664062 C 167.800781 346.179688 178.4375 379.078125 185.726562 386.757812 C 185.925781 386.957031 186.320312 387.152344 186.710938 387.152344 C 187.105469 387.152344 187.5 386.957031 187.699219 386.757812 C 188.289062 386.167969 188.289062 385.378906 187.699219 384.789062 C 180.605469 377.304688 169.378906 342.042969 168.390625 339.285156 C 168.195312 335.34375 169.179688 330.417969 175.285156 329.039062 C 180.605469 327.859375 185.136719 330.023438 190.0625 335.738281 C 191.046875 339.285156 199.714844 370.410156 204.835938 379.078125 C 205.03125 379.46875 205.625 379.863281 206.019531 379.863281 C 206.214844 379.863281 206.410156 379.863281 206.609375 379.667969 C 207.199219 379.273438 207.59375 378.484375 207.199219 377.699219 C 202.472656 369.421875 194.199219 340.070312 192.820312 335.34375 C 194.59375 332.980469 197.941406 331.402344 201.289062 331.796875 C 208.972656 332.191406 214.292969 338.496094 216.851562 342.238281 C 220.792969 348.148438 223.351562 355.242188 225.914062 361.9375 L 226.898438 364.300781 C 228.277344 367.847656 236.15625 398.183594 236.355469 398.578125 C 236.550781 399.167969 237.144531 399.761719 237.929688 399.5625 C 238.71875 399.5625 239.113281 398.972656 239.113281 398.183594 C 239.113281 396.804688 239.308594 362.527344 238.71875 356.621094 C 238.324219 352.480469 240.097656 349.921875 243.25 349.527344 C 247.78125 349.132812 253.097656 353.46875 254.082031 361.148438 C 254.28125 363.515625 254.675781 365.679688 255.070312 368.042969 C 255.265625 369.226562 255.464844 370.410156 255.660156 371.394531 C 255.855469 372.179688 255.855469 372.96875 256.054688 373.757812 C 256.84375 379.078125 257.628906 385.183594 261.964844 388.925781 C 265.117188 391.878906 269.449219 392.867188 273.78125 393.652344 C 275.949219 394.046875 277.921875 394.636719 279.691406 395.230469 C 281.269531 395.820312 282.648438 396.214844 283.828125 396.804688 C 291.710938 399.5625 294.46875 400.546875 296.632812 409.214844 C 298.011719 414.535156 299 425.566406 299.785156 436.402344 L 225.71875 450.585938 C 225.125 441.71875 224.339844 431.871094 223.550781 429.898438 C 222.566406 426.75 219.609375 424.777344 217.050781 423.003906 Z M 207.789062 496.089844 L 209.367188 458.859375 C 209.367188 457.480469 210.351562 456.296875 211.535156 456.101562 L 303.527344 438.566406 C 304.316406 438.371094 304.90625 438.566406 305.5 438.960938 C 306.089844 439.355469 306.484375 440.144531 306.679688 441.128906 L 310.03125 479.542969 C 272.207031 486.042969 217.050781 495.300781 207.789062 496.089844 Z M 312.984375 496.484375 L 321.0625 558.535156 C 321.257812 559.324219 320.667969 559.914062 319.878906 560.113281 C 319.878906 560.113281 319.683594 560.113281 319.683594 560.113281 C 318.894531 560.113281 318.304688 559.519531 318.304688 558.929688 L 310.226562 496.878906 C 310.03125 496.089844 310.621094 495.5 311.410156 495.300781 C 312.195312 495.105469 312.984375 495.695312 312.984375 496.484375 Z M 496.1875 235.46875 C 492.839844 235.074219 493.035156 229.164062 495.203125 227 C 496.976562 225.226562 498.15625 226.210938 498.75 227.390625 C 499.339844 228.574219 499.535156 229.953125 499.339844 231.332031 C 499.140625 233.300781 498.355469 235.863281 496.1875 235.46875 Z M 492.640625 214.585938 C 491.855469 214.785156 491.066406 214.390625 490.867188 213.601562 C 490.671875 212.816406 491.066406 212.027344 491.855469 211.828125 C 505.050781 207.496094 512.933594 216.359375 513.128906 216.753906 C 513.71875 217.34375 513.523438 218.332031 512.933594 218.921875 C 512.734375 219.117188 512.339844 219.316406 511.945312 219.316406 C 511.554688 219.316406 511.160156 219.117188 510.765625 218.722656 C 510.566406 218.332031 504.066406 211.042969 492.640625 214.585938 Z M 470.382812 224.042969 C 470.972656 225.226562 471.167969 226.605469 470.972656 227.984375 C 470.777344 229.757812 469.789062 232.316406 467.820312 232.121094 C 464.472656 231.726562 464.667969 225.816406 466.835938 223.648438 C 468.609375 221.679688 469.59375 222.664062 470.382812 224.042969 Z M 483.578125 221.679688 C 477.078125 237.242188 471.957031 254.972656 474.914062 257.730469 C 479.640625 262.0625 487.914062 258.910156 487.914062 258.910156 C 488.703125 258.515625 489.488281 258.910156 489.882812 259.699219 C 490.277344 260.488281 489.882812 261.273438 489.097656 261.667969 C 488.898438 261.667969 485.550781 263.046875 481.609375 263.046875 C 478.65625 263.046875 475.503906 262.457031 472.941406 260.09375 C 467.03125 254.773438 478.457031 226.40625 480.820312 220.695312 C 481.214844 219.90625 482.003906 219.511719 482.792969 219.90625 C 483.578125 220.105469 483.972656 221.089844 483.578125 221.679688 Z M 481.019531 279.203125 C 481.019531 278.414062 481.808594 277.824219 482.59375 277.824219 C 496.1875 279.398438 504.265625 267.382812 504.265625 267.183594 C 504.660156 266.59375 505.644531 266.398438 506.234375 266.789062 C 506.824219 267.183594 507.023438 268.167969 506.628906 268.761719 C 506.234375 269.351562 498.550781 280.777344 484.960938 280.777344 C 483.972656 280.777344 483.1875 280.777344 482.199219 280.582031 C 481.414062 280.777344 480.820312 280.1875 481.019531 279.203125 Z M 736.914062 595.769531 L 694.757812 584.738281 L 711.894531 479.738281 C 712.089844 478.953125 711.5 478.359375 710.710938 478.164062 L 677.421875 472.84375 L 674.070312 427.140625 C 674.070312 426.75 673.875 426.355469 673.675781 426.15625 C 673.480469 425.960938 673.085938 425.761719 672.691406 425.761719 L 490.476562 438.960938 C 489.6875 438.960938 489.097656 439.75 489.097656 440.539062 L 496.382812 540.214844 C 493.429688 539.625 491.066406 539.230469 490.476562 539.035156 L 490.082031 538.835938 C 488.308594 538.246094 486.140625 537.65625 483.972656 538.441406 C 478.65625 540.019531 478.65625 546.324219 478.65625 548.6875 C 478.65625 553.21875 479.640625 557.550781 481.808594 561.492188 C 482.199219 562.277344 483.1875 562.871094 484.367188 563.460938 C 484.761719 563.65625 485.746094 564.050781 485.746094 564.050781 C 485.945312 564.644531 485.945312 564.644531 485.746094 565.429688 L 485.550781 565.824219 C 485.15625 567.597656 484.566406 569.371094 484.367188 571.539062 C 483.578125 578.628906 489.882812 585.917969 494.019531 590.449219 C 492.839844 592.8125 492.839844 595.964844 493.625 599.707031 C 494.808594 605.222656 498.15625 611.332031 501.703125 615.664062 L 488.503906 697.023438 C 488.503906 697.417969 488.503906 697.808594 488.703125 698.007812 C 488.898438 698.402344 489.292969 698.597656 489.6875 698.597656 L 670.132812 727.949219 C 670.132812 727.949219 670.328125 727.949219 670.328125 727.949219 C 670.527344 727.949219 670.917969 727.949219 671.117188 727.753906 C 671.511719 727.554688 671.707031 727.160156 671.707031 726.769531 L 676.632812 696.035156 L 675.253906 696.234375 L 673.875 695.644531 L 669.148438 724.796875 L 491.65625 696.234375 L 504.265625 618.226562 C 504.855469 618.816406 505.445312 619.210938 505.839844 619.605469 C 503.671875 622.953125 503.082031 625.90625 503.871094 628.863281 C 505.050781 632.800781 509.386719 636.152344 516.675781 638.710938 C 520.21875 639.894531 533.617188 641.273438 546.421875 642.652344 C 553.90625 643.441406 560.800781 644.226562 564.542969 644.820312 C 565.921875 645.015625 567.300781 645.605469 568.484375 646.199219 L 577.9375 652.304688 L 576.558594 659.199219 C 575.96875 661.761719 577.347656 664.320312 579.710938 665.503906 L 614.777344 681.65625 C 614.972656 681.855469 615.367188 681.855469 615.566406 681.855469 C 615.761719 681.855469 615.957031 681.855469 616.15625 681.65625 C 617.140625 681.261719 618.324219 680.671875 642.554688 573.703125 L 736.125 598.328125 C 736.320312 598.328125 736.320312 598.328125 736.519531 598.328125 C 737.109375 598.328125 737.699219 597.933594 737.898438 597.34375 C 738.09375 596.753906 737.699219 595.964844 736.914062 595.769531 Z M 492.050781 441.523438 L 671.511719 428.519531 L 674.664062 472.058594 L 530.464844 448.613281 C 530.070312 448.613281 529.675781 448.613281 529.480469 448.8125 C 529.085938 449.007812 528.886719 449.402344 528.886719 449.796875 L 513.71875 542.972656 C 509.582031 542.382812 503.871094 541.398438 499.339844 540.609375 Z M 570.058594 643.835938 C 568.484375 642.847656 566.90625 642.257812 565.136719 642.0625 C 561.390625 641.46875 554.300781 640.683594 546.816406 639.894531 C 535.191406 638.710938 520.8125 637.136719 517.660156 635.953125 C 511.355469 633.789062 507.613281 631.03125 506.628906 628.074219 C 506.039062 625.90625 506.628906 623.542969 508.402344 620.785156 C 512.539062 621.375 530.070312 624.136719 537.160156 625.121094 C 537.160156 625.121094 537.359375 625.121094 537.359375 625.121094 C 537.949219 625.121094 538.738281 624.527344 538.738281 623.9375 C 538.933594 623.148438 538.34375 622.558594 537.554688 622.363281 C 530.070312 621.378906 510.960938 618.226562 508.402344 617.832031 C 504.265625 615.269531 498.355469 606.800781 496.582031 598.917969 C 495.792969 595.769531 495.992188 593.402344 496.777344 591.632812 C 502.492188 592.222656 532.238281 594.980469 544.058594 595.769531 C 544.058594 595.769531 544.058594 595.769531 544.253906 595.769531 C 545.042969 595.769531 545.632812 595.175781 545.632812 594.390625 C 545.632812 593.601562 545.042969 593.011719 544.253906 592.8125 C 532.039062 591.828125 501.113281 589.070312 496.582031 588.675781 C 492.839844 584.34375 486.730469 577.644531 487.324219 571.539062 C 487.519531 569.765625 487.914062 567.992188 488.503906 566.417969 L 488.703125 566.023438 C 488.898438 565.628906 488.898438 565.234375 488.898438 564.839844 C 496.1875 565.824219 523.371094 569.175781 533.617188 571.339844 C 533.617188 571.339844 533.8125 571.339844 533.8125 571.339844 C 534.402344 571.339844 534.996094 570.945312 535.191406 570.160156 C 535.390625 569.371094 534.796875 568.582031 534.207031 568.582031 C 522.980469 566.21875 492.246094 562.277344 487.914062 561.886719 C 487.324219 561.492188 486.535156 561.097656 485.746094 560.703125 C 485.351562 560.507812 484.566406 560.113281 484.367188 560.113281 C 482.398438 556.566406 481.609375 552.625 481.609375 548.6875 C 481.609375 544.15625 482.59375 541.792969 484.960938 541.199219 C 485.351562 541.003906 485.746094 541.003906 486.140625 541.003906 C 487.125 541.003906 488.308594 541.398438 489.488281 541.59375 L 489.882812 541.792969 C 492.640625 542.578125 516.085938 546.125 517.070312 546.324219 C 517.464844 546.324219 518.054688 546.324219 518.25 545.929688 C 520.8125 543.171875 528.101562 535.882812 530.859375 534.304688 C 537.164062 530.761719 543.664062 532.730469 546.816406 536.078125 C 553.90625 543.171875 571.242188 559.128906 571.242188 559.324219 C 571.4375 559.519531 571.4375 559.519531 571.636719 559.519531 L 595.273438 569.566406 L 578.53125 649.351562 Z M 614.777344 678.503906 L 580.894531 662.941406 C 579.710938 662.351562 578.925781 660.972656 579.316406 659.789062 L 599.410156 564.050781 C 599.609375 563.265625 600.003906 562.476562 600.789062 562.082031 C 601.183594 561.886719 601.777344 561.6875 602.167969 561.6875 C 602.367188 561.6875 602.761719 561.6875 602.957031 561.886719 L 639.796875 573.113281 C 630.929688 612.316406 617.730469 669.640625 614.777344 678.503906 Z M 641.960938 570.75 L 603.941406 559.128906 C 602.367188 558.734375 600.789062 558.929688 599.410156 559.71875 C 598.03125 560.507812 597.046875 561.886719 596.652344 563.460938 L 595.867188 567.007812 L 573.015625 557.355469 C 571.242188 555.582031 555.285156 541.003906 548.785156 534.304688 C 544.84375 530.167969 536.964844 527.804688 529.480469 532.140625 C 526.128906 533.914062 518.84375 541.59375 516.675781 543.761719 C 516.675781 543.761719 516.476562 543.761719 516.476562 543.761719 L 531.449219 452.160156 L 709.136719 481.117188 L 692.390625 584.539062 Z M 480.625 310.324219 C 474.519531 309.933594 466.246094 308.75 463.09375 304.808594 C 457.378906 297.324219 456.394531 260.488281 459.351562 230.742188 L 459.742188 204.148438 C 459.742188 204.148438 459.941406 196.859375 459.941406 189.765625 C 459.941406 189.175781 460.136719 188.386719 461.320312 187.601562 C 462.894531 186.417969 466.640625 185.628906 468.214844 186.417969 C 473.140625 188.386719 486.140625 192.523438 498.945312 186.613281 C 513.71875 179.917969 532.039062 187.207031 534.207031 187.992188 C 536.570312 188.980469 537.753906 191.34375 537.554688 193.707031 C 536.964844 200.011719 535.585938 218.132812 535.78125 220.695312 C 535.980469 221.484375 537.554688 227 540.707031 231.726562 C 545.042969 221.484375 555.285156 215.375 564.9375 218.132812 C 570.058594 219.511719 574.195312 223.253906 576.757812 228.378906 C 579.121094 233.5 579.515625 239.605469 577.9375 245.320312 C 575.179688 254.773438 567.5 261.667969 559.027344 262.457031 C 561 267.382812 562.179688 269.546875 562.96875 270.535156 C 568.285156 277.824219 577.347656 275.457031 577.742188 275.457031 C 578.136719 275.261719 578.53125 275.457031 578.925781 275.65625 C 579.320312 275.851562 579.515625 276.246094 579.515625 276.640625 L 580.304688 292.597656 C 580.304688 292.203125 580.304688 291.808594 580.105469 291.808594 C 580.105469 291.613281 580.105469 291.019531 579.515625 290.824219 C 578.925781 290.625 578.726562 290.625 578.332031 290.625 C 577.9375 290.625 577.742188 291.019531 577.742188 291.019531 L 577.347656 291.414062 L 576.757812 278.214844 C 573.410156 278.609375 565.726562 278.808594 560.605469 271.914062 C 559.226562 270.140625 557.648438 266.59375 555.480469 261.273438 C 555.285156 260.882812 555.285156 260.289062 555.679688 259.894531 C 555.875 259.503906 556.269531 259.304688 556.859375 259.304688 C 564.9375 259.503906 572.621094 253.199219 575.179688 244.136719 C 576.558594 239.015625 576.363281 233.695312 574.195312 229.164062 C 572.03125 224.632812 568.484375 221.679688 564.148438 220.300781 C 555.285156 217.738281 545.4375 224.242188 542.480469 234.679688 C 542.285156 235.074219 541.890625 235.46875 541.496094 235.664062 C 540.90625 235.863281 540.511719 235.664062 540.117188 235.273438 C 535.191406 229.363281 533.222656 221.285156 533.023438 221.089844 C 533.023438 221.089844 533.023438 220.890625 533.023438 220.890625 C 532.828125 218.332031 534.207031 199.417969 534.796875 193.117188 C 534.996094 191.933594 534.207031 190.75 533.222656 190.359375 C 531.253906 189.570312 513.917969 182.675781 500.324219 188.980469 C 486.535156 195.28125 472.746094 190.949219 467.425781 188.78125 C 466.640625 188.386719 463.683594 189.175781 462.894531 189.765625 C 462.894531 196.859375 462.699219 203.949219 462.699219 203.949219 L 462.699219 204.933594 C 472.746094 203.949219 478.65625 210.648438 478.851562 210.84375 C 479.441406 211.4375 479.246094 212.421875 478.65625 213.011719 C 478.457031 213.207031 478.0625 213.40625 477.671875 213.40625 C 477.277344 213.40625 476.882812 213.207031 476.488281 212.816406 C 476.292969 212.617188 471.367188 207.101562 462.5 207.890625 L 462.109375 230.742188 C 458.957031 262.457031 460.53125 296.929688 465.257812 302.839844 C 467.820312 305.992188 476.488281 307.175781 482.59375 307.371094 C 482.398438 307.371094 482.199219 307.371094 482.199219 307.371094 C 481.019531 307.371094 480.820312 308.355469 480.820312 308.355469 Z M 480.625 310.324219 " fill-opacity="1" fill-rule="nonzero"/></g></svg>