<svg xmlns="http://www.w3.org/2000/svg" xmlns:xlink="http://www.w3.org/1999/xlink" width="1080" zoomAndPan="magnify" viewBox="0 0 810 809.999993" height="1080" preserveAspectRatio="xMidYMid meet" version="1.0"><defs><clipPath id="4675533522"><path d="M 0 40 L 799 40 L 799 778.769531 L 0 778.769531 Z M 0 40 " clip-rule="nonzero"/></clipPath><clipPath id="5a707eaf56"><path d="M 67 40 L 792 40 L 792 778.769531 L 67 778.769531 Z M 67 40 " clip-rule="nonzero"/></clipPath><clipPath id="88681adc80"><path d="M 58.296875 42 L 799 42 L 799 778.769531 L 58.296875 778.769531 Z M 58.296875 42 " clip-rule="nonzero"/></clipPath><clipPath id="3172085be8"><path d="M 150 229 L 809.984375 229 L 809.984375 756 L 150 756 Z M 150 229 " clip-rule="nonzero"/></clipPath></defs><g clip-path="url(#4675533522)"><path fill="#c96bdb" d="M 706.261719 617.625 L 676.535156 572.929688 L 665.0625 572.929688 C 653.429688 588.449219 641.152344 603.414062 628.34375 617.625 Z M 120.589844 114.867188 C 120.589844 115.550781 120.648438 116.226562 120.742188 116.882812 C 128.125 111.867188 135.773438 107.109375 143.648438 102.617188 C 141.285156 101.015625 138.4375 100.078125 135.371094 100.078125 C 127.21875 100.078125 120.589844 106.707031 120.589844 114.867188 Z M 798.671875 644.34375 L 764.203125 644.34375 L 779.808594 778.769531 L 754.773438 778.769531 L 739.160156 644.34375 L 650.890625 644.34375 L 635.285156 778.769531 L 610.242188 778.769531 L 625.851562 644.34375 L 602.746094 644.34375 C 535.980469 709.722656 457.832031 753.785156 381.226562 753.785156 C 346.988281 753.785156 313.070312 747.117188 280.398438 735.101562 L 285.476562 778.769531 L 260.433594 778.769531 L 254.089844 724.148438 C 218.773438 707.730469 185.308594 685.167969 154.949219 658.183594 L 140.941406 778.769531 L 115.90625 778.769531 L 131.511719 644.34375 L 98.941406 644.34375 L 98.941406 617.625 L 114.546875 617.625 C 45.21875 539.203125 0 437.300781 0 340.644531 C 0 250.503906 39.324219 180.671875 100.855469 131.542969 C 99.792969 129.347656 98.933594 127.0625 98.3125 124.699219 L 87.050781 122.21875 L 87.050781 107.511719 L 98.3125 105.035156 C 99.1875 101.726562 100.496094 98.5625 102.210938 95.609375 L 96 85.898438 L 106.410156 75.496094 L 116.121094 81.703125 C 119.074219 79.984375 122.230469 78.675781 125.539062 77.808594 L 128.015625 66.539062 L 142.730469 66.539062 L 145.203125 77.808594 C 148.511719 78.675781 151.671875 79.984375 154.625 81.703125 L 164.339844 75.496094 L 174.738281 85.898438 L 173.984375 87.082031 C 179.574219 84.523438 185.261719 82.078125 191.027344 79.75 L 191.027344 66.539062 L 228.609375 66.539062 C 258.859375 57.40625 290.773438 51.136719 323.492188 47.761719 C 323.460938 47.480469 323.40625 47.203125 323.40625 46.910156 C 323.40625 43.492188 326.191406 40.714844 329.609375 40.714844 C 332.929688 40.714844 335.621094 43.339844 335.777344 46.621094 C 350.8125 45.410156 365.984375 44.800781 381.226562 44.800781 C 577.007812 44.800781 782.925781 74.382812 782.925781 270.167969 C 782.925781 360.53125 739.054688 470.5 672.5625 562.738281 L 724.527344 562.738281 L 761.03125 617.625 L 798.671875 617.625 Z M 91.3125 53.113281 C 94.726562 53.113281 97.507812 50.332031 97.507812 46.910156 C 97.507812 43.492188 94.726562 40.714844 91.3125 40.714844 C 87.890625 40.714844 85.109375 43.492188 85.109375 46.910156 C 85.109375 50.332031 87.890625 53.113281 91.3125 53.113281 Z M 567.152344 46.910156 C 567.152344 43.492188 569.941406 40.714844 573.355469 40.714844 C 576.777344 40.714844 579.558594 43.492188 579.558594 46.910156 C 579.558594 50.332031 576.777344 53.113281 573.355469 53.113281 C 569.941406 53.113281 567.152344 50.332031 567.152344 46.910156 " fill-opacity="1" fill-rule="nonzero"/></g><g clip-path="url(#5a707eaf56)"><path fill="#777b85" d="M 556.371094 51.398438 C 558.847656 51.398438 560.859375 49.386719 560.859375 46.910156 C 560.859375 44.4375 558.847656 42.429688 556.371094 42.429688 C 553.890625 42.429688 551.882812 44.4375 551.882812 46.910156 C 551.882812 49.386719 553.890625 51.398438 556.371094 51.398438 Z M 657.847656 185.648438 L 678.734375 185.648438 L 678.734375 180.503906 L 657.847656 180.503906 Z M 649.746094 116.230469 L 621.285156 99.234375 L 621.285156 133.238281 Z M 720.855469 163.183594 L 550.175781 163.183594 L 550.175781 74.027344 L 720.855469 74.027344 Z M 687.820312 174.785156 L 673.28125 174.785156 L 673.28125 179.929688 L 687.820312 179.929688 Z M 657.847656 174.785156 L 657.847656 179.929688 L 672.390625 179.929688 L 672.390625 174.785156 Z M 687.820312 169.070312 L 657.847656 169.070312 L 657.847656 174.214844 L 687.820312 174.214844 Z M 207.875 185.9375 L 190.425781 185.9375 L 190.425781 187.652344 L 207.875 187.652344 Z M 216.964844 181.929688 L 216.964844 180.214844 L 205.859375 180.214844 L 205.859375 181.929688 Z M 201.53125 180.214844 L 190.425781 180.214844 L 190.425781 181.929688 L 201.53125 181.929688 Z M 216.964844 174.503906 L 190.425781 174.503906 L 190.425781 176.21875 L 216.964844 176.21875 Z M 98.398438 185.9375 L 80.949219 185.9375 L 80.949219 187.652344 L 98.398438 187.652344 Z M 107.488281 181.929688 L 107.488281 180.214844 L 96.382812 180.214844 L 96.382812 181.929688 Z M 92.054688 180.214844 L 80.949219 180.214844 L 80.949219 181.929688 L 92.054688 181.929688 Z M 107.488281 174.503906 L 80.949219 174.503906 L 80.949219 176.21875 L 107.488281 176.21875 Z M 223.265625 132.695312 L 192.742188 132.695312 L 192.742188 143.378906 L 223.265625 143.378906 Z M 223.265625 86.09375 L 192.742188 86.09375 L 192.742188 96.769531 L 223.265625 96.769531 Z M 74.324219 51.398438 C 76.796875 51.398438 78.808594 49.386719 78.808594 46.910156 C 78.808594 44.4375 76.796875 42.429688 74.324219 42.429688 C 71.847656 42.429688 69.839844 44.4375 69.839844 46.910156 C 69.839844 49.386719 71.847656 51.398438 74.324219 51.398438 Z M 109.839844 114.867188 C 109.839844 128.945312 121.292969 140.398438 135.371094 140.398438 C 149.457031 140.398438 160.910156 128.945312 160.910156 114.867188 C 160.910156 100.785156 149.457031 89.328125 135.371094 89.328125 C 121.292969 89.328125 109.839844 100.785156 109.839844 114.867188 Z M 108.125 114.867188 C 108.125 99.835938 120.347656 87.613281 135.371094 87.613281 C 150.398438 87.613281 162.625 99.835938 162.625 114.867188 C 162.625 129.890625 150.398438 142.113281 135.371094 142.113281 C 120.347656 142.113281 108.125 129.890625 108.125 114.867188 Z M 433.476562 268.695312 C 432.078125 268.695312 430.796875 269.832031 430.625 271.234375 C 430.445312 272.632812 431.441406 273.765625 432.839844 273.765625 C 434.242188 273.765625 435.519531 272.632812 435.695312 271.234375 C 435.867188 269.832031 434.878906 268.695312 433.476562 268.695312 Z M 506.261719 269.511719 L 480.730469 269.511719 C 479.785156 269.511719 479.015625 270.28125 479.015625 271.226562 C 479.015625 272.179688 479.785156 272.941406 480.730469 272.941406 L 506.261719 272.941406 C 507.207031 272.941406 507.976562 272.179688 507.976562 271.226562 C 507.976562 270.28125 507.207031 269.511719 506.261719 269.511719 Z M 312.621094 53.113281 C 316.039062 53.113281 318.824219 50.332031 318.824219 46.910156 C 318.824219 43.492188 316.039062 40.714844 312.621094 40.714844 C 309.207031 40.714844 306.425781 43.492188 306.425781 46.910156 C 306.425781 50.332031 309.207031 53.113281 312.621094 53.113281 Z M 358.863281 168.449219 C 358.863281 171.15625 361.066406 173.359375 363.773438 173.359375 L 400.90625 173.359375 C 403.613281 173.359375 405.816406 171.15625 405.816406 168.449219 C 405.816406 165.742188 403.613281 163.546875 400.90625 163.546875 L 363.773438 163.546875 C 361.066406 163.546875 358.863281 165.742188 358.863281 168.449219 Z M 324.90625 143.519531 L 362.046875 143.519531 C 364.75 143.519531 366.953125 141.324219 366.953125 138.609375 C 366.953125 135.902344 364.75 133.707031 362.046875 133.707031 L 324.90625 133.707031 C 322.199219 133.707031 319.996094 135.902344 319.996094 138.609375 C 319.996094 141.324219 322.199219 143.519531 324.90625 143.519531 Z M 324.90625 113.679688 L 389.253906 113.679688 C 391.957031 113.679688 394.15625 111.476562 394.15625 108.769531 C 394.15625 106.066406 391.957031 103.867188 389.253906 103.867188 L 324.90625 103.867188 C 322.199219 103.867188 319.996094 106.066406 319.996094 108.769531 C 319.996094 111.476562 322.199219 113.679688 324.90625 113.679688 Z M 401.65625 143.519531 L 414.789062 143.519531 C 417.496094 143.519531 419.695312 141.324219 419.695312 138.609375 C 419.695312 135.902344 417.496094 133.707031 414.789062 133.707031 L 401.65625 133.707031 C 398.949219 133.707031 396.746094 135.902344 396.746094 138.609375 C 396.746094 141.324219 398.949219 143.519531 401.65625 143.519531 Z M 388.265625 143.519531 C 390.972656 143.519531 393.175781 141.324219 393.175781 138.609375 C 393.175781 135.902344 390.972656 133.707031 388.265625 133.707031 L 375.140625 133.707031 C 372.433594 133.707031 370.230469 135.902344 370.230469 138.609375 C 370.230469 141.324219 372.433594 143.519531 375.140625 143.519531 Z M 324.90625 98.765625 L 338.039062 98.765625 C 340.746094 98.765625 342.949219 96.5625 342.949219 93.855469 C 342.949219 91.148438 340.746094 88.945312 338.039062 88.945312 L 324.90625 88.945312 C 322.199219 88.945312 319.996094 91.148438 319.996094 93.855469 C 319.996094 96.5625 322.199219 98.765625 324.90625 98.765625 Z M 324.90625 83.839844 L 369.132812 83.839844 C 371.835938 83.839844 374.042969 81.644531 374.042969 78.9375 C 374.042969 76.234375 371.835938 74.027344 369.132812 74.027344 L 324.90625 74.027344 C 322.199219 74.027344 319.996094 76.234375 319.996094 78.9375 C 319.996094 81.644531 322.199219 83.839844 324.90625 83.839844 Z M 420.417969 732.234375 L 108.332031 732.234375 C 95.476562 732.234375 85.054688 742.648438 85.054688 755.5 C 85.054688 768.355469 95.476562 778.769531 108.332031 778.769531 L 420.417969 778.769531 C 433.269531 778.769531 443.683594 768.355469 443.683594 755.5 C 443.683594 742.648438 433.269531 732.234375 420.417969 732.234375 Z M 780.472656 246.089844 C 780.472656 245.144531 779.703125 244.375 778.757812 244.375 L 694.453125 244.375 C 693.5 244.375 692.738281 245.144531 692.738281 246.089844 C 692.738281 247.042969 693.5 247.804688 694.453125 247.804688 L 778.757812 247.804688 C 779.703125 247.804688 780.472656 247.042969 780.472656 246.089844 Z M 740.863281 272.941406 L 755.316406 272.941406 C 756.261719 272.941406 757.03125 272.179688 757.03125 271.226562 C 757.03125 270.28125 756.261719 269.511719 755.316406 269.511719 L 740.863281 269.511719 C 739.917969 269.511719 739.148438 270.28125 739.148438 271.226562 C 739.148438 272.179688 739.917969 272.941406 740.863281 272.941406 Z M 774.855469 282.433594 C 774.855469 281.488281 774.082031 280.71875 773.140625 280.71875 L 739.457031 280.71875 C 738.511719 280.71875 737.742188 281.488281 737.742188 282.433594 C 737.742188 283.378906 738.511719 284.148438 739.457031 284.148438 L 773.140625 284.148438 C 774.082031 284.148438 774.855469 283.378906 774.855469 282.433594 Z M 738.050781 295.351562 L 755.34375 295.351562 C 756.292969 295.351562 757.058594 294.582031 757.058594 293.636719 C 757.058594 292.6875 756.292969 291.921875 755.34375 291.921875 L 738.050781 291.921875 C 737.105469 291.921875 736.335938 292.6875 736.335938 293.636719 C 736.335938 294.582031 737.105469 295.351562 738.050781 295.351562 Z M 727.914062 366.832031 C 726.964844 366.832031 726.199219 367.597656 726.199219 368.546875 C 726.199219 369.492188 726.964844 370.261719 727.914062 370.261719 L 742.363281 370.261719 C 743.308594 370.261719 744.078125 369.492188 744.078125 368.546875 C 744.078125 367.597656 743.308594 366.832031 742.363281 366.832031 Z M 761.898438 379.746094 C 761.898438 378.800781 761.128906 378.03125 760.183594 378.03125 L 726.5 378.03125 C 725.558594 378.03125 724.789062 378.800781 724.789062 379.746094 C 724.789062 380.695312 725.558594 381.460938 726.5 381.460938 L 760.183594 381.460938 C 761.128906 381.460938 761.898438 380.695312 761.898438 379.746094 Z M 744.105469 390.949219 C 744.105469 390 743.339844 389.238281 742.390625 389.238281 L 725.09375 389.238281 C 724.152344 389.238281 723.378906 390 723.378906 390.949219 C 723.378906 391.894531 724.152344 392.664062 725.09375 392.664062 L 742.390625 392.664062 C 743.339844 392.664062 744.105469 391.894531 744.105469 390.949219 Z M 707.199219 283.726562 C 707.199219 282.78125 706.433594 282.011719 705.484375 282.011719 L 676.597656 282.011719 C 675.644531 282.011719 674.882812 282.78125 674.882812 283.726562 C 674.882812 284.675781 675.644531 285.441406 676.597656 285.441406 L 705.484375 285.441406 C 706.433594 285.441406 707.199219 284.675781 707.199219 283.726562 Z M 692.730469 306.136719 C 692.730469 305.183594 691.96875 304.421875 691.015625 304.421875 L 665.773438 304.421875 C 664.828125 304.421875 664.058594 305.183594 664.058594 306.136719 C 664.058594 307.082031 664.828125 307.851562 665.773438 307.851562 L 691.015625 307.851562 C 691.96875 307.851562 692.730469 307.082031 692.730469 306.136719 Z M 686.695312 446.859375 C 686.695312 445.914062 685.933594 445.144531 684.980469 445.144531 L 639.53125 445.144531 C 638.585938 445.144531 637.816406 445.914062 637.816406 446.859375 C 637.816406 447.800781 638.585938 448.574219 639.53125 448.574219 L 684.980469 448.574219 C 685.933594 448.574219 686.695312 447.800781 686.695312 446.859375 Z M 557.75 258.734375 L 432.386719 258.734375 C 427.652344 258.734375 423.332031 262.574219 422.734375 267.308594 L 420.671875 283.726562 L 563.183594 283.726562 L 565.246094 267.308594 C 565.839844 262.574219 562.484375 258.734375 557.75 258.734375 Z M 543.382812 387.636719 C 543.382812 386.683594 542.613281 385.921875 541.667969 385.921875 L 526.371094 385.921875 C 525.425781 385.921875 524.65625 386.683594 524.65625 387.636719 C 524.65625 388.578125 525.425781 389.351562 526.371094 389.351562 L 541.667969 389.351562 C 542.613281 389.351562 543.382812 388.578125 543.382812 387.636719 Z M 506.484375 395.867188 C 506.484375 394.917969 505.714844 394.152344 504.769531 394.152344 L 490.441406 394.152344 C 489.5 394.152344 488.726562 394.917969 488.726562 395.867188 C 488.726562 396.8125 489.5 397.582031 490.441406 397.582031 L 504.769531 397.582031 C 505.714844 397.582031 506.484375 396.8125 506.484375 395.867188 Z M 476.832031 387.636719 C 476.832031 386.683594 476.0625 385.921875 475.117188 385.921875 L 459.820312 385.921875 C 458.871094 385.921875 458.105469 386.683594 458.105469 387.636719 C 458.105469 388.578125 458.871094 389.351562 459.820312 389.351562 L 475.117188 389.351562 C 476.0625 389.351562 476.832031 388.578125 476.832031 387.636719 Z M 435.171875 453.898438 L 422.113281 453.898438 C 420.308594 453.898438 418.667969 455.359375 418.441406 457.160156 C 418.21875 458.953125 419.492188 460.414062 421.292969 460.414062 L 434.355469 460.414062 C 436.148438 460.414062 437.796875 458.953125 438.027344 457.160156 C 438.246094 455.359375 436.972656 453.898438 435.171875 453.898438 Z M 421.761719 431.574219 C 423.164062 431.574219 424.4375 430.433594 424.617188 429.035156 C 424.789062 427.636719 423.800781 426.496094 422.398438 426.496094 C 421 426.496094 419.71875 427.636719 419.546875 429.035156 C 419.367188 430.433594 420.363281 431.574219 421.761719 431.574219 Z M 420.261719 395.867188 C 420.261719 396.8125 421.027344 397.582031 421.976562 397.582031 L 432.5 397.582031 C 433.445312 397.582031 434.214844 396.8125 434.214844 395.867188 C 434.214844 394.917969 433.445312 394.152344 432.5 394.152344 L 421.976562 394.152344 C 421.027344 394.152344 420.261719 394.917969 420.261719 395.867188 Z M 487.582031 306.136719 C 487.582031 305.183594 486.820312 304.421875 485.867188 304.421875 L 453.484375 304.421875 C 452.539062 304.421875 451.769531 305.183594 451.769531 306.136719 C 451.769531 307.082031 452.539062 307.851562 453.484375 307.851562 L 485.867188 307.851562 C 486.820312 307.851562 487.582031 307.082031 487.582031 306.136719 Z M 597.300781 491.667969 C 597.300781 492.617188 598.0625 493.382812 599.015625 493.382812 L 664.582031 493.382812 C 665.53125 493.382812 666.296875 492.617188 666.296875 491.667969 C 666.296875 490.722656 665.53125 489.953125 664.582031 489.953125 L 599.015625 489.953125 C 598.0625 489.953125 597.300781 490.722656 597.300781 491.667969 Z M 612.167969 373.347656 C 612.167969 374.292969 612.941406 375.0625 613.882812 375.0625 L 631.179688 375.0625 C 632.121094 375.0625 632.894531 374.292969 632.894531 373.347656 C 632.894531 372.398438 632.121094 371.632812 631.179688 371.632812 L 613.882812 371.632812 C 612.941406 371.632812 612.167969 372.398438 612.167969 373.347656 Z M 617.800781 328.539062 C 617.800781 329.484375 618.574219 330.253906 619.515625 330.253906 L 640.355469 330.253906 C 641.304688 330.253906 642.070312 329.484375 642.070312 328.539062 C 642.070312 327.589844 641.304688 326.824219 640.355469 326.824219 L 619.515625 326.824219 C 618.574219 326.824219 617.800781 327.589844 617.800781 328.539062 Z M 622.023438 294.929688 C 622.023438 295.875 622.792969 296.644531 623.738281 296.644531 L 638.183594 296.644531 C 639.136719 296.644531 639.898438 295.875 639.898438 294.929688 C 639.898438 293.988281 639.136719 293.214844 638.183594 293.214844 L 623.738281 293.214844 C 622.792969 293.214844 622.023438 293.988281 622.023438 294.929688 Z M 679.4375 328.539062 C 679.4375 327.589844 678.664062 326.824219 677.722656 326.824219 L 647.847656 326.824219 C 646.90625 326.824219 646.132812 327.589844 646.132812 328.539062 C 646.132812 329.484375 646.90625 330.253906 647.847656 330.253906 L 677.722656 330.253906 C 678.664062 330.253906 679.4375 329.484375 679.4375 328.539062 Z M 683.976562 363.859375 C 684.929688 363.859375 685.691406 363.09375 685.691406 362.144531 C 685.691406 361.199219 684.929688 360.429688 683.976562 360.429688 L 658.734375 360.429688 C 657.789062 360.429688 657.019531 361.199219 657.019531 362.144531 C 657.019531 363.09375 657.789062 363.859375 658.734375 363.859375 Z M 791.410156 251.808594 L 764.855469 491.359375 C 764.070312 498.429688 758.101562 503.769531 750.984375 503.769531 L 379.085938 503.769531 C 375.058594 503.769531 371.367188 502.121094 368.691406 499.128906 C 368.152344 498.53125 367.699219 497.894531 367.28125 497.238281 C 363.417969 524.679688 344.914062 555.644531 344.914062 579.789062 C 344.914062 606.308594 365.125 644.34375 365.125 644.34375 C 365.125 644.34375 357.953125 703.71875 285.132812 703.71875 C 258.8125 703.71875 240.230469 699.105469 230.671875 695.984375 C 225.710938 694.363281 222.054688 690.191406 220.933594 685.09375 C 212.46875 646.667969 218.210938 592.113281 224.175781 572.929688 C 228.214844 559.964844 223.46875 493.546875 207.894531 446.203125 C 199.945312 422.050781 217.933594 397.195312 243.359375 397.195312 L 249.382812 378.03125 C 249.382812 378.03125 268.53125 368.773438 288.765625 372.886719 C 309 377.007812 318.664062 382.566406 326.207031 383.625 L 321.316406 397.300781 C 329.660156 398.03125 337.121094 403 340.941406 410.574219 C 349.171875 426.933594 362.265625 455.03125 366.558594 476.140625 L 391.769531 248.734375 C 392.554688 241.65625 398.515625 236.316406 405.640625 236.316406 L 777.539062 236.316406 C 781.558594 236.316406 785.253906 237.972656 787.933594 240.964844 C 790.621094 243.960938 791.851562 247.8125 791.410156 251.808594 Z M 443.074219 268.695312 C 441.683594 268.695312 440.402344 269.832031 440.222656 271.234375 C 440.046875 272.632812 441.039062 273.765625 442.441406 273.765625 C 443.839844 273.765625 445.117188 272.632812 445.292969 271.234375 C 445.472656 269.832031 444.484375 268.695312 443.074219 268.695312 Z M 452.679688 268.695312 C 451.28125 268.695312 450 269.832031 449.828125 271.234375 C 449.652344 272.632812 450.644531 273.765625 452.042969 273.765625 C 453.445312 273.765625 454.722656 272.632812 454.898438 271.234375 C 455.070312 269.832031 454.082031 268.695312 452.679688 268.695312 Z M 189.882812 260.867188 L 169.46875 260.867188 L 169.46875 305.386719 L 189.882812 305.386719 Z M 118.257812 305.386719 L 138.671875 305.386719 L 138.671875 267.035156 L 118.257812 267.035156 Z M 87.460938 305.386719 L 67.046875 305.386719 L 67.046875 280.410156 L 87.460938 280.410156 L 87.460938 305.386719 " fill-opacity="1" fill-rule="nonzero"/></g><path fill="#f3d0d2" d="M 135.371094 131.371094 C 144.484375 131.371094 151.875 123.980469 151.875 114.867188 C 151.875 105.75 144.484375 98.363281 135.371094 98.363281 C 126.261719 98.363281 118.875 105.75 118.875 114.867188 C 118.875 123.980469 126.261719 131.371094 135.371094 131.371094 Z M 86.824219 46.910156 C 86.824219 49.386719 88.832031 51.398438 91.3125 51.398438 C 93.789062 51.398438 95.792969 49.386719 95.792969 46.910156 C 95.792969 44.4375 93.789062 42.429688 91.3125 42.429688 C 88.832031 42.429688 86.824219 44.4375 86.824219 46.910156 Z M 98.191406 86.140625 L 104.230469 95.582031 C 102.167969 98.898438 100.636719 102.570312 99.71875 106.480469 L 88.765625 108.882812 L 88.765625 120.839844 L 99.71875 123.25 C 100.636719 127.164062 102.167969 130.832031 104.230469 134.148438 L 98.191406 143.59375 L 106.644531 152.046875 L 116.09375 146.011719 C 119.410156 148.066406 123.074219 149.601562 126.984375 150.519531 L 129.394531 161.46875 L 141.351562 161.46875 L 143.761719 150.519531 C 147.667969 149.601562 151.335938 148.066406 154.652344 146.011719 L 164.105469 152.046875 L 172.554688 143.59375 L 166.515625 134.148438 C 168.570312 130.832031 170.113281 127.164062 171.03125 123.25 L 181.980469 120.839844 L 181.980469 108.882812 L 171.03125 106.480469 C 170.113281 102.570312 168.570312 98.898438 166.515625 95.582031 L 172.554688 86.140625 L 164.105469 77.679688 L 154.652344 83.722656 C 151.335938 81.664062 147.667969 80.125 143.761719 79.214844 L 141.351562 68.253906 L 129.394531 68.253906 L 126.984375 79.214844 C 123.074219 80.125 119.410156 81.664062 116.09375 83.722656 L 106.644531 77.679688 Z M 192.742188 125.542969 L 239.382812 125.542969 L 239.382812 114.867188 L 192.742188 114.867188 Z M 192.742188 78.9375 L 239.382812 78.9375 L 239.382812 68.253906 L 192.742188 68.253906 Z M 143.976562 174.503906 L 117.441406 174.503906 L 117.441406 176.21875 L 143.976562 176.21875 Z M 143.976562 180.214844 L 132.871094 180.214844 L 132.871094 181.929688 L 143.976562 181.929688 Z M 128.546875 181.929688 L 128.546875 180.214844 L 117.441406 180.214844 L 117.441406 181.929688 Z M 134.894531 185.9375 L 117.441406 185.9375 L 117.441406 187.652344 L 134.894531 187.652344 Z M 259.917969 164.402344 L 290.933594 164.402344 L 290.933594 117.089844 L 259.917969 117.089844 Z M 259.917969 115.375 L 290.933594 115.375 L 290.933594 68.066406 L 259.917969 68.066406 Z M 308.140625 168.449219 C 308.140625 170.21875 309.566406 171.644531 311.328125 171.644531 L 311.628906 171.644531 C 313.398438 171.644531 314.824219 170.21875 314.824219 168.449219 C 314.824219 166.6875 313.398438 165.261719 311.628906 165.261719 L 311.328125 165.261719 C 309.566406 165.261719 308.140625 166.6875 308.140625 168.449219 Z M 308.140625 153.53125 C 308.140625 155.292969 309.566406 156.726562 311.328125 156.726562 L 311.628906 156.726562 C 313.398438 156.726562 314.824219 155.292969 314.824219 153.53125 C 314.824219 151.769531 313.398438 150.335938 311.628906 150.335938 L 311.328125 150.335938 C 309.566406 150.335938 308.140625 151.769531 308.140625 153.53125 Z M 308.140625 138.617188 C 308.140625 140.378906 309.566406 141.804688 311.328125 141.804688 L 311.628906 141.804688 C 313.398438 141.804688 314.824219 140.378906 314.824219 138.617188 C 314.824219 136.847656 313.398438 135.421875 311.628906 135.421875 L 311.328125 135.421875 C 309.566406 135.421875 308.140625 136.847656 308.140625 138.617188 Z M 308.140625 123.695312 C 308.140625 125.457031 309.566406 126.886719 311.328125 126.886719 L 311.628906 126.886719 C 313.398438 126.886719 314.824219 125.457031 314.824219 123.695312 C 314.824219 121.933594 313.398438 120.5 311.628906 120.5 L 311.328125 120.5 C 309.566406 120.5 308.140625 121.933594 308.140625 123.695312 Z M 308.140625 108.769531 C 308.140625 110.539062 309.566406 111.964844 311.328125 111.964844 L 311.628906 111.964844 C 313.398438 111.964844 314.824219 110.539062 314.824219 108.769531 C 314.824219 107.007812 313.398438 105.582031 311.628906 105.582031 L 311.328125 105.582031 C 309.566406 105.582031 308.140625 107.007812 308.140625 108.769531 Z M 308.140625 93.855469 C 308.140625 95.617188 309.566406 97.050781 311.328125 97.050781 L 311.628906 97.050781 C 313.398438 97.050781 314.824219 95.617188 314.824219 93.855469 C 314.824219 92.09375 313.398438 90.660156 311.628906 90.660156 L 311.328125 90.660156 C 309.566406 90.660156 308.140625 92.09375 308.140625 93.855469 Z M 308.140625 78.9375 C 308.140625 80.699219 309.566406 82.125 311.328125 82.125 L 311.628906 82.125 C 313.398438 82.125 314.824219 80.699219 314.824219 78.9375 C 314.824219 77.171875 313.398438 75.742188 311.628906 75.742188 L 311.328125 75.742188 C 309.566406 75.742188 308.140625 77.171875 308.140625 78.9375 Z M 308.140625 64.015625 C 308.140625 65.777344 309.566406 67.210938 311.328125 67.210938 L 311.628906 67.210938 C 313.398438 67.210938 314.824219 65.777344 314.824219 64.015625 C 314.824219 62.253906 313.398438 60.820312 311.628906 60.820312 L 311.328125 60.820312 C 309.566406 60.820312 308.140625 62.253906 308.140625 64.015625 Z M 308.140625 46.910156 C 308.140625 49.386719 310.144531 51.398438 312.621094 51.398438 C 315.101562 51.398438 317.109375 49.386719 317.109375 46.910156 C 317.109375 44.4375 315.101562 42.429688 312.621094 42.429688 C 310.144531 42.429688 308.140625 44.4375 308.140625 46.910156 Z M 321.710938 168.449219 C 321.710938 170.21875 323.144531 171.644531 324.90625 171.644531 L 351.984375 171.644531 C 353.746094 171.644531 355.179688 170.21875 355.179688 168.449219 C 355.179688 166.6875 353.746094 165.261719 351.984375 165.261719 L 324.90625 165.261719 C 323.144531 165.261719 321.710938 166.6875 321.710938 168.449219 Z M 321.710938 153.53125 C 321.710938 155.292969 323.144531 156.726562 324.90625 156.726562 L 382.847656 156.726562 C 384.609375 156.726562 386.042969 155.292969 386.042969 153.53125 C 386.042969 151.769531 384.609375 150.335938 382.847656 150.335938 L 324.90625 150.335938 C 323.144531 150.335938 321.710938 151.769531 321.710938 153.53125 Z M 321.710938 138.617188 C 321.710938 140.378906 323.144531 141.804688 324.90625 141.804688 L 362.046875 141.804688 C 363.808594 141.804688 365.238281 140.378906 365.238281 138.617188 C 365.238281 136.847656 363.808594 135.421875 362.046875 135.421875 L 324.90625 135.421875 C 323.144531 135.421875 321.710938 136.847656 321.710938 138.617188 Z M 321.710938 123.695312 C 321.710938 125.457031 323.144531 126.886719 324.90625 126.886719 L 373.933594 126.886719 C 375.695312 126.886719 377.121094 125.457031 377.121094 123.695312 C 377.121094 121.933594 375.695312 120.5 373.933594 120.5 L 324.90625 120.5 C 323.144531 120.5 321.710938 121.933594 321.710938 123.695312 Z M 321.710938 108.769531 C 321.710938 110.539062 323.144531 111.964844 324.90625 111.964844 L 389.253906 111.964844 C 391.011719 111.964844 392.441406 110.539062 392.441406 108.769531 C 392.441406 107.007812 391.011719 105.582031 389.253906 105.582031 L 324.90625 105.582031 C 323.144531 105.582031 321.710938 107.007812 321.710938 108.769531 Z M 321.710938 93.855469 C 321.710938 95.617188 323.144531 97.050781 324.90625 97.050781 L 338.039062 97.050781 C 339.800781 97.050781 341.234375 95.617188 341.234375 93.855469 C 341.234375 92.09375 339.800781 90.660156 338.039062 90.660156 L 324.90625 90.660156 C 323.144531 90.660156 321.710938 92.09375 321.710938 93.855469 Z M 321.710938 78.9375 C 321.710938 80.699219 323.144531 82.125 324.90625 82.125 L 369.132812 82.125 C 370.894531 82.125 372.328125 80.699219 372.328125 78.9375 C 372.328125 77.171875 370.894531 75.742188 369.132812 75.742188 L 324.90625 75.742188 C 323.144531 75.742188 321.710938 77.171875 321.710938 78.9375 Z M 321.710938 64.015625 C 321.710938 65.777344 323.144531 67.210938 324.90625 67.210938 L 345.214844 67.210938 C 346.976562 67.210938 348.402344 65.777344 348.402344 64.015625 C 348.402344 62.253906 346.976562 60.820312 345.214844 60.820312 L 324.90625 60.820312 C 323.144531 60.820312 321.710938 62.253906 321.710938 64.015625 Z M 325.121094 46.910156 C 325.121094 49.386719 327.128906 51.398438 329.609375 51.398438 C 332.085938 51.398438 334.09375 49.386719 334.09375 46.910156 C 334.09375 44.4375 332.085938 42.429688 329.609375 42.429688 C 327.128906 42.429688 325.121094 44.4375 325.121094 46.910156 Z M 418.214844 90.660156 L 353.867188 90.660156 C 352.105469 90.660156 350.679688 92.09375 350.679688 93.855469 C 350.679688 95.617188 352.105469 97.050781 353.867188 97.050781 L 418.214844 97.050781 C 419.976562 97.050781 421.410156 95.617188 421.410156 93.855469 C 421.410156 92.09375 419.976562 90.660156 418.214844 90.660156 Z M 419.578125 108.769531 C 419.578125 107.007812 418.152344 105.582031 416.390625 105.582031 L 403.257812 105.582031 C 401.496094 105.582031 400.0625 107.007812 400.0625 108.769531 C 400.0625 110.539062 401.496094 111.964844 403.257812 111.964844 L 416.390625 111.964844 C 418.152344 111.964844 419.578125 110.539062 419.578125 108.769531 Z M 417.980469 138.617188 C 417.980469 136.847656 416.550781 135.421875 414.789062 135.421875 L 401.65625 135.421875 C 399.894531 135.421875 398.460938 136.847656 398.460938 138.617188 C 398.460938 140.378906 399.894531 141.804688 401.65625 141.804688 L 414.789062 141.804688 C 416.550781 141.804688 417.980469 140.378906 417.980469 138.617188 Z M 391.460938 138.617188 C 391.460938 136.847656 390.035156 135.421875 388.265625 135.421875 L 375.132812 135.421875 C 373.371094 135.421875 371.945312 136.847656 371.945312 138.617188 C 371.945312 140.378906 373.371094 141.804688 375.132812 141.804688 L 388.265625 141.804688 C 390.035156 141.804688 391.460938 140.378906 391.460938 138.617188 Z M 404.101562 168.449219 C 404.101562 166.6875 402.675781 165.261719 400.90625 165.261719 L 363.773438 165.261719 C 362.003906 165.261719 360.578125 166.6875 360.578125 168.449219 C 360.578125 170.21875 362.003906 171.644531 363.773438 171.644531 L 400.90625 171.644531 C 402.675781 171.644531 404.101562 170.21875 404.101562 168.449219 Z M 491.992188 164.402344 L 532.585938 164.402344 L 532.585938 117.089844 L 491.992188 117.089844 Z M 491.992188 115.375 L 532.585938 115.375 L 532.585938 68.066406 L 491.992188 68.066406 Z M 551.882812 161.46875 L 719.140625 161.46875 L 719.140625 75.742188 L 551.882812 75.742188 Z M 568.867188 46.910156 C 568.867188 49.386719 570.878906 51.398438 573.355469 51.398438 C 575.832031 51.398438 577.84375 49.386719 577.84375 46.910156 C 577.84375 44.4375 575.832031 42.429688 573.355469 42.429688 C 570.878906 42.429688 568.867188 44.4375 568.867188 46.910156 Z M 686.105469 170.785156 L 659.5625 170.785156 L 659.5625 172.5 L 686.105469 172.5 Z M 686.105469 176.5 L 674.996094 176.5 L 674.996094 178.214844 L 686.105469 178.214844 Z M 670.675781 178.214844 L 670.675781 176.5 L 659.5625 176.5 L 659.5625 178.214844 Z M 677.019531 182.21875 L 659.5625 182.21875 L 659.5625 183.933594 L 677.019531 183.933594 Z M 631.238281 170.785156 L 604.695312 170.785156 L 604.695312 172.5 L 631.238281 172.5 Z M 631.238281 176.5 L 620.125 176.5 L 620.125 178.214844 L 631.238281 178.214844 Z M 615.804688 178.214844 L 615.804688 176.5 L 604.695312 176.5 L 604.695312 178.214844 Z M 622.148438 182.21875 L 604.695312 182.21875 L 604.695312 183.933594 L 622.148438 183.933594 Z M 58.859375 199.023438 L 58.859375 39.777344 C 58.859375 35.039062 62.699219 31.203125 67.433594 31.203125 L 251.34375 31.203125 C 256.078125 31.203125 259.917969 35.039062 259.917969 39.777344 L 259.917969 66.351562 L 290.933594 66.351562 L 290.933594 39.777344 C 290.933594 35.039062 294.773438 31.203125 299.507812 31.203125 L 483.417969 31.203125 C 488.152344 31.203125 491.992188 35.039062 491.992188 39.777344 L 491.992188 66.351562 L 532.585938 66.351562 L 532.585938 39.777344 C 532.585938 35.039062 536.421875 31.203125 541.160156 31.203125 L 725.0625 31.203125 C 729.804688 31.203125 733.636719 35.039062 733.636719 39.777344 L 733.636719 164.402344 L 755.792969 164.402344 C 756.140625 164.964844 756.460938 165.546875 756.796875 166.117188 L 733.636719 166.117188 L 733.636719 199.023438 C 733.636719 203.757812 729.804688 207.597656 725.0625 207.597656 L 541.160156 207.597656 C 536.421875 207.597656 532.585938 203.757812 532.585938 199.023438 L 532.585938 166.117188 L 491.992188 166.117188 L 491.992188 181.1875 C 491.992188 185.921875 488.152344 189.761719 483.417969 189.761719 L 299.507812 189.761719 C 294.773438 189.761719 290.933594 185.921875 290.933594 181.1875 L 290.933594 166.117188 L 259.917969 166.117188 L 259.917969 199.023438 C 259.917969 203.757812 256.078125 207.597656 251.34375 207.597656 L 67.433594 207.597656 C 62.699219 207.597656 58.859375 203.757812 58.859375 199.023438 Z M 649.183594 244.375 C 648.238281 244.375 647.46875 245.144531 647.46875 246.089844 C 647.46875 247.042969 648.238281 247.804688 649.183594 247.804688 L 683.816406 247.804688 C 684.769531 247.804688 685.53125 247.042969 685.53125 246.089844 C 685.53125 245.144531 684.769531 244.375 683.816406 244.375 Z M 686.695312 446.859375 C 686.695312 445.914062 685.933594 445.144531 684.980469 445.144531 L 639.53125 445.144531 C 638.585938 445.144531 637.816406 445.914062 637.816406 446.859375 C 637.816406 447.800781 638.585938 448.574219 639.53125 448.574219 L 684.980469 448.574219 C 685.933594 448.574219 686.695312 447.800781 686.695312 446.859375 Z M 667.703125 480.46875 C 667.703125 479.515625 666.9375 478.753906 665.988281 478.753906 L 600.421875 478.753906 C 599.476562 478.753906 598.707031 479.515625 598.707031 480.46875 C 598.707031 481.414062 599.476562 482.183594 600.421875 482.183594 L 665.988281 482.183594 C 666.9375 482.183594 667.703125 481.414062 667.703125 480.46875 Z M 666.296875 491.667969 C 666.296875 490.722656 665.53125 489.953125 664.582031 489.953125 L 599.015625 489.953125 C 598.0625 489.953125 597.300781 490.722656 597.300781 491.667969 C 597.300781 492.617188 598.0625 493.382812 599.015625 493.382812 L 664.582031 493.382812 C 665.53125 493.382812 666.296875 492.617188 666.296875 491.667969 Z M 601.519531 458.058594 C 601.519531 459.007812 602.289062 459.769531 603.234375 459.769531 L 656.222656 459.769531 C 657.164062 459.769531 657.9375 459.007812 657.9375 458.058594 C 657.9375 457.113281 657.164062 456.34375 656.222656 456.34375 L 603.234375 456.34375 C 602.289062 456.34375 601.519531 457.113281 601.519531 458.058594 Z M 602.933594 446.859375 C 602.933594 447.800781 603.695312 448.574219 604.648438 448.574219 L 627.375 448.574219 C 628.316406 448.574219 629.089844 447.800781 629.089844 446.859375 C 629.089844 445.914062 628.316406 445.144531 627.375 445.144531 L 604.648438 445.144531 C 603.695312 445.144531 602.933594 445.914062 602.933594 446.859375 Z M 604.339844 435.660156 C 604.339844 436.605469 605.101562 437.375 606.054688 437.375 L 671.621094 437.375 C 672.570312 437.375 673.335938 436.605469 673.335938 435.660156 C 673.335938 434.707031 672.570312 433.945312 671.621094 433.945312 L 606.054688 433.945312 C 605.101562 433.945312 604.339844 434.707031 604.339844 435.660156 Z M 591.722656 435.660156 C 591.722656 434.707031 590.949219 433.945312 590.007812 433.945312 L 578.574219 433.945312 C 577.628906 433.945312 576.859375 434.707031 576.859375 435.660156 C 576.859375 436.605469 577.628906 437.375 578.574219 437.375 L 590.007812 437.375 C 590.949219 437.375 591.722656 436.605469 591.722656 435.660156 Z M 590.308594 446.859375 C 590.308594 445.914062 589.542969 445.144531 588.59375 445.144531 L 577.167969 445.144531 C 576.214844 445.144531 575.453125 445.914062 575.453125 446.859375 C 575.453125 447.800781 576.214844 448.574219 577.167969 448.574219 L 588.59375 448.574219 C 589.542969 448.574219 590.308594 447.800781 590.308594 446.859375 Z M 588.902344 458.058594 C 588.902344 457.113281 588.136719 456.34375 587.1875 456.34375 L 575.753906 456.34375 C 574.808594 456.34375 574.039062 457.113281 574.039062 458.058594 C 574.039062 459.007812 574.808594 459.769531 575.753906 459.769531 L 587.1875 459.769531 C 588.136719 459.769531 588.902344 459.007812 588.902344 458.058594 Z M 586.089844 480.46875 C 586.089844 479.515625 585.316406 478.753906 584.375 478.753906 L 572.941406 478.753906 C 571.996094 478.753906 571.226562 479.515625 571.226562 480.46875 C 571.226562 481.414062 571.996094 482.183594 572.941406 482.183594 L 584.375 482.183594 C 585.316406 482.183594 586.089844 481.414062 586.089844 480.46875 Z M 584.683594 491.667969 C 584.683594 490.722656 583.910156 489.953125 582.96875 489.953125 L 571.535156 489.953125 C 570.582031 489.953125 569.820312 490.722656 569.820312 491.667969 C 569.820312 492.617188 570.582031 493.382812 571.535156 493.382812 L 582.96875 493.382812 C 583.910156 493.382812 584.683594 492.617188 584.683594 491.667969 Z M 709.375 428.765625 L 699.945312 503.769531 L 679.363281 503.769531 C 679.535156 503.507812 679.65625 503.207031 679.65625 502.871094 C 679.65625 501.921875 678.894531 501.15625 677.941406 501.15625 L 632.492188 501.15625 C 631.546875 501.15625 630.777344 501.921875 630.777344 502.871094 C 630.777344 503.207031 630.898438 503.507812 631.070312 503.769531 L 621.753906 503.769531 C 621.921875 503.507812 622.050781 503.207031 622.050781 502.871094 C 622.050781 501.921875 621.277344 501.15625 620.335938 501.15625 L 597.601562 501.15625 C 596.65625 501.15625 595.886719 501.921875 595.886719 502.871094 C 595.886719 503.207031 596.015625 503.507812 596.183594 503.769531 L 582.972656 503.769531 C 583.148438 503.507812 583.269531 503.207031 583.269531 502.871094 C 583.269531 501.921875 582.503906 501.15625 581.554688 501.15625 L 570.128906 501.15625 C 569.175781 501.15625 568.414062 501.921875 568.414062 502.871094 C 568.414062 503.207031 568.535156 503.507812 568.707031 503.769531 L 557.433594 503.769531 L 566.867188 428.765625 C 567.460938 424.03125 571.78125 420.195312 576.515625 420.195312 L 701.878906 420.195312 C 706.609375 420.195312 709.972656 424.03125 709.375 428.765625 Z M 465.96875 453.898438 L 452.910156 453.898438 C 451.105469 453.898438 449.464844 455.359375 449.246094 457.160156 C 449.015625 458.953125 450.289062 460.414062 452.089844 460.414062 L 465.152344 460.414062 C 466.953125 460.414062 468.59375 458.953125 468.824219 457.160156 C 469.042969 455.359375 467.769531 453.898438 465.96875 453.898438 Z M 435.171875 453.898438 L 422.113281 453.898438 C 420.308594 453.898438 418.667969 455.359375 418.441406 457.160156 C 418.21875 458.953125 419.492188 460.414062 421.292969 460.414062 L 434.355469 460.414062 C 436.148438 460.414062 437.796875 458.953125 438.027344 457.160156 C 438.246094 455.359375 436.972656 453.898438 435.171875 453.898438 Z M 412.796875 426.496094 C 411.394531 426.496094 410.117188 427.636719 409.941406 429.035156 C 409.765625 430.433594 410.757812 431.574219 412.160156 431.574219 C 413.558594 431.574219 414.835938 430.433594 415.011719 429.035156 C 415.191406 427.636719 414.195312 426.496094 412.796875 426.496094 Z M 421.761719 431.574219 C 423.164062 431.574219 424.4375 430.433594 424.617188 429.035156 C 424.789062 427.636719 423.800781 426.496094 422.398438 426.496094 C 421 426.496094 419.71875 427.636719 419.546875 429.035156 C 419.367188 430.433594 420.363281 431.574219 421.761719 431.574219 Z M 431.363281 431.574219 C 432.761719 431.574219 434.039062 430.433594 434.214844 429.035156 C 434.394531 427.636719 433.402344 426.496094 431.996094 426.496094 C 430.597656 426.496094 429.324219 427.636719 429.144531 429.035156 C 428.96875 430.433594 429.960938 431.574219 431.363281 431.574219 Z M 458.066406 442.238281 L 432.511719 442.238281 C 431.570312 442.238281 430.796875 443.007812 430.796875 443.949219 C 430.796875 444.902344 431.570312 445.664062 432.511719 445.664062 L 458.066406 445.664062 C 459.015625 445.664062 459.78125 444.902344 459.78125 443.949219 C 459.78125 443.007812 459.015625 442.238281 458.066406 442.238281 Z M 484.019531 420.171875 C 488.753906 420.171875 492.117188 424.019531 491.519531 428.746094 L 487.925781 457.328125 C 487.335938 462.0625 483.007812 465.898438 478.28125 465.898438 L 405.46875 465.898438 C 400.730469 465.898438 397.375 462.0625 397.972656 457.328125 L 401.5625 428.746094 C 402.160156 424.019531 406.480469 420.171875 411.214844 420.171875 Z M 445.292969 271.234375 C 445.472656 269.832031 444.484375 268.695312 443.074219 268.695312 C 441.683594 268.695312 440.402344 269.832031 440.222656 271.234375 C 440.046875 272.632812 441.039062 273.765625 442.441406 273.765625 C 443.839844 273.765625 445.117188 272.632812 445.292969 271.234375 Z M 535.8125 395.867188 C 535.8125 394.917969 535.042969 394.152344 534.101562 394.152344 L 525.339844 394.152344 C 524.386719 394.152344 523.625 394.917969 523.625 395.867188 C 523.625 396.8125 524.386719 397.582031 525.339844 397.582031 L 534.101562 397.582031 C 535.042969 397.582031 535.8125 396.8125 535.8125 395.867188 Z M 523.25 307.851562 C 524.195312 307.851562 524.964844 307.082031 524.964844 306.136719 C 524.964844 305.183594 524.195312 304.421875 523.25 304.421875 L 497.722656 304.421875 C 496.777344 304.421875 496.007812 305.183594 496.007812 306.136719 C 496.007812 307.082031 496.777344 307.851562 497.722656 307.851562 Z M 518.28125 321.144531 L 456.171875 321.144531 C 453.644531 321.144531 451.339844 323.195312 451.027344 325.722656 L 449.144531 340.65625 C 448.828125 343.175781 450.617188 345.226562 453.144531 345.226562 L 515.25 345.226562 C 517.777344 345.226562 520.082031 343.175781 520.394531 340.65625 L 522.269531 325.722656 C 522.59375 323.195312 520.796875 321.144531 518.28125 321.144531 Z M 491.480469 389.351562 L 500.242188 389.351562 C 501.1875 389.351562 501.957031 388.578125 501.957031 387.636719 C 501.957031 386.683594 501.1875 385.921875 500.242188 385.921875 L 491.480469 385.921875 C 490.53125 385.921875 489.765625 386.683594 489.765625 387.636719 C 489.765625 388.578125 490.53125 389.351562 491.480469 389.351562 Z M 506.484375 395.867188 C 506.484375 394.917969 505.714844 394.152344 504.769531 394.152344 L 490.441406 394.152344 C 489.5 394.152344 488.726562 394.917969 488.726562 395.867188 C 488.726562 396.8125 489.5 397.582031 490.441406 397.582031 L 504.769531 397.582031 C 505.714844 397.582031 506.484375 396.8125 506.484375 395.867188 Z M 476.832031 387.636719 C 476.832031 386.683594 476.0625 385.921875 475.117188 385.921875 L 459.820312 385.921875 C 458.871094 385.921875 458.105469 386.683594 458.105469 387.636719 C 458.105469 388.578125 458.871094 389.351562 459.820312 389.351562 L 475.117188 389.351562 C 476.0625 389.351562 476.832031 388.578125 476.832031 387.636719 Z M 469.265625 395.867188 C 469.265625 394.917969 468.496094 394.152344 467.550781 394.152344 L 458.78125 394.152344 C 457.839844 394.152344 457.066406 394.917969 457.066406 395.867188 C 457.066406 396.8125 457.839844 397.582031 458.78125 397.582031 L 467.550781 397.582031 C 468.496094 397.582031 469.265625 396.8125 469.265625 395.867188 Z M 442.246094 387.636719 C 442.246094 386.683594 441.480469 385.921875 440.53125 385.921875 L 423.007812 385.921875 C 422.066406 385.921875 421.292969 386.683594 421.292969 387.636719 C 421.292969 388.578125 422.066406 389.351562 423.007812 389.351562 L 440.53125 389.351562 C 441.480469 389.351562 442.246094 388.578125 442.246094 387.636719 Z M 434.214844 395.867188 C 434.214844 394.917969 433.445312 394.152344 432.5 394.152344 L 421.976562 394.152344 C 421.027344 394.152344 420.261719 394.917969 420.261719 395.867188 C 420.261719 396.8125 421.027344 397.582031 421.976562 397.582031 L 432.5 397.582031 C 433.445312 397.582031 434.214844 396.8125 434.214844 395.867188 Z M 451.769531 306.136719 C 451.769531 307.082031 452.539062 307.851562 453.484375 307.851562 L 485.867188 307.851562 C 486.820312 307.851562 487.582031 307.082031 487.582031 306.136719 C 487.582031 305.183594 486.820312 304.421875 485.867188 304.421875 L 453.484375 304.421875 C 452.539062 304.421875 451.769531 305.183594 451.769531 306.136719 Z M 524.65625 387.636719 C 524.65625 388.578125 525.425781 389.351562 526.371094 389.351562 L 541.667969 389.351562 C 542.613281 389.351562 543.382812 388.578125 543.382812 387.636719 C 543.382812 386.683594 542.613281 385.921875 541.667969 385.921875 L 526.371094 385.921875 C 525.425781 385.921875 524.65625 386.683594 524.65625 387.636719 Z M 539.035156 407.640625 L 413.671875 407.640625 C 408.9375 407.640625 405.582031 403.804688 406.175781 399.070312 L 420.671875 283.726562 L 563.183594 283.726562 L 565.246094 267.308594 L 548.679688 399.070312 C 548.089844 403.804688 543.769531 407.640625 539.035156 407.640625 Z M 731.003906 491.621094 L 713.703125 491.621094 C 712.757812 491.621094 711.988281 492.390625 711.988281 493.335938 C 711.988281 494.277344 712.757812 495.050781 713.703125 495.050781 L 731.003906 495.050781 C 731.949219 495.050781 732.71875 494.277344 732.71875 493.335938 C 732.71875 492.390625 731.949219 491.621094 731.003906 491.621094 Z M 739.457031 480.414062 L 715.117188 480.414062 C 714.164062 480.414062 713.402344 481.183594 713.402344 482.128906 C 713.402344 483.078125 714.164062 483.84375 715.117188 483.84375 L 739.457031 483.84375 C 740.40625 483.84375 741.171875 483.078125 741.171875 482.128906 C 741.171875 481.183594 740.40625 480.414062 739.457031 480.414062 Z M 716.523438 472.644531 L 730.96875 472.644531 C 731.914062 472.644531 732.683594 471.875 732.683594 470.929688 C 732.683594 469.984375 731.914062 469.214844 730.96875 469.214844 L 716.523438 469.214844 C 715.570312 469.214844 714.808594 469.984375 714.808594 470.929688 C 714.808594 471.875 715.570312 472.644531 716.523438 472.644531 Z M 747.839844 342.671875 L 730.546875 342.671875 C 729.597656 342.671875 728.832031 343.441406 728.832031 344.386719 C 728.832031 345.339844 729.597656 346.101562 730.546875 346.101562 L 747.839844 346.101562 C 748.785156 346.101562 749.554688 345.339844 749.554688 344.386719 C 749.554688 343.441406 748.785156 342.671875 747.839844 342.671875 Z M 756.292969 331.472656 L 731.953125 331.472656 C 731.003906 331.472656 730.238281 332.238281 730.238281 333.1875 C 730.238281 334.132812 731.003906 334.902344 731.953125 334.902344 L 756.292969 334.902344 C 757.246094 334.902344 758.007812 334.132812 758.007812 333.1875 C 758.007812 332.238281 757.246094 331.472656 756.292969 331.472656 Z M 733.359375 320.269531 C 732.417969 320.269531 731.644531 321.039062 731.644531 321.984375 C 731.644531 322.933594 732.417969 323.699219 733.359375 323.699219 L 747.808594 323.699219 C 748.757812 323.699219 749.523438 322.933594 749.523438 321.984375 C 749.523438 321.039062 748.757812 320.269531 747.808594 320.269531 Z M 707.199219 283.726562 C 707.199219 282.78125 706.433594 282.011719 705.484375 282.011719 L 676.597656 282.011719 C 675.644531 282.011719 674.882812 282.78125 674.882812 283.726562 C 674.882812 284.675781 675.644531 285.441406 676.597656 285.441406 L 705.484375 285.441406 C 706.433594 285.441406 707.199219 284.675781 707.199219 283.726562 Z M 692.730469 306.136719 C 692.730469 305.183594 691.96875 304.421875 691.015625 304.421875 L 665.773438 304.421875 C 664.828125 304.421875 664.058594 305.183594 664.058594 306.136719 C 664.058594 307.082031 664.828125 307.851562 665.773438 307.851562 L 691.015625 307.851562 C 691.96875 307.851562 692.730469 307.082031 692.730469 306.136719 Z M 685.691406 362.144531 C 685.691406 361.199219 684.929688 360.429688 683.976562 360.429688 L 658.734375 360.429688 C 657.789062 360.429688 657.019531 361.199219 657.019531 362.144531 C 657.019531 363.09375 657.789062 363.859375 658.734375 363.859375 L 683.976562 363.859375 C 684.929688 363.859375 685.691406 363.09375 685.691406 362.144531 Z M 673.160156 373.347656 C 673.160156 372.398438 672.398438 371.632812 671.445312 371.632812 L 640.945312 371.632812 C 639.992188 371.632812 639.230469 372.398438 639.230469 373.347656 C 639.230469 374.292969 639.992188 375.0625 640.945312 375.0625 L 671.445312 375.0625 C 672.398438 375.0625 673.160156 374.292969 673.160156 373.347656 Z M 655.875 384.546875 C 655.875 383.605469 655.101562 382.832031 654.160156 382.832031 L 612.476562 382.832031 C 611.527344 382.832031 610.761719 383.605469 610.761719 384.546875 C 610.761719 385.5 611.527344 386.261719 612.476562 386.261719 L 654.160156 386.261719 C 655.101562 386.261719 655.875 385.5 655.875 384.546875 Z M 610.808594 283.726562 C 610.808594 282.78125 610.046875 282.011719 609.09375 282.011719 L 597.667969 282.011719 C 596.722656 282.011719 595.953125 282.78125 595.953125 283.726562 C 595.953125 284.675781 596.722656 285.441406 597.667969 285.441406 L 609.09375 285.441406 C 610.046875 285.441406 610.808594 284.675781 610.808594 283.726562 Z M 609.402344 294.929688 C 609.402344 293.988281 608.640625 293.214844 607.6875 293.214844 L 596.261719 293.214844 C 595.3125 293.214844 594.546875 293.988281 594.546875 294.929688 C 594.546875 295.875 595.3125 296.644531 596.261719 296.644531 L 607.6875 296.644531 C 608.640625 296.644531 609.402344 295.875 609.402344 294.929688 Z M 607.996094 306.136719 C 607.996094 305.183594 607.234375 304.421875 606.28125 304.421875 L 594.855469 304.421875 C 593.90625 304.421875 593.140625 305.183594 593.140625 306.136719 C 593.140625 307.082031 593.90625 307.851562 594.855469 307.851562 L 606.28125 307.851562 C 607.234375 307.851562 607.996094 307.082031 607.996094 306.136719 Z M 606.589844 317.335938 C 606.589844 316.390625 605.820312 315.621094 604.875 315.621094 L 593.441406 315.621094 C 592.5 315.621094 591.726562 316.390625 591.726562 317.335938 C 591.726562 318.28125 592.5 319.050781 593.441406 319.050781 L 604.875 319.050781 C 605.820312 319.050781 606.589844 318.28125 606.589844 317.335938 Z M 605.183594 328.539062 C 605.183594 327.589844 604.414062 326.824219 603.46875 326.824219 L 592.035156 326.824219 C 591.089844 326.824219 590.320312 327.589844 590.320312 328.539062 C 590.320312 329.484375 591.089844 330.253906 592.035156 330.253906 L 603.46875 330.253906 C 604.414062 330.253906 605.183594 329.484375 605.183594 328.539062 Z M 602.363281 350.945312 C 602.363281 349.992188 601.601562 349.230469 600.648438 349.230469 L 589.222656 349.230469 C 588.273438 349.230469 587.507812 349.992188 587.507812 350.945312 C 587.507812 351.890625 588.273438 352.660156 589.222656 352.660156 L 600.648438 352.660156 C 601.601562 352.660156 602.363281 351.890625 602.363281 350.945312 Z M 600.957031 362.144531 C 600.957031 361.199219 600.1875 360.429688 599.242188 360.429688 L 587.808594 360.429688 C 586.867188 360.429688 586.09375 361.199219 586.09375 362.144531 C 586.09375 363.09375 586.867188 363.859375 587.808594 363.859375 L 599.242188 363.859375 C 600.1875 363.859375 600.957031 363.09375 600.957031 362.144531 Z M 599.550781 373.347656 C 599.550781 372.398438 598.78125 371.632812 597.835938 371.632812 L 586.402344 371.632812 C 585.457031 371.632812 584.6875 372.398438 584.6875 373.347656 C 584.6875 374.292969 585.457031 375.0625 586.402344 375.0625 L 597.835938 375.0625 C 598.78125 375.0625 599.550781 374.292969 599.550781 373.347656 Z M 598.144531 384.546875 C 598.144531 383.605469 597.375 382.832031 596.429688 382.832031 L 584.996094 382.832031 C 584.050781 382.832031 583.28125 383.605469 583.28125 384.546875 C 583.28125 385.5 584.050781 386.261719 584.996094 386.261719 L 596.429688 386.261719 C 597.375 386.261719 598.144531 385.5 598.144531 384.546875 Z M 612.167969 373.347656 C 612.167969 374.292969 612.941406 375.0625 613.882812 375.0625 L 631.179688 375.0625 C 632.121094 375.0625 632.894531 374.292969 632.894531 373.347656 C 632.894531 372.398438 632.121094 371.632812 631.179688 371.632812 L 613.882812 371.632812 C 612.941406 371.632812 612.167969 372.398438 612.167969 373.347656 Z M 613.578125 362.144531 C 613.578125 363.09375 614.347656 363.859375 615.289062 363.859375 L 648.972656 363.859375 C 649.917969 363.859375 650.6875 363.09375 650.6875 362.144531 C 650.6875 361.199219 649.917969 360.429688 648.972656 360.429688 L 615.289062 360.429688 C 614.347656 360.429688 613.578125 361.199219 613.578125 362.144531 Z M 614.984375 350.945312 C 614.984375 351.890625 615.753906 352.660156 616.699219 352.660156 L 631.144531 352.660156 C 632.097656 352.660156 632.859375 351.890625 632.859375 350.945312 C 632.859375 349.992188 632.097656 349.230469 631.144531 349.230469 L 616.699219 349.230469 C 615.753906 349.230469 614.984375 349.992188 614.984375 350.945312 Z M 617.800781 328.539062 C 617.800781 329.484375 618.574219 330.253906 619.515625 330.253906 L 640.355469 330.253906 C 641.304688 330.253906 642.070312 329.484375 642.070312 328.539062 C 642.070312 327.589844 641.304688 326.824219 640.355469 326.824219 L 619.515625 326.824219 C 618.574219 326.824219 617.800781 327.589844 617.800781 328.539062 Z M 619.210938 317.335938 C 619.210938 318.28125 619.980469 319.050781 620.921875 319.050781 L 638.21875 319.050781 C 639.167969 319.050781 639.933594 318.28125 639.933594 317.335938 C 639.933594 316.390625 639.167969 315.621094 638.21875 315.621094 L 620.921875 315.621094 C 619.980469 315.621094 619.210938 316.390625 619.210938 317.335938 Z M 620.617188 306.136719 C 620.617188 307.082031 621.386719 307.851562 622.332031 307.851562 L 656.015625 307.851562 C 656.957031 307.851562 657.726562 307.082031 657.726562 306.136719 C 657.726562 305.183594 656.957031 304.421875 656.015625 304.421875 L 622.332031 304.421875 C 621.386719 304.421875 620.617188 305.183594 620.617188 306.136719 Z M 622.023438 294.929688 C 622.023438 295.875 622.792969 296.644531 623.738281 296.644531 L 638.183594 296.644531 C 639.136719 296.644531 639.898438 295.875 639.898438 294.929688 C 639.898438 293.988281 639.136719 293.214844 638.183594 293.214844 L 623.738281 293.214844 C 622.792969 293.214844 622.023438 293.988281 622.023438 294.929688 Z M 623.433594 283.726562 C 623.433594 284.675781 624.199219 285.441406 625.148438 285.441406 L 666.832031 285.441406 C 667.773438 285.441406 668.546875 284.675781 668.546875 283.726562 C 668.546875 282.78125 667.773438 282.011719 666.832031 282.011719 L 625.148438 282.011719 C 624.199219 282.011719 623.433594 282.78125 623.433594 283.726562 Z M 674.808594 296.644531 C 675.757812 296.644531 676.523438 295.875 676.523438 294.929688 C 676.523438 293.988281 675.757812 293.214844 674.808594 293.214844 L 645.914062 293.214844 C 644.96875 293.214844 644.199219 293.988281 644.199219 294.929688 C 644.199219 295.875 644.96875 296.644531 645.914062 296.644531 Z M 661.152344 317.335938 C 661.152344 316.390625 660.378906 315.621094 659.4375 315.621094 L 647.984375 315.621094 C 647.03125 315.621094 646.269531 316.390625 646.269531 317.335938 C 646.269531 318.28125 647.03125 319.050781 647.984375 319.050781 L 659.4375 319.050781 C 660.378906 319.050781 661.152344 318.28125 661.152344 317.335938 Z M 667.769531 349.230469 L 638.875 349.230469 C 637.929688 349.230469 637.160156 349.992188 637.160156 350.945312 C 637.160156 351.890625 637.929688 352.660156 638.875 352.660156 L 667.769531 352.660156 C 668.71875 352.660156 669.484375 351.890625 669.484375 350.945312 C 669.484375 349.992188 668.71875 349.230469 667.769531 349.230469 Z M 677.722656 330.253906 C 678.664062 330.253906 679.4375 329.484375 679.4375 328.539062 C 679.4375 327.589844 678.664062 326.824219 677.722656 326.824219 L 647.847656 326.824219 C 646.90625 326.824219 646.132812 327.589844 646.132812 328.539062 C 646.132812 329.484375 646.90625 330.253906 647.847656 330.253906 Z M 713.105469 399.070312 C 712.511719 403.804688 708.191406 407.640625 703.453125 407.640625 L 578.089844 407.640625 C 573.355469 407.640625 570 403.804688 570.597656 399.070312 L 587.160156 267.308594 C 587.75 262.574219 592.074219 258.734375 596.804688 258.734375 L 722.167969 258.734375 C 726.902344 258.734375 730.257812 262.574219 729.671875 267.308594 Z M 264.941406 311.472656 L 263.347656 298.320312 C 261.804688 285.546875 265.570312 273.476562 272.796875 264.160156 L 202.5625 264.160156 L 202.5625 311.28125 C 202.5625 311.347656 202.542969 311.40625 202.542969 311.472656 Z M 188.167969 262.582031 L 171.183594 262.582031 L 171.183594 303.671875 L 188.167969 303.671875 Z M 162.5625 264.160156 L 162.5625 257.4375 L 145.578125 257.4375 L 145.578125 303.671875 L 162.5625 303.671875 Z M 136.957031 268.75 L 119.972656 268.75 L 119.972656 303.671875 L 136.957031 303.671875 Z M 111.351562 289.390625 L 94.367188 289.390625 L 94.367188 303.671875 L 111.351562 303.671875 Z M 85.746094 282.125 L 68.761719 282.125 L 68.761719 303.671875 L 85.746094 303.671875 Z M 259.308594 362.210938 L 0.761719 362.210938 C 0.722656 361.640625 0.675781 361.066406 0.644531 360.496094 L 259.789062 360.496094 L 264.492188 343.933594 C 266.515625 336.792969 267.097656 329.332031 266.207031 321.964844 L 265.148438 313.1875 L 202.328125 313.1875 C 201.457031 317 198.0625 319.851562 193.988281 319.851562 L 67.433594 319.851562 C 63.355469 319.851562 59.960938 317 59.089844 313.1875 L 1.265625 313.1875 C 1.320312 312.613281 1.386719 312.042969 1.445312 311.472656 L 58.878906 311.472656 C 58.878906 311.40625 58.859375 311.347656 58.859375 311.28125 L 58.859375 264.160156 L 10.402344 264.160156 C 10.5625 263.585938 10.742188 263.023438 10.910156 262.445312 L 58.859375 262.445312 L 58.859375 244.890625 C 58.859375 240.15625 62.699219 236.316406 67.433594 236.316406 L 193.988281 236.316406 C 198.71875 236.316406 202.5625 240.15625 202.5625 244.890625 L 202.5625 262.445312 L 274.195312 262.445312 C 282.703125 252.492188 295.339844 246.089844 309.640625 246.089844 C 323.753906 246.089844 336.511719 252.394531 345.105469 262.445312 L 390.25 262.445312 L 390.0625 264.160156 L 346.507812 264.160156 C 351.683594 270.839844 355.105469 278.984375 356.023438 287.9375 L 356.492188 292.472656 L 366.257812 311.472656 L 384.816406 311.472656 L 384.625 313.1875 L 366.886719 313.1875 C 366.929688 314.273438 366.25 315.324219 365.121094 315.652344 L 361.289062 316.777344 C 360.171875 317.101562 359.441406 318.160156 359.527344 319.316406 C 360.117188 326.945312 361.832031 354.152344 356.492188 357.027344 C 350.277344 360.375 320.597656 354.375 320.597656 354.375 C 320.035156 356.398438 319.574219 358.441406 319.1875 360.496094 L 379.378906 360.496094 L 379.191406 362.210938 L 318.890625 362.210938 C 317.839844 368.574219 317.578125 375.035156 318.128906 381.453125 C 311.476562 379.183594 302.589844 375.699219 288.765625 372.886719 C 275.515625 370.195312 262.742188 373.234375 255.496094 375.652344 Z M 220.425781 500.28125 C 218.316406 486.957031 215.535156 473.214844 212.058594 460.261719 L 212.066406 460.261719 C 212.007812 460.03125 211.945312 459.8125 211.886719 459.589844 C 210.640625 455.007812 209.3125 450.523438 207.894531 446.203125 C 203.144531 431.761719 207.660156 417.085938 217.492188 407.601562 C 217.015625 407.816406 216.535156 408.003906 216.066406 408.238281 C 215.261719 408.640625 214.5 409.074219 213.742188 409.515625 L 7.292969 409.515625 C 7.414062 410.09375 7.527344 410.664062 7.648438 411.230469 L 211.101562 411.230469 C 196.273438 421.875 191.492188 442.257812 200.660156 458.546875 L 20.789062 458.546875 C 20.984375 459.113281 21.164062 459.691406 21.367188 460.261719 L 201.617188 460.261719 Z M 381.226562 753.785156 C 388.226562 753.785156 395.238281 753.40625 402.257812 752.6875 L 357.402344 752.6875 C 365.320312 753.390625 373.265625 753.785156 381.226562 753.785156 Z M 285.132812 703.71875 C 283.472656 703.71875 281.851562 703.699219 280.257812 703.667969 L 215.992188 703.667969 C 216.9375 704.242188 217.886719 704.804688 218.832031 705.382812 L 527.160156 705.382812 C 528.042969 704.8125 528.921875 704.234375 529.800781 703.667969 L 287.222656 703.667969 C 286.519531 703.671875 285.851562 703.71875 285.132812 703.71875 Z M 217.0625 654.636719 L 150.988281 654.636719 C 151.617188 655.214844 152.25 655.785156 152.878906 656.351562 L 217.164062 656.351562 C 217.128906 655.785156 217.097656 655.214844 217.0625 654.636719 Z M 361.910156 656.351562 L 590.09375 656.351562 C 590.710938 655.785156 591.324219 655.214844 591.941406 654.636719 L 362.519531 654.636719 C 362.328125 655.203125 362.125 655.765625 361.910156 656.351562 Z M 218.417969 605.617188 L 104.238281 605.617188 C 104.722656 606.191406 105.210938 606.753906 105.691406 607.332031 L 218.242188 607.332031 C 218.296875 606.753906 218.355469 606.1875 218.417969 605.617188 Z M 225.535156 556.589844 L 68.492188 556.589844 C 68.859375 557.164062 69.230469 557.734375 69.597656 558.304688 L 225.535156 558.304688 C 225.535156 557.746094 225.535156 557.179688 225.535156 556.589844 Z M 489.738281 581.183594 C 493.757812 581.832031 497.710938 582.457031 501.535156 583.039062 L 501.097656 582.363281 L 490.925781 580.207031 Z M 579.371094 605.617188 L 605.175781 605.617188 L 597.011719 599.925781 L 582.410156 603.257812 Z M 381.375 507.566406 L 708.410156 507.566406 C 708.074219 508.136719 707.746094 508.710938 707.414062 509.28125 L 382.246094 509.28125 C 393.109375 530.328125 403.070312 547.820312 409.078125 556.589844 L 676.9375 556.589844 C 676.535156 557.164062 676.132812 557.734375 675.730469 558.304688 L 410.285156 558.304688 C 411.84375 560.472656 413.070312 561.894531 413.867188 562.421875 C 420.234375 566.667969 435.984375 570.929688 454.375 574.746094 L 483.550781 563.734375 C 486.53125 562.617188 489.867188 563 492.511719 564.765625 L 506.925781 574.398438 L 512.941406 584.738281 C 524.195312 586.367188 533.441406 587.585938 538.59375 588.242188 L 554.566406 587.640625 L 588.828125 575.804688 C 591.902344 574.746094 595.304688 575.230469 597.957031 577.117188 L 612.398438 587.367188 L 622.332031 605.617188 L 638.886719 605.617188 C 638.398438 606.1875 637.910156 606.761719 637.421875 607.332031 L 623.261719 607.332031 L 623.597656 607.949219 C 624.234375 609.121094 623.75 610.585938 622.539062 611.144531 C 620.121094 610.976562 617.355469 609.769531 615.101562 608.089844 L 615.6875 612.035156 C 615.953125 613.835938 614.480469 615.429688 612.664062 615.296875 C 609.832031 615.09375 607.5 612.992188 607.011719 610.191406 L 606.511719 607.332031 L 577.152344 607.332031 L 570.132812 612.761719 C 566.824219 615.316406 562.972656 617.023438 558.910156 617.765625 C 556.261719 618.25 553.535156 618.167969 550.871094 617.808594 L 534.667969 615.570312 L 414.0625 614.710938 C 399.5 614.101562 388.777344 611.335938 380.617188 607.332031 L 349.855469 607.332031 C 349.769531 607.058594 349.6875 606.78125 349.609375 606.5 L 349.601562 606.5 C 349.535156 606.273438 349.46875 606.046875 349.398438 605.8125 C 349.378906 605.75 349.359375 605.683594 349.339844 605.617188 L 349.347656 605.617188 C 346.765625 596.871094 344.914062 587.800781 344.914062 579.789062 C 344.914062 575.230469 345.589844 570.417969 346.6875 565.4375 C 346.96875 565.492188 347.257812 565.542969 347.542969 565.597656 L 329.453125 530.675781 C 328.503906 530.875 327.53125 530.984375 326.539062 530.984375 C 317.539062 530.984375 308.65625 522.542969 301.984375 509.28125 L 41.902344 509.28125 C 41.628906 508.710938 41.339844 508.144531 41.058594 507.566406 L 301.148438 507.566406 C 296.253906 497.238281 292.65625 484.253906 291.277344 470.125 C 290.171875 458.800781 290.632812 448.203125 292.339844 439.121094 C 292.207031 427.246094 295.410156 416.878906 304.261719 412.753906 C 304.972656 412.417969 305.691406 412.15625 306.398438 411.882812 C 308.929688 410.1875 311.691406 409.269531 314.652344 409.269531 C 315.855469 409.269531 317.054688 409.4375 318.25 409.726562 C 330.125 409.992188 340.6875 417.574219 345.6875 430.160156 C 355.695312 455.332031 369.050781 483.617188 381.363281 507.566406 Z M 368.320312 460.261719 L 368.507812 458.546875 L 361.648438 458.546875 C 361.84375 459.113281 362.039062 459.691406 362.226562 460.261719 Z M 373.949219 409.515625 L 340.363281 409.515625 C 340.558594 409.871094 340.757812 410.222656 340.941406 410.574219 C 341.046875 410.789062 341.160156 411.019531 341.269531 411.230469 L 373.761719 411.230469 Z M 776.234375 213.425781 L 31.179688 213.425781 C 30.871094 213.992188 30.570312 214.570312 30.265625 215.140625 L 776.648438 215.140625 C 776.507812 214.570312 776.375 213.992188 776.234375 213.425781 " fill-opacity="1" fill-rule="nonzero"/><g clip-path="url(#88681adc80)"><path fill="#393a3f" d="M 589.589844 561.878906 L 541.292969 562.027344 L 517.148438 562.109375 L 493 562.347656 L 493 563.125 L 517.148438 563.359375 L 541.292969 563.441406 L 589.589844 563.589844 L 637.882812 563.40625 L 662.035156 563.3125 L 686.179688 563.066406 L 686.179688 562.410156 L 662.035156 562.160156 L 637.882812 562.0625 Z M 569.335938 182.21875 L 551.890625 182.21875 L 551.890625 183.933594 L 569.335938 183.933594 Z M 578.425781 178.214844 L 578.425781 176.5 L 567.320312 176.5 L 567.320312 178.214844 Z M 562.992188 176.5 L 551.890625 176.5 L 551.890625 178.214844 L 562.992188 178.214844 Z M 578.425781 170.785156 L 551.890625 170.785156 L 551.890625 172.5 L 578.425781 172.5 Z M 590.339844 51.398438 C 592.820312 51.398438 594.828125 49.386719 594.828125 46.910156 C 594.828125 44.4375 592.820312 42.429688 590.339844 42.429688 C 587.863281 42.429688 585.859375 44.4375 585.859375 46.910156 C 585.859375 49.386719 587.863281 51.398438 590.339844 51.398438 Z M 346.59375 51.398438 C 349.070312 51.398438 351.082031 49.386719 351.082031 46.910156 C 351.082031 44.4375 349.070312 42.429688 346.59375 42.429688 C 344.113281 42.429688 342.105469 44.4375 342.105469 46.910156 C 342.105469 49.386719 344.113281 51.398438 346.59375 51.398438 Z M 171.382812 185.9375 L 153.929688 185.9375 L 153.929688 187.652344 L 171.382812 187.652344 Z M 180.472656 181.929688 L 180.472656 180.214844 L 169.363281 180.214844 L 169.363281 181.929688 Z M 165.042969 180.214844 L 153.929688 180.214844 L 153.929688 181.929688 L 165.042969 181.929688 Z M 180.472656 174.503906 L 153.929688 174.503906 L 153.929688 176.21875 L 180.472656 176.21875 Z M 108.296875 51.398438 C 110.769531 51.398438 112.777344 49.386719 112.777344 46.910156 C 112.777344 44.4375 110.769531 42.429688 108.296875 42.429688 C 105.820312 42.429688 103.808594 44.4375 103.808594 46.910156 C 103.808594 49.386719 105.820312 51.398438 108.296875 51.398438 Z M 76.394531 311.902344 L 78.109375 311.902344 L 78.109375 310.074219 L 102 310.074219 L 102 311.902344 L 103.714844 311.902344 L 103.714844 310.074219 L 127.605469 310.074219 L 127.605469 311.902344 L 129.320312 311.902344 L 129.320312 310.074219 L 153.214844 310.074219 L 153.214844 311.902344 L 154.929688 311.902344 L 154.929688 310.074219 L 178.820312 310.074219 L 178.820312 311.902344 L 180.535156 311.902344 L 180.535156 310.074219 L 188.335938 310.074219 L 188.335938 308.359375 L 180.535156 308.359375 L 180.535156 306.53125 L 178.820312 306.53125 L 178.820312 308.359375 L 154.929688 308.359375 L 154.929688 306.53125 L 153.214844 306.53125 L 153.214844 308.359375 L 129.320312 308.359375 L 129.320312 306.53125 L 127.605469 306.53125 L 127.605469 308.359375 L 103.714844 308.359375 L 103.714844 306.53125 L 102 306.53125 L 102 308.359375 L 78.109375 308.359375 L 78.109375 306.53125 L 76.394531 306.53125 L 76.394531 308.359375 L 68.761719 308.359375 L 68.761719 310.074219 L 76.394531 310.074219 Z M 633.058594 246.089844 C 633.058594 245.144531 632.289062 244.375 631.34375 244.375 L 409.820312 244.375 C 408.871094 244.375 408.105469 245.144531 408.105469 246.089844 C 408.105469 247.042969 408.871094 247.804688 409.820312 247.804688 L 631.34375 247.804688 C 632.289062 247.804688 633.058594 247.042969 633.058594 246.089844 Z M 582.96875 489.953125 L 571.535156 489.953125 C 570.582031 489.953125 569.820312 490.722656 569.820312 491.667969 C 569.820312 492.617188 570.582031 493.382812 571.535156 493.382812 L 582.96875 493.382812 C 583.910156 493.382812 584.683594 492.617188 584.683594 491.667969 C 584.683594 490.722656 583.910156 489.953125 582.96875 489.953125 Z M 586.089844 480.46875 C 586.089844 479.515625 585.316406 478.753906 584.375 478.753906 L 572.941406 478.753906 C 571.996094 478.753906 571.226562 479.515625 571.226562 480.46875 C 571.226562 481.414062 571.996094 482.183594 572.941406 482.183594 L 584.375 482.183594 C 585.316406 482.183594 586.089844 481.414062 586.089844 480.46875 Z M 588.902344 458.058594 C 588.902344 457.113281 588.136719 456.34375 587.1875 456.34375 L 575.753906 456.34375 C 574.808594 456.34375 574.039062 457.113281 574.039062 458.058594 C 574.039062 459.007812 574.808594 459.769531 575.753906 459.769531 L 587.1875 459.769531 C 588.136719 459.769531 588.902344 459.007812 588.902344 458.058594 Z M 590.308594 446.859375 C 590.308594 445.914062 589.542969 445.144531 588.59375 445.144531 L 577.167969 445.144531 C 576.214844 445.144531 575.453125 445.914062 575.453125 446.859375 C 575.453125 447.800781 576.214844 448.574219 577.167969 448.574219 L 588.59375 448.574219 C 589.542969 448.574219 590.308594 447.800781 590.308594 446.859375 Z M 591.722656 435.660156 C 591.722656 434.707031 590.949219 433.945312 590.007812 433.945312 L 578.574219 433.945312 C 577.628906 433.945312 576.859375 434.707031 576.859375 435.660156 C 576.859375 436.605469 577.628906 437.375 578.574219 437.375 L 590.007812 437.375 C 590.949219 437.375 591.722656 436.605469 591.722656 435.660156 Z M 429.144531 429.035156 C 428.96875 430.433594 429.960938 431.574219 431.363281 431.574219 C 432.761719 431.574219 434.039062 430.433594 434.214844 429.035156 C 434.394531 427.636719 433.402344 426.496094 431.996094 426.496094 C 430.597656 426.496094 429.324219 427.636719 429.144531 429.035156 Z M 449.828125 271.234375 C 449.652344 272.632812 450.644531 273.765625 452.042969 273.765625 C 453.445312 273.765625 454.722656 272.632812 454.898438 271.234375 C 455.070312 269.832031 454.082031 268.695312 452.679688 268.695312 C 451.28125 268.695312 450 269.832031 449.828125 271.234375 Z M 475.207031 331.472656 C 474.261719 331.472656 473.492188 332.238281 473.492188 333.1875 C 473.492188 334.132812 474.261719 334.902344 475.207031 334.902344 L 496.214844 334.902344 C 497.160156 334.902344 497.929688 334.132812 497.929688 333.1875 C 497.929688 332.238281 497.160156 331.472656 496.214844 331.472656 Z M 598.144531 384.546875 C 598.144531 383.605469 597.375 382.832031 596.429688 382.832031 L 584.996094 382.832031 C 584.050781 382.832031 583.28125 383.605469 583.28125 384.546875 C 583.28125 385.5 584.050781 386.261719 584.996094 386.261719 L 596.429688 386.261719 C 597.375 386.261719 598.144531 385.5 598.144531 384.546875 Z M 599.550781 373.347656 C 599.550781 372.398438 598.78125 371.632812 597.835938 371.632812 L 586.402344 371.632812 C 585.457031 371.632812 584.6875 372.398438 584.6875 373.347656 C 584.6875 374.292969 585.457031 375.0625 586.402344 375.0625 L 597.835938 375.0625 C 598.78125 375.0625 599.550781 374.292969 599.550781 373.347656 Z M 600.957031 362.144531 C 600.957031 361.199219 600.1875 360.429688 599.242188 360.429688 L 587.808594 360.429688 C 586.867188 360.429688 586.09375 361.199219 586.09375 362.144531 C 586.09375 363.09375 586.867188 363.859375 587.808594 363.859375 L 599.242188 363.859375 C 600.1875 363.859375 600.957031 363.09375 600.957031 362.144531 Z M 602.363281 350.945312 C 602.363281 349.992188 601.601562 349.230469 600.648438 349.230469 L 589.222656 349.230469 C 588.273438 349.230469 587.507812 349.992188 587.507812 350.945312 C 587.507812 351.890625 588.273438 352.660156 589.222656 352.660156 L 600.648438 352.660156 C 601.601562 352.660156 602.363281 351.890625 602.363281 350.945312 Z M 605.183594 328.539062 C 605.183594 327.589844 604.414062 326.824219 603.46875 326.824219 L 592.035156 326.824219 C 591.089844 326.824219 590.320312 327.589844 590.320312 328.539062 C 590.320312 329.484375 591.089844 330.253906 592.035156 330.253906 L 603.46875 330.253906 C 604.414062 330.253906 605.183594 329.484375 605.183594 328.539062 Z M 606.589844 317.335938 C 606.589844 316.390625 605.820312 315.621094 604.875 315.621094 L 593.441406 315.621094 C 592.5 315.621094 591.726562 316.390625 591.726562 317.335938 C 591.726562 318.28125 592.5 319.050781 593.441406 319.050781 L 604.875 319.050781 C 605.820312 319.050781 606.589844 318.28125 606.589844 317.335938 Z M 607.996094 306.136719 C 607.996094 305.183594 607.234375 304.421875 606.28125 304.421875 L 594.855469 304.421875 C 593.90625 304.421875 593.140625 305.183594 593.140625 306.136719 C 593.140625 307.082031 593.90625 307.851562 594.855469 307.851562 L 606.28125 307.851562 C 607.234375 307.851562 607.996094 307.082031 607.996094 306.136719 Z M 609.402344 294.929688 C 609.402344 293.988281 608.640625 293.214844 607.6875 293.214844 L 596.261719 293.214844 C 595.3125 293.214844 594.546875 293.988281 594.546875 294.929688 C 594.546875 295.875 595.3125 296.644531 596.261719 296.644531 L 607.6875 296.644531 C 608.640625 296.644531 609.402344 295.875 609.402344 294.929688 Z M 610.808594 283.726562 C 610.808594 282.78125 610.046875 282.011719 609.09375 282.011719 L 597.667969 282.011719 C 596.722656 282.011719 595.953125 282.78125 595.953125 283.726562 C 595.953125 284.675781 596.722656 285.441406 597.667969 285.441406 L 609.09375 285.441406 C 610.046875 285.441406 610.808594 284.675781 610.808594 283.726562 Z M 348.09375 291.769531 L 356.15625 291.367188 C 356.554688 286.664062 357.914062 282.332031 360.136719 281.234375 C 357.765625 280.984375 355.460938 281.054688 353.707031 281.824219 C 353.59375 275.875 351.242188 272.707031 349.769531 268.96875 C 349.742188 273.242188 350.90625 271.929688 350.457031 277.65625 C 350.210938 280.832031 350.851562 284.085938 350.109375 287.179688 C 349.722656 288.824219 348.957031 290.316406 348.09375 291.769531 Z M 357.878906 291.28125 L 364.597656 290.945312 C 364.089844 285.816406 362.445312 282.679688 361.253906 282.679688 C 360.035156 282.679688 358.347656 285.957031 357.878906 291.28125 Z M 364.722656 292.652344 L 357.765625 293 C 357.753906 293.402344 357.746094 293.8125 357.746094 294.234375 C 357.746094 301.285156 359.820312 305.789062 361.253906 305.789062 C 362.683594 305.789062 364.765625 301.285156 364.765625 294.234375 C 364.765625 293.691406 364.746094 293.167969 364.722656 292.652344 Z M 203.046875 361.574219 C 201.183594 349.316406 204.761719 336.335938 212.644531 326.773438 C 215.53125 323.261719 219.101562 319.933594 219.992188 315.480469 C 220.902344 310.886719 218.726562 306.316406 217.726562 301.742188 C 215.832031 293.007812 218.53125 283.402344 224.707031 276.941406 C 229.441406 271.984375 236 268.835938 239.996094 263.261719 C 243.351562 258.59375 244.53125 252.769531 246.828125 247.503906 C 253.277344 232.742188 269.589844 222.914062 285.648438 224.109375 C 290.117188 218.546875 298.757812 215.941406 305.777344 217.183594 C 312.796875 218.421875 319.039062 222.40625 324.496094 226.988281 C 341.675781 224.355469 363.269531 240.746094 369.273438 283.269531 C 367.65625 282.789062 365.40625 282.144531 363.035156 281.675781 C 365.28125 283.585938 366.480469 289.042969 366.480469 294.234375 C 366.480469 300.664062 364.644531 307.503906 361.253906 307.503906 C 357.859375 307.503906 356.03125 300.664062 356.03125 294.234375 C 356.03125 293.851562 356.039062 293.46875 356.050781 293.089844 L 352.167969 293.28125 C 352.910156 293.679688 353.464844 295.144531 353.464844 296.90625 C 353.464844 298.96875 352.703125 300.644531 351.765625 300.644531 C 350.820312 300.644531 350.0625 298.96875 350.0625 296.90625 C 350.0625 295.199219 350.585938 293.773438 351.296875 293.324219 L 346.996094 293.539062 C 345.976562 295.136719 344.945312 296.738281 344.25 298.492188 C 341.066406 306.539062 345.574219 315.660156 344.308594 324.226562 C 343.511719 329.597656 340.503906 334.367188 338.878906 339.550781 C 336.574219 346.90625 338.195312 357.082031 341.578125 364.003906 L 317.785156 364.003906 C 316.300781 358.398438 314.382812 353.316406 314.167969 347.523438 C 312.589844 353.582031 311.890625 359.109375 311.363281 365.359375 C 308.4375 357.457031 306.5 349.765625 306.304688 341.347656 C 305.46875 348.085938 305.179688 354.828125 304.34375 361.574219 Z M 363.832031 592.976562 C 366.464844 596.285156 369.351562 599.414062 372.515625 602.261719 C 375.65625 605.113281 379.144531 607.648438 382.996094 609.589844 C 384.933594 610.519531 386.976562 611.269531 389.078125 611.800781 C 391.226562 612.269531 393.296875 612.496094 395.378906 612.789062 C 399.558594 613.320312 403.738281 613.84375 407.925781 614.21875 C 416.304688 615.015625 424.703125 615.535156 433.121094 615.691406 C 433.332031 615.691406 433.511719 615.53125 433.519531 615.320312 C 433.53125 615.109375 433.363281 614.925781 433.148438 614.914062 C 428.964844 614.679688 424.777344 614.335938 420.605469 613.957031 C 416.425781 613.59375 412.253906 613.1875 408.085938 612.710938 C 403.921875 612.214844 399.753906 611.738281 395.601562 611.164062 C 393.53125 610.863281 391.421875 610.605469 389.472656 610.164062 C 387.503906 609.65625 385.589844 608.9375 383.746094 608.046875 C 376.359375 604.390625 370.289062 598.410156 364.953125 592.0625 C 362.273438 588.867188 359.789062 585.496094 357.457031 582.027344 C 355.101562 578.570312 352.875 575.007812 350.886719 571.335938 L 350.878906 571.324219 C 350.792969 571.171875 350.605469 571.109375 350.445312 571.191406 C 350.285156 571.269531 350.21875 571.464844 350.296875 571.625 C 354.046875 579.1875 358.554688 586.359375 363.832031 592.976562 Z M 306.445312 489.335938 C 305.496094 488.765625 304.617188 488.101562 303.773438 487.386719 C 302.9375 486.65625 302.167969 485.832031 301.394531 484.96875 C 301.300781 484.867188 301.15625 484.828125 301.019531 484.882812 C 300.855469 484.949219 300.765625 485.144531 300.832031 485.308594 C 301.722656 487.5625 303.464844 489.484375 305.535156 490.789062 C 306.582031 491.4375 307.6875 491.96875 308.835938 492.328125 C 309.808594 492.636719 310.792969 492.84375 311.792969 492.972656 C 315.09375 500.496094 318.523438 507.960938 321.972656 515.417969 C 325.910156 523.710938 329.875 531.988281 333.949219 540.210938 C 338.027344 548.4375 342.1875 556.617188 346.539062 564.707031 C 346.632812 564.894531 346.867188 564.96875 347.050781 564.875 C 347.242188 564.78125 347.324219 564.546875 347.230469 564.351562 C 345.199219 560.238281 343.222656 556.101562 341.253906 551.960938 L 335.3125 539.550781 L 323.519531 514.6875 C 319.582031 506.410156 315.738281 498.078125 311.9375 489.738281 C 310.035156 485.566406 308.179688 481.371094 306.378906 477.164062 C 304.597656 472.953125 302.761719 468.734375 301.429688 464.378906 L 301.421875 464.359375 C 301.375 464.191406 301.195312 464.097656 301.019531 464.144531 C 300.847656 464.191406 300.746094 464.371094 300.800781 464.546875 C 303.339844 473.433594 307.015625 481.875 310.613281 490.320312 C 310.820312 490.789062 311.035156 491.257812 311.242188 491.726562 C 310.621094 491.457031 309.988281 491.199219 309.394531 490.917969 C 308.375 490.425781 307.378906 489.925781 306.445312 489.335938 Z M 351.449219 326.523438 C 352.097656 326.941406 352.828125 327.199219 353.574219 327.382812 C 354.324219 327.527344 355.078125 327.601562 355.828125 327.527344 C 356.203125 327.503906 356.566406 327.429688 356.933594 327.375 C 357.296875 327.269531 357.652344 327.175781 357.992188 327.035156 C 358.101562 326.988281 358.179688 326.886719 358.199219 326.773438 C 358.226562 326.585938 358.101562 326.410156 357.914062 326.382812 C 356.5 326.164062 355.207031 326.015625 353.953125 325.714844 C 353.332031 325.566406 352.730469 325.371094 352.121094 325.164062 C 351.523438 324.957031 350.914062 324.667969 350.351562 324.394531 L 350.277344 324.355469 C 350.164062 324.300781 350.03125 324.300781 349.910156 324.375 C 349.722656 324.480469 349.660156 324.722656 349.769531 324.902344 C 350.195312 325.632812 350.792969 326.109375 351.449219 326.523438 Z M 706.226562 617.574219 L 676.535156 572.929688 L 676.535156 572.542969 L 655.0625 572.300781 L 633.589844 572.226562 L 590.636719 572.074219 L 547.683594 572.261719 L 526.210938 572.355469 L 504.730469 572.601562 L 504.730469 573.257812 L 505.230469 573.265625 L 506.925781 574.398438 L 512.613281 584.175781 L 502.601562 582.75 C 502.660156 582.722656 502.726562 582.703125 502.789062 582.671875 C 503.175781 582.476562 503.503906 582.179688 503.796875 581.867188 C 504.074219 581.53125 504.320312 581.167969 504.46875 580.761719 C 504.617188 580.351562 504.714844 579.925781 504.667969 579.46875 C 504.65625 579.386719 504.621094 579.300781 504.570312 579.234375 C 504.414062 579.054688 504.140625 579.035156 503.960938 579.1875 L 503.9375 579.199219 C 503.625 579.46875 503.398438 579.738281 503.15625 579.992188 C 502.914062 580.238281 502.714844 580.5 502.5 580.753906 C 502.292969 581.015625 502.070312 581.265625 501.871094 581.550781 C 501.65625 581.832031 501.433594 582.113281 501.21875 582.46875 L 501.207031 582.484375 C 501.207031 582.496094 501.207031 582.503906 501.199219 582.515625 L 501.097656 582.363281 L 491.226562 580.273438 C 491.285156 580.03125 491.355469 579.796875 491.402344 579.5625 C 491.574219 578.738281 491.621094 577.902344 491.628906 577.0625 C 491.609375 576.21875 491.542969 575.382812 491.355469 574.566406 C 491.179688 573.75 490.9375 572.9375 490.550781 572.1875 C 490.484375 572.0625 490.347656 571.972656 490.203125 571.972656 C 489.980469 571.96875 489.792969 572.148438 489.792969 572.367188 C 489.78125 573.1875 489.828125 573.96875 489.847656 574.753906 L 489.914062 577.089844 L 489.960938 579.429688 C 489.96875 579.929688 489.980469 580.445312 489.988281 580.957031 L 485.066406 580.253906 C 467.929688 577.6875 450.785156 575.082031 433.804688 571.734375 C 429.574219 570.890625 425.320312 570.03125 421.226562 568.824219 C 420.222656 568.511719 419.191406 568.175781 418.335938 567.734375 C 417.871094 567.480469 417.792969 567.425781 417.449219 566.875 L 416.578125 565.5625 C 415.441406 563.730469 414.308594 561.886719 413.203125 560.023438 C 408.769531 552.589844 404.429688 545.082031 400.097656 537.582031 L 384.757812 510.941406 L 567.929688 510.941406 L 578.015625 549.523438 L 650.695312 549.523438 L 640.617188 510.941406 L 750.984375 510.941406 C 761.753906 510.941406 770.792969 502.84375 771.980469 492.148438 L 798.539062 252.601562 C 799.921875 240.089844 790.132812 229.144531 777.539062 229.144531 L 405.640625 229.144531 C 394.871094 229.144531 385.828125 237.242188 384.644531 247.945312 L 361.382812 457.777344 C 363.578125 464.199219 365.386719 470.460938 366.554688 476.214844 L 391.769531 248.734375 C 392.554688 241.65625 398.515625 236.316406 405.640625 236.316406 L 777.539062 236.316406 C 781.558594 236.316406 785.253906 237.972656 787.933594 240.964844 C 790.621094 243.960938 791.851562 247.8125 791.410156 251.808594 L 764.855469 491.359375 C 764.070312 498.429688 758.101562 503.769531 750.984375 503.769531 L 582.972656 503.769531 C 583.148438 503.507812 583.269531 503.207031 583.269531 502.871094 C 583.269531 501.921875 582.503906 501.15625 581.554688 501.15625 L 570.128906 501.15625 C 569.175781 501.15625 568.414062 501.921875 568.414062 502.871094 C 568.414062 503.207031 568.535156 503.507812 568.707031 503.769531 L 380.625 503.769531 L 374.136719 492.511719 C 374.046875 492.363281 373.855469 492.304688 373.691406 492.390625 C 373.539062 492.476562 373.480469 492.679688 373.566406 492.839844 L 379.613281 503.769531 L 379.417969 503.769531 C 380.660156 506.207031 381.890625 508.597656 383.109375 510.941406 L 383.570312 510.941406 L 386.144531 515.597656 L 398.929688 538.25 C 403.21875 545.785156 407.496094 553.320312 411.890625 560.800781 C 412.984375 562.675781 414.109375 564.539062 415.246094 566.402344 L 416.15625 567.792969 C 416.351562 568.050781 416.363281 568.210938 416.734375 568.550781 C 417.042969 568.859375 417.300781 568.980469 417.578125 569.140625 C 418.648438 569.695312 419.695312 570.03125 420.753906 570.371094 C 424.964844 571.644531 429.21875 572.53125 433.476562 573.40625 C 450.539062 576.6875 467.703125 579.179688 484.863281 581.652344 L 510.636719 585.1875 L 536.449219 588.355469 C 536.65625 588.375 536.859375 588.230469 536.878906 588.023438 C 536.914062 587.808594 536.757812 587.613281 536.550781 587.585938 L 527.011719 586.226562 L 535.445312 573.546875 L 547.683594 573.601562 L 590.636719 573.78125 L 633.589844 573.636719 L 655.0625 573.5625 L 665.445312 573.441406 L 694.792969 617.574219 L 683.921875 617.574219 L 668.34375 599.945312 L 661.15625 604.664062 L 674.464844 617.574219 L 631.324219 617.574219 L 670.554688 592.675781 L 615.285156 592.675781 L 623.597656 607.949219 C 624.234375 609.121094 623.75 610.585938 622.539062 611.144531 C 620.292969 610.980469 617.753906 609.921875 615.597656 608.429688 C 615.597656 608.375 615.617188 608.335938 615.597656 608.289062 C 614.675781 606.113281 614.65625 603.707031 614.359375 601.238281 C 614.226562 599.992188 613.957031 598.71875 613.46875 597.484375 C 612.980469 596.253906 612.285156 595.136719 611.472656 594.125 C 609.804688 592.148438 607.796875 590.585938 605.765625 589.207031 C 603.738281 587.8125 601.707031 586.507812 599.886719 584.914062 C 599.773438 584.808594 599.589844 584.800781 599.464844 584.90625 C 599.324219 585.019531 599.304688 585.222656 599.417969 585.363281 C 600.996094 587.324219 603 588.859375 604.910156 590.371094 C 606.816406 591.878906 608.714844 593.359375 610.148438 595.203125 C 610.878906 596.097656 611.511719 597.0625 611.949219 598.101562 C 612.402344 599.140625 612.617188 600.285156 612.859375 601.457031 C 613.214844 603.367188 613.4375 605.476562 614.265625 607.398438 C 613.214844 606.496094 612.304688 605.503906 611.679688 604.464844 L 606.214844 595.328125 L 596.503906 592.984375 C 596.484375 592.957031 596.46875 592.929688 596.449219 592.910156 C 596.363281 592.8125 596.222656 592.757812 596.089844 592.804688 C 596.054688 592.816406 596.042969 592.851562 596.015625 592.863281 L 595.886719 592.835938 L 582.222656 603.40625 C 582.238281 603.328125 582.25 603.253906 582.257812 603.179688 C 582.335938 602.460938 582.289062 601.746094 582.183594 601.035156 C 582.0625 600.324219 581.875 599.628906 581.582031 598.972656 C 581.285156 598.324219 580.929688 597.695312 580.441406 597.15625 C 580.347656 597.0625 580.207031 597.011719 580.074219 597.035156 C 579.851562 597.070312 579.707031 597.285156 579.746094 597.507812 C 579.851562 598.183594 580.011719 598.8125 580.132812 599.441406 C 580.246094 600.078125 580.394531 600.695312 580.496094 601.324219 C 580.621094 601.945312 580.703125 602.578125 580.808594 603.210938 C 580.871094 603.585938 580.929688 603.976562 580.992188 604.363281 L 570.132812 612.761719 C 567.046875 615.148438 563.476562 616.753906 559.710938 617.574219 L 549.164062 617.574219 L 535.792969 615.722656 C 536.609375 614.992188 537.347656 614.144531 537.863281 613.140625 C 538.527344 611.914062 538.839844 610.464844 538.632812 609.113281 C 538.605469 608.953125 538.472656 608.8125 538.300781 608.785156 C 538.085938 608.757812 537.890625 608.90625 537.855469 609.121094 C 537.675781 610.324219 537.246094 611.417969 536.589844 612.375 C 536.308594 612.769531 535.980469 613.140625 535.648438 613.5 C 535.625 612.710938 535.527344 611.933594 535.339844 611.167969 C 534.984375 609.695312 534.367188 608.289062 533.441406 607.125 C 533.355469 607.011719 533.203125 606.964844 533.066406 607.015625 C 532.894531 607.082031 532.8125 607.269531 532.875 607.445312 C 533.371094 608.765625 533.730469 610.085938 533.886719 611.429688 C 534.039062 612.777344 534.03125 614.125 533.824219 615.4375 C 533.816406 615.484375 533.832031 615.523438 533.832031 615.570312 L 441.730469 614.90625 L 437.699219 617.574219 L 353.324219 617.574219 C 353.539062 618.148438 353.753906 618.71875 353.96875 619.289062 L 798.671875 619.289062 L 798.671875 617.574219 Z M 98.941406 617.574219 L 98.941406 619.289062 L 290.671875 619.289062 C 302.292969 619.289062 305.636719 617.574219 305.636719 617.574219 C 307.148438 617.164062 308.597656 616.613281 309.96875 615.945312 C 319.808594 611.128906 325.738281 599.925781 322.929688 588.375 L 290.117188 453.382812 C 287.464844 442.476562 277.707031 434.808594 266.492188 434.808594 L 83.179688 434.808594 C 67.433594 434.808594 55.839844 449.558594 59.558594 464.863281 L 92.371094 599.855469 C 94.5 608.625 101.238281 615.289062 109.625 617.574219 Z M 365.125 644.34375 C 365.125 644.34375 365.085938 644.660156 364.992188 645.203125 L 365 645.203125 C 363.800781 652.359375 352.882812 703.71875 285.132812 703.71875 C 260.332031 703.71875 242.402344 699.621094 232.421875 696.535156 C 235.964844 716.816406 253.648438 732.234375 274.941406 732.234375 L 405.265625 732.234375 C 437.535156 732.234375 469.023438 718.789062 469.023438 718.789062 L 458.902344 778.769531 L 525.34375 778.769531 C 525.34375 778.769531 533.035156 718.789062 536.351562 678.550781 C 538.292969 654.988281 520.9375 647.425781 506.214844 645.203125 L 625.753906 645.203125 L 617.988281 712.027344 L 642.558594 716.097656 L 650.796875 645.203125 L 739.261719 645.203125 L 749.550781 733.828125 L 775.082031 738.054688 L 764.304688 645.203125 L 798.671875 645.203125 L 798.671875 643.488281 L 364.683594 643.488281 C 364.964844 644.035156 365.125 644.34375 365.125 644.34375 Z M 216.695312 643.488281 L 98.941406 643.488281 L 98.941406 645.203125 L 155.589844 645.203125 C 155.539062 645.457031 155.5625 645.722656 155.492188 645.976562 L 155.261719 647.707031 C 155.089844 648.859375 155.027344 650.023438 154.914062 651.183594 L 154.71875 654.671875 L 154.625 656.414062 L 154.578125 657.289062 C 154.601562 657.585938 154.386719 657.855469 154.941406 658.207031 C 155.570312 657.988281 155.417969 657.679688 155.511719 657.398438 L 155.664062 656.535156 L 155.972656 654.8125 L 156.589844 651.375 C 156.734375 650.21875 156.945312 649.074219 157.042969 647.914062 L 157.21875 646.179688 C 157.199219 645.851562 157.339844 645.535156 157.277344 645.203125 L 216.722656 645.203125 C 216.707031 644.632812 216.703125 644.0625 216.695312 643.488281 Z M 507.976562 271.226562 C 507.976562 270.28125 507.207031 269.511719 506.261719 269.511719 L 480.730469 269.511719 C 479.785156 269.511719 479.015625 270.28125 479.015625 271.226562 C 479.015625 272.179688 479.785156 272.941406 480.730469 272.941406 L 506.261719 272.941406 C 507.207031 272.941406 507.976562 272.179688 507.976562 271.226562 Z M 440.222656 271.234375 C 440.046875 272.632812 441.039062 273.765625 442.441406 273.765625 C 443.839844 273.765625 445.117188 272.632812 445.292969 271.234375 C 445.472656 269.832031 444.484375 268.695312 443.074219 268.695312 C 441.683594 268.695312 440.402344 269.832031 440.222656 271.234375 Z M 432.839844 273.765625 C 431.441406 273.765625 430.445312 272.632812 430.625 271.234375 C 430.796875 269.832031 432.078125 268.695312 433.476562 268.695312 C 434.878906 268.695312 435.867188 269.832031 435.695312 271.234375 C 435.519531 272.632812 434.242188 273.765625 432.839844 273.765625 " fill-opacity="1" fill-rule="nonzero"/></g><g clip-path="url(#3172085be8)"><path fill="#393a3f" d="M 672.964844 549.523438 L 659.15625 549.523438 L 649.074219 510.941406 L 640.617188 510.941406 L 650.695312 549.523438 L 506.210938 549.523438 C 498.914062 549.523438 493 555.4375 493 562.738281 L 686.179688 562.738281 C 686.179688 555.4375 680.265625 549.523438 672.964844 549.523438 Z M 205.699219 548.617188 L 177.230469 548.617188 C 175.410156 548.617188 173.871094 549.984375 173.660156 551.792969 L 150.613281 751.496094 C 150.375 753.625 152.042969 755.5 154.183594 755.5 L 182.65625 755.5 C 184.480469 755.5 186.011719 754.136719 186.226562 752.320312 L 209.265625 552.625 C 209.515625 550.488281 207.847656 548.617188 205.699219 548.617188 Z M 630.03125 618.390625 L 641.585938 618.390625 L 667.890625 601.101562 L 683.171875 618.390625 L 691.707031 618.390625 L 670.554688 592.675781 Z M 788.859375 229.144531 L 777.539062 229.144531 C 790.132812 229.144531 799.921875 240.089844 798.539062 252.601562 L 771.980469 492.148438 C 770.792969 502.84375 761.753906 510.941406 750.984375 510.941406 L 762.300781 510.941406 C 773.066406 510.941406 782.113281 502.84375 783.300781 492.148438 L 809.855469 252.601562 C 811.242188 240.089844 801.445312 229.144531 788.859375 229.144531 Z M 507.976562 271.226562 C 507.976562 270.28125 507.207031 269.511719 506.261719 269.511719 L 480.730469 269.511719 C 479.785156 269.511719 479.015625 270.28125 479.015625 271.226562 C 479.015625 272.179688 479.785156 272.941406 480.730469 272.941406 L 506.261719 272.941406 C 507.207031 272.941406 507.976562 272.179688 507.976562 271.226562 Z M 443.074219 268.695312 C 441.683594 268.695312 440.402344 269.832031 440.222656 271.234375 C 440.046875 272.632812 441.039062 273.765625 442.441406 273.765625 C 443.839844 273.765625 445.117188 272.632812 445.292969 271.234375 C 445.472656 269.832031 444.484375 268.695312 443.074219 268.695312 Z M 433.476562 268.695312 C 432.078125 268.695312 430.796875 269.832031 430.625 271.234375 C 430.445312 272.632812 431.441406 273.765625 432.839844 273.765625 C 434.242188 273.765625 435.519531 272.632812 435.695312 271.234375 C 435.867188 269.832031 434.878906 268.695312 433.476562 268.695312 Z M 454.898438 271.234375 C 454.722656 272.632812 453.445312 273.765625 452.042969 273.765625 C 450.644531 273.765625 449.652344 272.632812 449.828125 271.234375 C 450 269.832031 451.28125 268.695312 452.679688 268.695312 C 454.082031 268.695312 455.070312 269.832031 454.898438 271.234375 " fill-opacity="1" fill-rule="nonzero"/></g></svg>