<svg xmlns="http://www.w3.org/2000/svg" xmlns:xlink="http://www.w3.org/1999/xlink" width="500" zoomAndPan="magnify" viewBox="0 0 375 374.999991" height="500" preserveAspectRatio="xMidYMid meet" version="1.0"><defs><clipPath id="63185f97c2"><path d="M 119 56.015625 L 256 56.015625 L 256 193 L 119 193 Z M 119 56.015625 " clip-rule="nonzero"/></clipPath></defs><path fill="#c96bdb" d="M 294.390625 286.160156 L 372.433594 286.160156 C 363.136719 214.320312 327.230469 194.824219 284.332031 194.824219 C 265.605469 194.824219 248.210938 198.546875 233.773438 208.703125 C 263.949219 220.648438 284.011719 246.304688 294.390625 286.160156 " fill-opacity="1" fill-rule="nonzero"/><path fill="#a6a6a6" d="M 294.390625 286.160156 L 294.390625 288.667969 L 372.433594 288.667969 C 373.160156 288.667969 373.835938 288.363281 374.316406 287.816406 C 374.796875 287.273438 375.011719 286.558594 374.917969 285.839844 C 372.570312 267.691406 368.535156 252.761719 363.066406 240.554688 C 354.875 222.246094 343.398438 210.054688 329.816406 202.585938 C 316.246094 195.105469 300.695312 192.316406 284.332031 192.316406 C 274.804688 192.316406 265.558594 193.261719 256.816406 195.53125 C 248.070312 197.792969 239.820312 201.386719 232.335938 206.652344 C 231.578125 207.179688 231.179688 208.085938 231.285156 209 C 231.394531 209.914062 231.996094 210.699219 232.851562 211.035156 C 247.539062 216.855469 259.699219 225.953125 269.527344 238.511719 C 279.355469 251.066406 286.835938 267.117188 291.964844 286.792969 C 292.253906 287.898438 293.25 288.667969 294.390625 288.667969 L 294.390625 286.160156 L 296.820312 285.527344 C 291.558594 265.347656 283.824219 248.640625 273.480469 235.417969 C 263.140625 222.195312 250.179688 212.496094 234.699219 206.371094 L 233.773438 208.703125 L 235.21875 210.757812 C 242.167969 205.867188 249.828125 202.523438 258.074219 200.386719 C 266.316406 198.25 275.132812 197.332031 284.332031 197.332031 C 294.867188 197.332031 304.90625 198.535156 314.144531 201.390625 C 328.015625 205.691406 340.105469 213.644531 349.738281 227.144531 C 359.363281 240.652344 366.492188 259.816406 369.945312 286.484375 L 372.433594 286.160156 L 372.433594 283.652344 L 294.390625 283.652344 L 294.390625 286.160156 L 296.820312 285.527344 L 294.390625 286.160156 " fill-opacity="1" fill-rule="nonzero"/><path fill="#c96bdb" d="M 284.332031 70.199219 C 270.480469 70.199219 257.867188 75.339844 248.183594 83.765625 C 256.109375 95.382812 260.753906 109.402344 260.753906 124.492188 C 260.753906 140.042969 255.792969 154.417969 247.417969 166.230469 C 257.195312 175.066406 270.117188 180.484375 284.332031 180.484375 C 314.777344 180.484375 339.476562 155.792969 339.476562 125.351562 C 339.476562 94.890625 314.777344 70.199219 284.332031 70.199219 " fill-opacity="1" fill-rule="nonzero"/><path fill="#a6a6a6" d="M 284.332031 70.199219 L 284.332031 67.691406 C 269.851562 67.691406 256.652344 73.070312 246.535156 81.875 C 245.578125 82.707031 245.394531 84.128906 246.109375 85.183594 C 253.769531 96.398438 258.246094 109.917969 258.246094 124.492188 C 258.246094 139.503906 253.460938 153.363281 245.371094 164.777344 C 244.636719 165.816406 244.792969 167.238281 245.738281 168.089844 C 255.949219 177.320312 269.472656 182.992188 284.332031 182.992188 C 316.164062 182.988281 341.988281 157.179688 341.988281 125.351562 C 341.988281 93.507812 316.164062 67.699219 284.332031 67.691406 L 284.332031 72.710938 C 298.871094 72.710938 312.015625 78.597656 321.546875 88.125 C 331.082031 97.660156 336.96875 110.804688 336.96875 125.351562 C 336.96875 139.886719 331.082031 153.027344 321.546875 162.558594 C 312.015625 172.089844 298.871094 177.972656 284.332031 177.976562 C 270.761719 177.972656 258.445312 172.808594 249.097656 164.367188 L 247.417969 166.230469 L 249.464844 167.679688 C 258.117188 155.46875 263.261719 140.578125 263.261719 124.492188 C 263.261719 108.882812 258.457031 94.363281 250.253906 82.355469 L 248.183594 83.765625 L 249.828125 85.664062 C 259.089844 77.609375 271.105469 72.710938 284.332031 72.710938 L 284.332031 70.199219 " fill-opacity="1" fill-rule="nonzero"/><path fill="#c96bdb" d="M 80.609375 286.160156 L 2.570312 286.160156 C 11.867188 214.320312 47.769531 194.824219 90.671875 194.824219 C 109.394531 194.824219 126.792969 198.546875 141.226562 208.703125 C 111.050781 220.648438 90.992188 246.304688 80.609375 286.160156 " fill-opacity="1" fill-rule="nonzero"/><path fill="#a6a6a6" d="M 80.609375 286.160156 L 80.609375 283.652344 L 2.570312 283.652344 L 2.570312 286.160156 L 5.058594 286.484375 C 7.355469 268.710938 11.292969 254.257812 16.511719 242.605469 C 24.355469 225.125 35.011719 213.9375 47.601562 206.980469 C 60.199219 200.03125 74.855469 197.332031 90.671875 197.332031 C 99.867188 197.332031 108.6875 198.25 116.929688 200.386719 C 125.171875 202.523438 132.835938 205.867188 139.785156 210.757812 L 141.226562 208.703125 L 140.304688 206.371094 C 124.816406 212.496094 111.859375 222.195312 101.523438 235.417969 C 91.175781 248.640625 83.4375 265.347656 78.175781 285.527344 L 80.609375 286.160156 L 80.609375 283.652344 L 80.609375 286.160156 L 83.03125 286.792969 C 88.160156 267.117188 95.648438 251.066406 105.472656 238.511719 C 115.304688 225.953125 127.457031 216.855469 142.152344 211.035156 C 143.003906 210.699219 143.605469 209.914062 143.71875 209 C 143.824219 208.085938 143.417969 207.179688 142.667969 206.652344 C 135.179688 201.386719 126.929688 197.792969 118.1875 195.53125 C 109.4375 193.261719 100.199219 192.316406 90.671875 192.316406 C 79.753906 192.316406 69.21875 193.554688 59.371094 196.597656 C 44.605469 201.148438 31.414062 209.835938 21.175781 224.234375 C 10.925781 238.628906 3.601562 258.621094 0.0820312 285.839844 C -0.0117188 286.558594 0.203125 287.273438 0.683594 287.816406 C 1.164062 288.363281 1.84375 288.667969 2.570312 288.667969 L 80.609375 288.667969 C 81.75 288.667969 82.742188 287.898438 83.03125 286.792969 L 80.609375 286.160156 " fill-opacity="1" fill-rule="nonzero"/><path fill="#c96bdb" d="M 90.671875 70.199219 C 104.519531 70.199219 117.128906 75.339844 126.816406 83.765625 C 118.890625 95.382812 114.246094 109.402344 114.246094 124.492188 C 114.246094 140.042969 119.210938 154.417969 127.582031 166.230469 C 117.800781 175.066406 104.882812 180.484375 90.671875 180.484375 C 60.222656 180.484375 35.519531 155.792969 35.519531 125.351562 C 35.519531 94.890625 60.222656 70.199219 90.671875 70.199219 " fill-opacity="1" fill-rule="nonzero"/><path fill="#a6a6a6" d="M 90.671875 70.199219 L 90.671875 72.710938 C 103.894531 72.710938 115.910156 77.609375 125.171875 85.664062 L 126.816406 83.765625 L 124.742188 82.355469 C 116.542969 94.363281 111.738281 108.882812 111.738281 124.492188 C 111.738281 140.582031 116.878906 155.46875 125.53125 167.679688 L 127.582031 166.230469 L 125.898438 164.367188 C 116.550781 172.808594 104.242188 177.972656 90.671875 177.976562 C 76.128906 177.972656 62.984375 172.089844 53.453125 162.558594 C 43.921875 153.027344 38.027344 139.886719 38.027344 125.351562 C 38.027344 110.804688 43.921875 97.660156 53.453125 88.125 C 62.984375 78.597656 76.128906 72.710938 90.671875 72.710938 L 90.671875 67.691406 C 58.835938 67.699219 33.015625 93.507812 33.011719 125.351562 C 33.015625 157.179688 58.835938 182.988281 90.671875 182.992188 C 105.523438 182.992188 119.050781 177.320312 129.261719 168.089844 C 130.207031 167.238281 130.363281 165.816406 129.628906 164.777344 C 121.542969 153.363281 116.753906 139.503906 116.753906 124.492188 C 116.753906 109.917969 121.234375 96.398438 128.886719 85.183594 C 129.605469 84.132812 129.421875 82.707031 128.460938 81.875 C 118.351562 73.070312 105.148438 67.691406 90.671875 67.691406 L 90.671875 70.199219 " fill-opacity="1" fill-rule="nonzero"/><path fill="#c96bdb" d="M 292.65625 316.445312 C 281.566406 230.691406 238.703125 207.429688 187.503906 207.429688 C 136.285156 207.429688 93.4375 230.691406 82.34375 316.445312 L 292.65625 316.445312 " fill-opacity="1" fill-rule="nonzero"/><path fill="#a6a6a6" d="M 292.65625 316.445312 L 295.144531 316.125 C 292.347656 294.492188 287.539062 276.722656 281.035156 262.207031 C 271.296875 240.4375 257.671875 225.984375 241.558594 217.117188 C 225.449219 208.234375 206.976562 204.921875 187.503906 204.921875 C 174.503906 204.921875 161.976562 206.390625 150.28125 210.007812 C 132.746094 215.410156 117.101562 225.714844 104.941406 242.8125 C 92.773438 259.90625 84.050781 283.6875 79.851562 316.125 C 79.761719 316.84375 79.976562 317.554688 80.457031 318.101562 C 80.9375 318.644531 81.613281 318.953125 82.34375 318.953125 L 292.65625 318.953125 C 293.386719 318.953125 294.0625 318.644531 294.542969 318.101562 C 295.023438 317.554688 295.238281 316.84375 295.144531 316.125 L 292.65625 316.445312 L 292.65625 313.9375 L 82.34375 313.9375 L 82.34375 316.445312 L 84.824219 316.765625 C 87.578125 295.515625 92.289062 278.222656 98.539062 264.261719 C 107.933594 243.3125 120.730469 229.859375 135.855469 221.507812 C 150.984375 213.164062 168.570312 209.9375 187.503906 209.9375 C 200.113281 209.9375 212.140625 211.375 223.230469 214.800781 C 239.867188 219.957031 254.410156 229.515625 265.964844 245.722656 C 277.515625 261.929688 286.046875 284.886719 290.171875 316.765625 L 292.65625 316.445312 L 292.65625 313.9375 L 292.65625 316.445312 " fill-opacity="1" fill-rule="nonzero"/><path fill="#c96bdb" d="M 253.316406 124.492188 C 253.316406 160.84375 223.84375 190.3125 187.503906 190.3125 C 151.144531 190.3125 121.683594 160.84375 121.683594 124.492188 C 121.683594 88.140625 151.144531 58.679688 187.503906 58.679688 C 223.84375 58.679688 253.316406 88.140625 253.316406 124.492188 " fill-opacity="1" fill-rule="nonzero"/><g clip-path="url(#63185f97c2)"><path fill="#a6a6a6" d="M 253.316406 124.492188 L 250.808594 124.492188 C 250.808594 141.984375 243.722656 157.796875 232.265625 169.261719 C 220.796875 180.71875 204.988281 187.804688 187.503906 187.804688 C 170.007812 187.804688 154.199219 180.71875 142.734375 169.261719 C 131.269531 157.796875 124.191406 141.984375 124.191406 124.492188 C 124.191406 107.003906 131.269531 91.1875 142.734375 79.726562 C 154.199219 68.265625 170.007812 61.191406 187.503906 61.1875 C 204.988281 61.1875 220.796875 68.265625 232.265625 79.730469 C 243.722656 91.195312 250.808594 107.003906 250.808594 124.492188 L 255.824219 124.492188 C 255.824219 86.753906 225.230469 56.175781 187.503906 56.167969 C 149.757812 56.175781 119.171875 86.753906 119.171875 124.492188 C 119.171875 162.230469 149.757812 192.820312 187.503906 192.820312 C 225.230469 192.820312 255.824219 162.230469 255.824219 124.492188 L 253.316406 124.492188 " fill-opacity="1" fill-rule="nonzero"/></g></svg>