<svg xmlns="http://www.w3.org/2000/svg" xmlns:xlink="http://www.w3.org/1999/xlink" width="500" zoomAndPan="magnify" viewBox="0 0 375 374.999991" height="500" preserveAspectRatio="xMidYMid meet" version="1.0"><path fill="#c96bdb" d="M 150.851562 36.164062 L 165.152344 47.660156 L 160.339844 65.363281 C 159.523438 68.367188 160.625 71.484375 163.136719 73.3125 C 164.449219 74.265625 165.96875 74.742188 167.496094 74.742188 C 168.90625 74.742188 170.316406 74.335938 171.5625 73.519531 L 186.914062 63.46875 L 202.265625 73.519531 C 204.867188 75.222656 208.175781 75.144531 210.695312 73.3125 C 213.207031 71.484375 214.304688 68.363281 213.488281 65.363281 L 208.675781 47.660156 L 222.976562 36.164062 C 225.402344 34.21875 226.347656 31.050781 225.386719 28.09375 C 224.425781 25.132812 221.800781 23.121094 218.691406 22.972656 L 200.363281 22.078125 L 193.851562 4.925781 C 192.746094 2.015625 190.023438 0.136719 186.914062 0.136719 C 183.804688 0.136719 181.082031 2.015625 179.976562 4.925781 L 173.464844 22.078125 L 155.140625 22.972656 C 152.03125 23.121094 149.402344 25.132812 148.445312 28.085938 C 147.480469 31.046875 148.429688 34.21875 150.851562 36.164062 Z M 176.839844 33.636719 C 179.785156 33.496094 182.367188 31.621094 183.417969 28.859375 L 186.914062 19.644531 L 190.414062 28.863281 C 191.460938 31.621094 194.042969 33.496094 196.988281 33.636719 L 206.832031 34.117188 L 199.148438 40.292969 C 196.851562 42.140625 195.863281 45.171875 196.636719 48.023438 L 199.222656 57.535156 L 190.980469 52.136719 C 189.746094 51.328125 188.328125 50.921875 186.910156 50.921875 C 185.496094 50.921875 184.082031 51.328125 182.847656 52.136719 L 174.601562 57.535156 L 177.1875 48.019531 C 177.960938 45.167969 176.972656 42.136719 174.675781 40.292969 L 166.992188 34.117188 Z M 233.386719 51.992188 L 247.6875 63.488281 L 242.875 81.195312 C 242.058594 84.195312 243.15625 87.3125 245.671875 89.140625 C 246.980469 90.09375 248.503906 90.570312 250.03125 90.570312 C 251.4375 90.570312 252.851562 90.164062 254.097656 89.347656 L 269.449219 79.296875 L 284.800781 89.347656 C 287.402344 91.050781 290.707031 90.96875 293.230469 89.140625 C 295.742188 87.3125 296.839844 84.191406 296.023438 81.195312 L 291.210938 63.488281 L 305.511719 51.996094 C 307.9375 50.042969 308.882812 46.875 307.921875 43.921875 C 306.960938 40.960938 304.332031 38.949219 301.226562 38.800781 L 282.898438 37.90625 L 276.386719 20.753906 C 275.285156 17.84375 272.5625 15.96875 269.449219 15.96875 C 266.339844 15.96875 263.617188 17.84375 262.511719 20.753906 L 256 37.90625 L 237.675781 38.800781 C 234.566406 38.949219 231.9375 40.960938 230.980469 43.914062 C 230.019531 46.871094 230.960938 50.042969 233.386719 51.992188 Z M 259.375 49.464844 C 262.320312 49.324219 264.902344 47.449219 265.949219 44.6875 L 269.449219 35.472656 L 272.949219 44.691406 C 273.996094 47.449219 276.578125 49.324219 279.523438 49.464844 L 289.367188 49.945312 L 281.683594 56.121094 C 279.382812 57.96875 278.398438 61.007812 279.171875 63.847656 L 281.757812 73.359375 L 273.515625 67.964844 C 272.28125 67.15625 270.863281 66.75 269.445312 66.75 C 268.03125 66.75 266.617188 67.15625 265.382812 67.960938 L 257.136719 73.359375 L 259.722656 63.847656 C 260.496094 61 259.511719 57.96875 257.210938 56.121094 L 249.527344 49.945312 Z M 68.316406 51.992188 L 82.617188 63.488281 L 77.808594 81.1875 C 76.988281 84.191406 78.085938 87.3125 80.601562 89.140625 C 81.914062 90.09375 83.4375 90.570312 84.960938 90.570312 C 86.371094 90.570312 87.78125 90.164062 89.027344 89.347656 L 104.378906 79.296875 L 119.730469 89.347656 C 122.335938 91.050781 125.640625 90.972656 128.15625 89.140625 C 130.671875 87.316406 131.769531 84.195312 130.953125 81.195312 L 126.140625 63.488281 L 140.445312 51.992188 C 142.867188 50.042969 143.8125 46.871094 142.851562 43.921875 C 141.890625 40.960938 139.265625 38.953125 136.15625 38.800781 L 117.828125 37.90625 L 111.316406 20.753906 C 110.214844 17.847656 107.492188 15.96875 104.382812 15.96875 C 101.269531 15.96875 98.542969 17.847656 97.445312 20.753906 L 90.933594 37.90625 L 72.605469 38.800781 C 69.5 38.953125 66.871094 40.960938 65.910156 43.921875 C 64.949219 46.878906 65.894531 50.046875 68.316406 51.992188 Z M 94.304688 49.464844 C 97.253906 49.324219 99.835938 47.445312 100.878906 44.6875 L 104.378906 35.472656 L 107.878906 44.691406 C 108.925781 47.449219 111.507812 49.324219 114.453125 49.464844 L 124.296875 49.945312 L 116.609375 56.121094 C 114.3125 57.972656 113.332031 61.003906 114.101562 63.847656 L 116.6875 73.359375 L 108.445312 67.964844 C 107.210938 67.15625 105.792969 66.75 104.375 66.75 C 102.960938 66.75 101.546875 67.152344 100.3125 67.960938 L 92.066406 73.359375 L 94.652344 63.847656 C 95.425781 60.996094 94.441406 57.964844 92.140625 56.121094 L 84.457031 49.945312 Z M 127.089844 142.589844 C 131.484375 138.019531 134.195312 131.816406 134.195312 124.992188 C 134.195312 110.980469 122.792969 99.578125 108.777344 99.578125 C 94.765625 99.578125 83.363281 110.980469 83.363281 124.992188 C 83.363281 131.820312 86.074219 138.023438 90.46875 142.59375 C 79.074219 147.695312 70.113281 157.488281 66.222656 170.050781 C 64.824219 174.570312 65.625 179.335938 68.417969 183.128906 C 71.214844 186.917969 75.53125 189.09375 80.265625 189.09375 L 129.648438 189.09375 L 129.648438 193.691406 C 129.648438 204.539062 138.476562 213.363281 149.324219 213.363281 L 224.507812 213.363281 C 235.355469 213.363281 244.179688 204.539062 244.179688 193.691406 L 244.179688 189.09375 L 293.566406 189.09375 C 298.300781 189.09375 302.617188 186.921875 305.410156 183.128906 C 308.207031 179.335938 309.007812 174.570312 307.605469 170.050781 C 303.71875 157.488281 294.753906 147.695312 283.359375 142.59375 C 287.757812 138.023438 290.46875 131.820312 290.46875 124.996094 C 290.46875 110.980469 279.066406 99.578125 265.050781 99.578125 C 251.039062 99.578125 239.636719 110.980469 239.636719 124.996094 C 239.636719 131.820312 242.34375 138.019531 246.738281 142.589844 C 241.246094 145.054688 236.292969 148.636719 232.175781 153.164062 C 225.855469 145.140625 217.464844 138.878906 207.832031 135.136719 C 214.613281 129.265625 218.914062 120.605469 218.914062 110.949219 C 218.914062 93.304688 204.558594 78.949219 186.914062 78.949219 C 169.269531 78.949219 154.914062 93.304688 154.914062 110.949219 C 154.914062 120.605469 159.21875 129.265625 166 135.136719 C 156.363281 138.878906 147.972656 145.140625 141.65625 153.164062 C 137.539062 148.632812 132.585938 145.054688 127.089844 142.589844 Z M 108.777344 111.289062 C 116.335938 111.289062 122.484375 117.4375 122.484375 124.992188 C 122.484375 132.550781 116.335938 138.699219 108.777344 138.699219 C 101.222656 138.699219 95.074219 132.550781 95.074219 124.992188 C 95.074219 117.4375 101.222656 111.289062 108.777344 111.289062 Z M 77.84375 176.179688 C 77.511719 175.730469 77.015625 174.785156 77.410156 173.511719 C 81.691406 159.691406 94.296875 150.40625 108.777344 150.40625 C 119.308594 150.40625 128.925781 155.308594 135.109375 163.644531 C 133.027344 167.941406 131.453125 172.539062 130.488281 177.382812 L 80.265625 177.382812 C 78.933594 177.382812 78.175781 176.628906 77.84375 176.179688 Z M 251.34375 124.996094 C 251.34375 117.4375 257.492188 111.289062 265.050781 111.289062 C 272.609375 111.289062 278.757812 117.4375 278.757812 124.996094 C 278.757812 132.550781 272.609375 138.699219 265.050781 138.699219 C 257.492188 138.699219 251.34375 132.550781 251.34375 124.996094 Z M 265.050781 150.410156 C 279.535156 150.410156 292.140625 159.695312 296.417969 173.515625 C 296.8125 174.785156 296.316406 175.730469 295.984375 176.179688 C 295.652344 176.628906 294.898438 177.386719 293.566406 177.386719 L 243.34375 177.386719 C 242.375 172.542969 240.800781 167.941406 238.722656 163.644531 C 244.902344 155.308594 254.519531 150.410156 265.050781 150.410156 Z M 186.914062 90.660156 C 198.101562 90.660156 207.203125 99.761719 207.203125 110.949219 C 207.203125 122.136719 198.101562 131.238281 186.914062 131.238281 C 175.726562 131.238281 166.625 122.136719 166.625 110.949219 C 166.625 99.761719 175.726562 90.660156 186.914062 90.660156 Z M 186.914062 142.949219 C 210.304688 142.949219 229.835938 160.386719 232.46875 183.558594 L 232.46875 193.691406 C 232.46875 198.082031 228.898438 201.652344 224.507812 201.652344 L 149.324219 201.652344 C 144.929688 201.652344 141.359375 198.082031 141.359375 193.691406 L 141.359375 183.558594 C 143.992188 160.386719 163.523438 142.949219 186.914062 142.949219 Z M 358.9375 238.453125 C 355.582031 232.847656 341.8125 216.207031 305.550781 237.324219 L 241.90625 274.394531 C 238.886719 276.152344 235.820312 277.421875 232.628906 278.210938 C 233.769531 276.285156 234.667969 274.136719 235.300781 271.773438 C 238.582031 259.523438 231.304688 246.734375 218.734375 242.65625 C 218.484375 242.578125 218.226562 242.511719 217.96875 242.464844 C 199.695312 239.171875 181.652344 232.648438 167.152344 227.40625 C 162.109375 225.582031 157.347656 223.859375 153.292969 222.546875 C 136.917969 217.234375 122.140625 223.800781 109.839844 230.921875 L 62.671875 258.230469 L 57.601562 249.269531 C 55.601562 245.738281 52.339844 243.195312 48.414062 242.109375 C 44.488281 241.019531 40.378906 241.523438 36.851562 243.519531 L 18.992188 253.625 C 11.6875 257.761719 9.105469 267.070312 13.242188 274.378906 L 65.742188 367.140625 C 68.539062 372.085938 73.707031 374.867188 79.019531 374.867188 C 81.554688 374.867188 84.128906 374.230469 86.492188 372.894531 L 104.347656 362.785156 C 107.878906 360.789062 110.421875 357.527344 111.511719 353.597656 C 112.597656 349.671875 112.097656 345.566406 110.101562 342.035156 L 105.496094 333.90625 L 116.039062 327.820312 L 197.472656 349.636719 C 202.097656 350.878906 206.632812 351.496094 211.074219 351.496094 C 219.925781 351.496094 228.390625 349.035156 236.355469 344.132812 L 351.859375 273.011719 C 362.480469 266.472656 365.851562 250 358.9375 238.453125 Z M 100.226562 350.472656 C 99.976562 351.382812 99.390625 352.136719 98.582031 352.59375 L 80.726562 362.703125 C 79.917969 363.160156 78.96875 363.273438 78.058594 363.019531 C 77.144531 362.765625 76.390625 362.183594 75.933594 361.375 L 23.433594 268.609375 C 22.976562 267.800781 22.863281 266.855469 23.113281 265.941406 C 23.367188 265.03125 23.953125 264.277344 24.761719 263.816406 L 42.617188 253.710938 C 43.144531 253.414062 43.730469 253.261719 44.324219 253.261719 C 44.644531 253.261719 44.96875 253.304688 45.285156 253.394531 C 46.195312 253.648438 46.953125 254.230469 47.410156 255.039062 L 92.464844 334.652344 C 92.46875 334.65625 92.46875 334.660156 92.472656 334.664062 C 92.472656 334.667969 92.476562 334.667969 92.476562 334.671875 L 99.910156 347.804688 C 100.367188 348.613281 100.480469 349.558594 100.226562 350.472656 Z M 345.71875 263.039062 L 230.21875 334.160156 C 221.109375 339.769531 211.109375 341.171875 200.503906 338.328125 L 116.730469 315.878906 C 115.230469 315.476562 113.628906 315.6875 112.285156 316.464844 L 99.730469 323.710938 L 68.4375 268.421875 L 115.710938 241.054688 C 126.28125 234.933594 137.714844 229.804688 149.679688 233.6875 C 153.546875 234.941406 158.007812 236.550781 163.171875 238.417969 C 177.972656 243.769531 196.371094 250.421875 215.464844 253.914062 C 222.003906 256.207031 225.65625 262.519531 223.988281 268.742188 C 221.796875 276.929688 214.964844 277.953125 209.527344 277.328125 C 200.164062 275.402344 191.257812 272.863281 181.839844 270.171875 C 177.367188 268.894531 172.742188 267.574219 167.988281 266.300781 C 164.863281 265.464844 161.65625 267.316406 160.816406 270.441406 C 159.980469 273.5625 161.835938 276.773438 164.957031 277.613281 C 169.621094 278.859375 174.195312 280.167969 178.621094 281.433594 C 188.339844 284.207031 197.519531 286.828125 207.40625 288.851562 C 207.445312 288.859375 207.484375 288.859375 207.519531 288.867188 C 207.558594 288.875 207.597656 288.886719 207.640625 288.894531 L 215.554688 290.179688 C 227.4375 292.082031 237.988281 290.230469 247.796875 284.515625 L 311.445312 247.445312 C 329.65625 236.84375 343.652344 235.730469 348.890625 244.472656 C 352.492188 250.484375 350.894531 259.855469 345.71875 263.039062 Z M 48.40625 272.699219 C 48.917969 276.183594 46.503906 279.421875 43.023438 279.933594 C 39.535156 280.441406 36.300781 278.03125 35.789062 274.546875 C 35.28125 271.0625 37.691406 267.824219 41.175781 267.316406 C 44.660156 266.804688 47.898438 269.214844 48.40625 272.699219 Z M 48.40625 272.699219 " fill-opacity="1" fill-rule="evenodd"/></svg>