<svg xmlns="http://www.w3.org/2000/svg" enable-background="new 0 0 40 40" viewBox="0 0 40 40" id="hp"><switch><g><path fill="#00a4d6" fill-rule="evenodd" d="M36,20c0,8.8-7.2,16-16,16c-0.5,0-0.9,0-1.4-0.1l3.6-8.9h4.9c0.8,0,1.5-0.5,1.8-1.3l4-10
			c0.5-1.3-0.4-2.7-1.8-2.7h-6.5L19,27l-3.4,8.4C8.9,33.5,4,27.3,4,20C4,12.3,9.4,6,16.5,4.4L12.3,15L7.5,27h3.2l4.8-12h3l-4.8,12
			h3.2l4.5-11.3C22,14.4,21,13,19.6,13h-3.3l3.6-9H20C28.8,4,36,11.2,36,20z M30,15h-3l-4,10h3L30,15z" clip-rule="evenodd"></path></g></switch></svg>