<svg xmlns="http://www.w3.org/2000/svg" xmlns:xlink="http://www.w3.org/1999/xlink" width="500" zoomAndPan="magnify" viewBox="0 0 375 374.999991" height="500" preserveAspectRatio="xMidYMid meet" version="1.0"><defs><clipPath id="dc92a08924"><path d="M 8 12.65625 L 367 12.65625 L 367 362.15625 L 8 362.15625 Z M 8 12.65625 " clip-rule="nonzero"/></clipPath></defs><g clip-path="url(#dc92a08924)"><path fill="#c96bdb" d="M 291.605469 194.707031 C 272.96875 194.707031 257.851562 209.894531 257.851562 228.53125 C 258.765625 270.085938 318.042969 274.445312 325.003906 233.59375 C 328.378906 213.410156 312.066406 194.566406 291.605469 194.707031 Z M 317.339844 231.34375 C 313.050781 263.40625 266.5 261.015625 265.726562 228.53125 C 267.414062 192.386719 319.660156 195.339844 317.339844 231.34375 Z M 359.8125 246.390625 C 363.820312 246.039062 366.984375 242.664062 366.984375 238.65625 L 366.984375 218.265625 C 366.984375 214.253906 363.960938 210.949219 359.953125 210.457031 L 346.734375 209.121094 C 346.03125 207.082031 345.1875 205.042969 344.203125 203.144531 L 352.570312 192.949219 C 355.171875 189.855469 354.960938 185.285156 352.078125 182.402344 L 337.664062 168.058594 C 334.359375 164.683594 329.222656 165.246094 326.058594 168.480469 L 326.058594 54.285156 C 326.058594 31.359375 307.355469 12.65625 284.433594 12.65625 C 284.363281 12.65625 260.875 12.65625 260.804688 12.65625 C 260.804688 12.65625 32.554688 12.65625 32.554688 12.65625 C 0.28125 13.78125 0.140625 60.332031 32.554688 61.527344 L 48.871094 61.527344 L 48.871094 320.714844 C 48.871094 343.640625 67.574219 362.34375 90.496094 362.34375 L 114.195312 362.34375 C 114.195312 362.34375 342.515625 362.34375 342.515625 362.34375 C 374.859375 361.21875 374.859375 314.597656 342.515625 313.472656 C 342.515625 313.472656 326.058594 313.472656 326.058594 313.472656 L 326.058594 288.511719 C 329.222656 291.746094 334.429688 292.308594 337.664062 288.933594 C 337.664062 288.933594 352.078125 274.515625 352.078125 274.515625 C 354.890625 271.632812 355.101562 267.0625 352.570312 264.039062 L 344.132812 253.773438 C 345.117188 251.804688 345.960938 249.625 346.664062 247.726562 Z M 32.625 53.582031 C 10.828125 52.878906 10.828125 21.304688 32.625 20.601562 L 242.875 20.601562 C 234.367188 29.53125 234.367188 44.792969 242.875 53.582031 Z M 114.265625 354.46875 C 114.265625 354.46875 90.566406 354.46875 90.566406 354.46875 C 72.003906 354.46875 56.886719 339.351562 56.886719 320.785156 L 56.886719 61.527344 L 260.945312 61.527344 C 266.148438 61.527344 266.148438 53.582031 260.945312 53.582031 C 251.804688 53.582031 244.421875 46.058594 244.421875 37.054688 C 244.421875 29.109375 250.117188 22.429688 257.570312 20.882812 C 258.90625 20.320312 282.394531 20.601562 284.503906 20.53125 C 303.066406 20.53125 318.183594 35.648438 318.183594 54.214844 L 318.183594 174.738281 L 316.917969 175.792969 C 314.949219 174.808594 312.910156 174.035156 310.941406 173.332031 L 309.605469 160.042969 C 309.113281 156.101562 305.808594 153.148438 301.800781 153.148438 L 281.480469 153.148438 C 277.542969 153.148438 274.09375 156.101562 273.671875 160.113281 L 272.265625 173.332031 C 270.296875 174.035156 268.257812 174.878906 266.289062 175.792969 L 256.023438 167.425781 C 252.859375 164.824219 248.289062 165.105469 245.546875 167.988281 L 231.0625 182.332031 C 228.320312 185.074219 228.039062 189.714844 230.5 192.808594 L 238.867188 203.074219 C 237.953125 204.972656 237.109375 207.011719 236.40625 209.050781 L 223.117188 210.386719 C 219.179688 210.878906 216.222656 214.183594 216.222656 218.195312 L 216.222656 238.585938 C 216.222656 242.453125 219.320312 245.96875 223.257812 246.320312 L 236.476562 247.726562 C 237.109375 249.554688 238.023438 251.804688 239.007812 253.773438 L 230.570312 264.179688 C 228.109375 267.273438 228.390625 271.84375 231.132812 274.585938 L 245.476562 288.863281 C 248.21875 291.816406 252.859375 292.097656 256.023438 289.496094 L 266.289062 281.128906 C 268.1875 282.042969 270.226562 282.886719 272.265625 283.660156 L 273.671875 296.878906 C 274.09375 300.886719 277.402344 303.910156 281.480469 303.910156 L 301.800781 303.910156 C 305.738281 303.910156 309.113281 300.957031 309.605469 296.878906 L 310.941406 283.660156 C 313.050781 282.886719 315.019531 282.042969 316.917969 281.128906 L 318.183594 282.183594 L 318.183594 313.613281 L 114.265625 313.613281 C 112.015625 313.613281 110.257812 315.441406 110.328125 317.621094 C 110.328125 319.800781 112.085938 321.558594 114.265625 321.558594 C 118.625 321.558594 122.5625 323.316406 125.515625 326.058594 C 136.414062 335.625 128.960938 354.75 114.265625 354.46875 Z M 342.515625 321.488281 C 364.3125 322.191406 364.3125 353.765625 342.515625 354.46875 C 342.515625 354.46875 132.265625 354.46875 132.265625 354.46875 C 140.773438 345.609375 140.703125 330.136719 132.265625 321.488281 C 141.898438 321.488281 339.914062 321.488281 342.515625 321.488281 Z M 336.46875 256.867188 C 336.46875 256.867188 346.523438 268.960938 346.523438 268.960938 L 332.316406 283.308594 L 319.871094 273.320312 C 318.605469 272.335938 316.847656 272.125 315.511719 272.898438 C 312.699219 274.445312 309.535156 275.785156 306.019531 276.910156 C 304.542969 277.402344 303.417969 278.738281 303.277344 280.285156 L 301.800781 295.894531 L 281.621094 296.035156 L 280.003906 280.285156 C 279.863281 278.738281 278.738281 277.402344 277.261719 276.910156 C 273.882812 275.855469 270.648438 274.515625 267.765625 272.898438 C 266.359375 272.195312 264.601562 272.335938 263.40625 273.320312 L 251.3125 283.308594 C 249.34375 281.339844 238.65625 270.71875 236.898438 269.101562 L 246.953125 256.867188 C 249.0625 254.476562 246.882812 251.664062 245.898438 249.414062 C 243.789062 245.96875 244.492188 240.90625 240.132812 240.132812 C 240.132812 240.132812 224.453125 238.65625 224.453125 238.65625 L 224.3125 218.335938 L 240.132812 216.71875 C 241.75 216.578125 243.085938 215.449219 243.507812 213.902344 C 244.492188 210.527344 245.828125 207.363281 247.375 204.480469 C 248.148438 203.074219 248.007812 201.316406 246.953125 200.050781 L 236.898438 187.886719 L 251.171875 173.542969 L 263.476562 183.527344 C 264.742188 184.511719 266.429688 184.722656 267.835938 183.949219 C 271 182.261719 274.164062 180.996094 277.261719 180.082031 C 278.808594 179.660156 279.933594 178.324219 280.144531 176.707031 L 281.691406 161.027344 L 301.871094 160.886719 L 303.488281 176.707031 C 303.628906 178.324219 304.753906 179.660156 306.371094 180.152344 C 309.535156 181.066406 312.699219 182.332031 315.722656 184.019531 C 318.957031 186.058594 322.472656 181.347656 324.863281 179.800781 C 324.933594 179.660156 332.246094 173.753906 332.316406 173.683594 L 346.664062 187.886719 L 336.46875 200.191406 C 335.484375 201.457031 335.273438 203.144531 336.046875 204.621094 C 337.664062 207.574219 339 210.738281 339.984375 214.042969 C 340.476562 215.589844 341.8125 216.644531 343.359375 216.855469 L 359.039062 218.476562 L 359.109375 238.585938 L 343.359375 240.203125 C 339.070312 240.90625 339.492188 246.109375 337.59375 249.273438 C 336.539062 251.59375 334.359375 254.476562 336.46875 256.867188 Z M 78.472656 172.628906 L 181.417969 172.628906 C 183.597656 172.628906 185.355469 170.871094 185.355469 168.691406 L 185.355469 139.296875 C 185.355469 137.117188 183.597656 135.359375 181.417969 135.359375 L 78.472656 135.359375 C 76.292969 135.359375 74.535156 137.117188 74.535156 139.296875 L 74.535156 168.691406 C 74.535156 170.800781 76.292969 172.628906 78.472656 172.628906 Z M 82.480469 143.234375 L 177.480469 143.234375 L 177.480469 164.683594 L 82.480469 164.683594 Z M 78.472656 198.152344 C 78.472656 198.152344 135.640625 198.152344 135.640625 198.152344 C 140.84375 198.152344 140.84375 206.097656 135.640625 206.097656 C 135.640625 206.097656 78.472656 206.097656 78.472656 206.097656 C 73.269531 206.027344 73.339844 198.152344 78.472656 198.152344 Z M 186.691406 234.15625 C 186.691406 234.15625 78.542969 234.15625 78.542969 234.15625 C 73.339844 234.15625 73.410156 226.210938 78.542969 226.210938 L 186.691406 226.210938 C 191.894531 226.28125 191.824219 234.15625 186.691406 234.15625 Z M 186.691406 254.335938 C 191.894531 254.335938 191.824219 262.28125 186.691406 262.28125 C 186.691406 262.28125 78.542969 262.28125 78.542969 262.28125 C 73.339844 262.28125 73.410156 254.335938 78.542969 254.335938 Z M 186.691406 290.410156 C 186.691406 290.410156 78.542969 290.410156 78.542969 290.410156 C 73.339844 290.410156 73.410156 282.464844 78.542969 282.464844 L 186.691406 282.464844 C 191.894531 282.464844 191.824219 290.339844 186.691406 290.410156 Z M 145.835938 113.492188 L 165.105469 113.492188 C 167.285156 113.492188 169.042969 111.734375 169.042969 109.554688 L 169.042969 78.402344 C 169.042969 76.222656 167.285156 74.464844 165.105469 74.464844 L 145.835938 74.464844 C 143.65625 74.464844 141.898438 76.222656 141.898438 78.402344 L 141.898438 109.554688 C 141.828125 111.734375 143.65625 113.492188 145.835938 113.492188 Z M 149.773438 82.339844 L 161.097656 82.339844 L 161.097656 105.546875 L 149.773438 105.546875 Z M 242.523438 109.554688 L 242.523438 78.402344 C 242.523438 76.222656 244.28125 74.464844 246.460938 74.464844 C 246.460938 74.464844 265.726562 74.464844 265.726562 74.464844 C 270.929688 74.464844 270.929688 82.410156 265.726562 82.410156 L 250.398438 82.410156 L 250.398438 105.617188 C 250.398438 105.617188 265.726562 105.617188 265.726562 105.617188 C 270.929688 105.617188 270.929688 113.492188 265.726562 113.5625 L 246.460938 113.5625 C 244.28125 113.492188 242.523438 111.734375 242.523438 109.554688 Z M 175.441406 109.554688 C 175.441406 109.554688 175.441406 102.453125 175.441406 102.453125 C 175.441406 97.246094 183.386719 97.246094 183.386719 102.453125 L 183.386719 105.617188 L 194.707031 105.617188 L 194.707031 78.402344 C 194.707031 73.199219 202.652344 73.199219 202.652344 78.402344 C 202.652344 78.402344 202.652344 109.554688 202.652344 109.554688 C 202.652344 111.734375 200.894531 113.492188 198.714844 113.492188 L 179.449219 113.492188 C 177.199219 113.492188 175.441406 111.734375 175.441406 109.554688 Z M 208.980469 109.554688 L 208.980469 78.402344 C 208.980469 76.222656 210.738281 74.464844 212.917969 74.464844 C 212.917969 74.464844 232.1875 74.464844 232.1875 74.464844 C 237.390625 74.464844 237.390625 82.410156 232.1875 82.410156 L 216.859375 82.410156 L 216.859375 90.074219 L 232.1875 90.074219 C 234.367188 90.074219 236.125 91.832031 236.125 94.011719 C 236.125 96.191406 234.367188 97.949219 232.1875 97.949219 L 216.859375 97.949219 L 216.859375 105.617188 C 216.859375 105.617188 232.1875 105.617188 232.1875 105.617188 C 237.390625 105.617188 237.390625 113.492188 232.1875 113.5625 L 212.988281 113.5625 C 210.808594 113.492188 208.980469 111.734375 208.980469 109.554688 Z M 278.949219 74.394531 C 278.949219 74.394531 298.214844 74.394531 298.214844 74.394531 C 303.417969 74.394531 303.417969 82.339844 298.214844 82.339844 L 292.519531 82.339844 L 292.519531 109.554688 C 292.519531 111.734375 290.761719 113.492188 288.582031 113.492188 C 286.402344 113.492188 284.644531 111.734375 284.644531 109.554688 L 284.644531 82.339844 L 278.949219 82.339844 C 273.742188 82.339844 273.742188 74.464844 278.949219 74.394531 Z M 80.792969 109.554688 L 80.792969 97.949219 L 96.121094 97.949219 C 98.300781 97.949219 100.058594 96.191406 100.058594 94.011719 L 100.058594 78.402344 C 100.058594 76.222656 98.300781 74.464844 96.121094 74.464844 L 76.855469 74.464844 C 74.675781 74.464844 72.917969 76.222656 72.917969 78.402344 L 72.917969 109.554688 C 72.917969 114.6875 80.792969 114.757812 80.792969 109.554688 Z M 80.792969 82.339844 L 92.113281 82.339844 L 92.113281 90.003906 L 80.792969 90.003906 Z M 112.226562 113.492188 C 114.40625 113.492188 116.164062 111.734375 116.164062 109.554688 L 116.164062 101.679688 L 128.890625 112.578125 C 129.664062 113.210938 130.578125 113.5625 131.492188 113.5625 C 135.007812 113.703125 136.90625 108.851562 134.09375 106.601562 C 134.09375 106.601562 124.039062 98.019531 124.039062 98.019531 L 131.492188 98.019531 C 133.671875 98.019531 135.429688 96.261719 135.429688 94.082031 L 135.429688 78.472656 C 135.429688 76.292969 133.671875 74.535156 131.492188 74.535156 L 112.226562 74.535156 C 110.046875 74.535156 108.289062 76.292969 108.289062 78.472656 L 108.289062 109.625 C 108.289062 111.734375 110.046875 113.492188 112.226562 113.492188 Z M 116.234375 82.339844 L 127.554688 82.339844 L 127.554688 90.003906 L 116.234375 90.003906 Z M 116.234375 82.339844 " fill-opacity="1" fill-rule="nonzero"/></g></svg>