<svg xmlns="http://www.w3.org/2000/svg" xmlns:xlink="http://www.w3.org/1999/xlink" width="1080" zoomAndPan="magnify" viewBox="0 0 810 809.999993" height="1080" preserveAspectRatio="xMidYMid meet" version="1.0"><path fill="#c96bdb" d="M 739.5 176.5 L 739.5 66 C 739.5 44.5 722 27.5 701 27.5 L 551 27.5 C 504.5 9 455.5 0 405 0 C 181.5 0 0 181.5 0 405 C 0 627 180.5 810 405 810 C 511 810 610.5 769.5 686.5 696 L 700.5 696 C 722 696 739 678.5 739 657.5 L 739 633.5 C 785.5 566 810 487 810 405 C 810 323 785.5 244 739.5 176.5 Z M 700.5 37 C 716.5 37 729 50 729 65.5 L 729 86 L 300.5 86 L 300.5 65.5 C 300.5 56.5 304.5 48.5 311 43.5 C 316 39.5 322.5 37 329 37 Z M 10 405 C 10 187 187 10 405 10 C 444.5 10 483 16 520 27 L 329 27 C 321 27 313.5 29.5 307.5 33.5 C 297 40.5 290 52.5 290 65.5 L 290 123.5 L 167.5 123.5 C 143.5 123.5 124 143 124 167 L 124 420.5 L 37.5 420.5 C 34.5 420.5 32.5 422.5 32.5 425.5 L 32.5 476 C 32.5 479 34.5 481 37.5 481 L 124.5 481 L 124.5 651.5 C 124.5 665.5 131.5 678 141.5 686 L 127.5 686 C 55 614.5 10 515 10 405 Z M 536.5 543 C 536.5 512 512.5 486.5 482 484 L 482 400.5 L 495.5 400.5 L 508 432.5 C 508.5 434 509.5 435 511 435.5 C 516.5 437 522.5 439.5 528 442.5 C 529.5 443 531 443 532.5 442.5 L 564 429 L 590 455 L 576.5 486.5 C 576 488 576 489.5 576.5 491 C 579.5 496.5 582 502.5 583.5 508.5 C 584 510 585 511 586.5 511.5 L 618.5 524 L 618.5 561 L 586.5 573.5 C 585 574 584 575 583.5 576.5 C 581.5 582.5 579 588.5 576.5 593.5 C 576 595 575.5 596.5 576.5 598 L 590 629.5 L 564 655.5 L 532.5 642 C 531 641.5 529.5 641.5 528 642 C 522.5 645 516.5 647 510.5 649 C 509 649.5 508 650.5 507.5 652 L 495 684 L 466 684 C 475.5 676 481.5 664 481.5 650.5 L 481.5 601 C 512.5 599.5 536.5 574 536.5 543 Z M 482 592 L 482 493.5 C 507 496 526.5 517 526.5 542.5 C 526.5 568.5 507 589.5 482 592 Z M 472 651.5 C 472 670 457 685 438.5 685 L 167.5 685 C 149 685 134 670 134 651.5 L 134 481 L 167.5 481 L 167.5 602.5 C 167.5 605.5 169.5 607.5 172.5 607.5 L 433 607.5 C 436 607.5 438 605.5 438 602.5 L 438 179.5 C 438 176.5 436 174.5 433 174.5 L 173 174.5 C 170 174.5 168 176.5 168 179.5 L 168 421 L 134.5 421 L 134.5 167 C 134.5 148.5 149.5 133.5 168 133.5 L 439 133.5 C 457.5 133.5 472.5 148.5 472.5 167 L 472.5 651.5 Z M 334.5 420.5 L 178 420.5 L 178 184.5 L 428.5 184.5 L 428.5 597.5 L 178 597.5 L 178 481 L 334.5 481 C 337.5 481 339.5 479 339.5 476 L 339.5 425.5 C 339.5 423 337 420.5 334.5 420.5 Z M 329.5 430.5 L 329.5 471 L 42.5 471 L 42.5 430.5 C 79 430.5 293.5 430.5 329.5 430.5 Z M 405 800 C 302.5 800 208.5 760.5 138.5 696 L 671.5 696 C 599 763 504.5 800 405 800 Z M 729.5 657.5 C 729.5 673.5 716.5 686 701 686 C 666.5 686 556.5 686 506 686 L 517 659 C 522 657.5 526.5 655.5 531.5 653 L 564 667 C 566 668 568 667.5 569.5 666 L 600.5 635 C 602 633.5 602.5 631.5 601.5 629.5 L 587.5 597 C 590 592.5 592 587.5 593.5 582.5 L 626.5 569.5 C 628.5 568.5 629.5 567 629.5 565 L 629.5 521 C 629.5 519 628.5 517 626.5 516.5 L 593.5 503.5 C 592 498.5 590 494 587.5 489 L 601.5 456.5 C 602.5 454.5 602 452.5 600.5 451 L 569.5 420 C 568 418.5 566 418 564 419 L 531.5 433 C 526.5 430.5 522 428.5 517 427 L 504 394 C 503 392 501.5 391 499.5 391 L 482.5 391 L 482.5 167 C 482.5 143 463 123.5 439 123.5 L 300.5 123.5 L 300.5 96 L 729.5 96 Z M 739.5 195 C 779 258 800 330 800 405 C 800 480 779 552.5 739.5 615 Z M 739.5 195 " fill-opacity="1" fill-rule="nonzero"/><path fill="#c96bdb" d="M 262.5 726.5 C 262.5 729.5 264.5 731.5 267.5 731.5 L 388.5 731.5 C 391.5 731.5 393.5 729.5 393.5 726.5 C 393.5 723.5 391.5 721.5 388.5 721.5 L 267.5 721.5 C 264.5 721.5 262.5 723.5 262.5 726.5 Z M 262.5 726.5 " fill-opacity="1" fill-rule="nonzero"/><path fill="#c96bdb" d="M 408 731.5 L 428 731.5 C 431 731.5 433 729.5 433 726.5 C 433 723.5 431 721.5 428 721.5 L 408 721.5 C 405 721.5 403 723.5 403 726.5 C 403 729 405 731.5 408 731.5 Z M 408 731.5 " fill-opacity="1" fill-rule="nonzero"/><path fill="#c96bdb" d="M 445 731.5 L 458 731.5 C 461 731.5 463 729.5 463 726.5 C 463 723.5 461 721.5 458 721.5 L 445 721.5 C 442 721.5 440 723.5 440 726.5 C 440 729 442 731.5 445 731.5 Z M 445 731.5 " fill-opacity="1" fill-rule="nonzero"/><path fill="#c96bdb" d="M 416.5 751 C 416.5 754 418.5 756 421.5 756 L 542.5 756 C 545.5 756 547.5 754 547.5 751 C 547.5 748 545.5 746 542.5 746 L 421.5 746 C 419 746 416.5 748 416.5 751 Z M 416.5 751 " fill-opacity="1" fill-rule="nonzero"/><path fill="#c96bdb" d="M 377 751 C 377 754 379 756 382 756 L 402 756 C 405 756 407 754 407 751 C 407 748 405 746 402 746 L 382 746 C 379.5 746 377 748 377 751 Z M 377 751 " fill-opacity="1" fill-rule="nonzero"/><path fill="#c96bdb" d="M 365 746 L 352 746 C 349 746 347 748 347 751 C 347 754 349 756 352 756 L 365 756 C 368 756 370 754 370 751 C 370 748 368 746 365 746 Z M 365 746 " fill-opacity="1" fill-rule="nonzero"/><path fill="#c96bdb" d="M 303 617 C 287.5 617 274.5 629.5 274.5 645.5 C 274.5 661 287 674 303 674 C 318.5 674 331.5 661.5 331.5 645.5 C 331.5 629.5 319 617 303 617 Z M 303 663.5 C 293 663.5 284.5 655.5 284.5 645 C 284.5 635 292.5 626.5 303 626.5 C 313 626.5 321.5 634.5 321.5 645 C 321.5 655.5 313.5 663.5 303 663.5 Z M 303 663.5 " fill-opacity="1" fill-rule="nonzero"/><path fill="#c96bdb" d="M 345.5 153.5 L 261 153.5 C 258 153.5 256 155.5 256 158.5 C 256 161.5 258 163.5 261 163.5 L 345.5 163.5 C 348.5 163.5 350.5 161.5 350.5 158.5 C 350.5 155.5 348.5 153.5 345.5 153.5 Z M 345.5 153.5 " fill-opacity="1" fill-rule="nonzero"/><path fill="#c96bdb" d="M 68.5 456 L 185 456 C 187 461.5 192.5 465.5 198.5 465.5 C 205 465.5 210 461.5 212 456 L 302.5 456 C 305.5 456 307.5 454 307.5 451 C 307.5 448 305.5 446 302.5 446 L 212.5 446 C 210.5 440.5 205 436.5 199 436.5 C 192.5 436.5 187.5 440.5 185.5 446 L 68.5 446 C 65.5 446 63.5 448 63.5 451 C 63.5 453.5 66 456 68.5 456 Z M 199 446.5 C 201.5 446.5 203.5 448.5 203.5 451 C 203.5 453.5 201.5 455.5 199 455.5 C 196.5 455.5 194.5 453.5 194.5 451 C 194 448.5 196.5 446.5 199 446.5 Z M 199 446.5 " fill-opacity="1" fill-rule="nonzero"/><path fill="#c96bdb" d="M 405 391.5 L 405 328 C 405 320 398.5 314 391 314 L 327.5 314 C 319.5 314 313.5 320.5 313.5 328 L 313.5 391.5 C 313.5 399.5 320 405.5 327.5 405.5 L 391 405.5 C 398.5 405.5 405 399.5 405 391.5 Z M 323 391.5 L 323 328 C 323 325.5 325 324 327 324 L 390.5 324 C 393 324 394.5 326 394.5 328 L 394.5 391.5 C 394.5 394 392.5 395.5 390.5 395.5 L 327.5 395.5 C 325 395.5 323 394 323 391.5 Z M 323 391.5 " fill-opacity="1" fill-rule="nonzero"/><path fill="#c96bdb" d="M 663.5 149 L 695.5 149 C 698.5 149 700.5 147 700.5 144 C 700.5 141 698.5 139 695.5 139 L 663.5 139 C 660.5 139 658.5 141 658.5 144 C 658.5 147 661 149 663.5 149 Z M 663.5 149 " fill-opacity="1" fill-rule="nonzero"/><path fill="#c96bdb" d="M 607.5 149 L 639.5 149 C 642.5 149 644.5 147 644.5 144 C 644.5 141 642.5 139 639.5 139 L 607.5 139 C 604.5 139 602.5 141 602.5 144 C 602.5 147 604.5 149 607.5 149 Z M 607.5 149 " fill-opacity="1" fill-rule="nonzero"/><path fill="#c96bdb" d="M 663.5 169.5 L 695.5 169.5 C 698.5 169.5 700.5 167.5 700.5 164.5 C 700.5 161.5 698.5 159.5 695.5 159.5 L 663.5 159.5 C 660.5 159.5 658.5 161.5 658.5 164.5 C 658.5 167 661 169.5 663.5 169.5 Z M 663.5 169.5 " fill-opacity="1" fill-rule="nonzero"/><path fill="#c96bdb" d="M 607.5 169.5 L 639.5 169.5 C 642.5 169.5 644.5 167.5 644.5 164.5 C 644.5 161.5 642.5 159.5 639.5 159.5 L 607.5 159.5 C 604.5 159.5 602.5 161.5 602.5 164.5 C 602.5 167 604.5 169.5 607.5 169.5 Z M 607.5 169.5 " fill-opacity="1" fill-rule="nonzero"/><path fill="#c96bdb" d="M 548.5 195 L 646.5 195 C 649.5 195 651.5 193 651.5 190 C 651.5 187 649.5 185 646.5 185 L 548.5 185 C 545.5 185 543.5 187 543.5 190 C 543.5 193 545.5 195 548.5 195 Z M 548.5 195 " fill-opacity="1" fill-rule="nonzero"/><path fill="#c96bdb" d="M 511 222 L 646 222 C 649 222 651 220 651 217 C 651 214 649 212 646 212 L 511 212 C 508 212 506 214 506 217 C 506 220 508 222 511 222 Z M 511 222 " fill-opacity="1" fill-rule="nonzero"/><path fill="#c96bdb" d="M 646 236.5 L 603 236.5 C 600 236.5 598 238.5 598 241.5 C 598 244.5 600 246.5 603 246.5 L 646 246.5 C 649 246.5 651 244.5 651 241.5 C 651 238.5 649 236.5 646 236.5 Z M 646 236.5 " fill-opacity="1" fill-rule="nonzero"/><path fill="#c96bdb" d="M 589.5 241.5 C 589.5 238.5 587.5 236.5 584.5 236.5 L 511 236.5 C 508 236.5 506 238.5 506 241.5 C 506 244.5 508 246.5 511 246.5 L 584.5 246.5 C 587.5 246.5 589.5 244.5 589.5 241.5 Z M 589.5 241.5 " fill-opacity="1" fill-rule="nonzero"/><path fill="#c96bdb" d="M 663.5 275 L 695.5 275 C 698.5 275 700.5 273 700.5 270 C 700.5 267 698.5 265 695.5 265 L 663.5 265 C 660.5 265 658.5 267 658.5 270 C 658.5 273 661 275 663.5 275 Z M 663.5 275 " fill-opacity="1" fill-rule="nonzero"/><path fill="#c96bdb" d="M 607.5 275 L 639.5 275 C 642.5 275 644.5 273 644.5 270 C 644.5 267 642.5 265 639.5 265 L 607.5 265 C 604.5 265 602.5 267 602.5 270 C 602.5 273 604.5 275 607.5 275 Z M 607.5 275 " fill-opacity="1" fill-rule="nonzero"/><path fill="#c96bdb" d="M 663.5 295 L 695.5 295 C 698.5 295 700.5 293 700.5 290 C 700.5 287 698.5 285 695.5 285 L 663.5 285 C 660.5 285 658.5 287 658.5 290 C 658.5 293 661 295 663.5 295 Z M 663.5 295 " fill-opacity="1" fill-rule="nonzero"/><path fill="#c96bdb" d="M 607.5 295 L 639.5 295 C 642.5 295 644.5 293 644.5 290 C 644.5 287 642.5 285 639.5 285 L 607.5 285 C 604.5 285 602.5 287 602.5 290 C 602.5 293 604.5 295 607.5 295 Z M 607.5 295 " fill-opacity="1" fill-rule="nonzero"/><path fill="#c96bdb" d="M 548.5 321 L 646.5 321 C 649.5 321 651.5 319 651.5 316 C 651.5 313 649.5 311 646.5 311 L 548.5 311 C 545.5 311 543.5 313 543.5 316 C 543.5 319 545.5 321 548.5 321 Z M 548.5 321 " fill-opacity="1" fill-rule="nonzero"/><path fill="#c96bdb" d="M 511 347.5 L 646 347.5 C 649 347.5 651 345.5 651 342.5 C 651 339.5 649 337.5 646 337.5 L 511 337.5 C 508 337.5 506 339.5 506 342.5 C 506 345.5 508 347.5 511 347.5 Z M 511 347.5 " fill-opacity="1" fill-rule="nonzero"/><path fill="#c96bdb" d="M 646 362.5 L 603 362.5 C 600 362.5 598 364.5 598 367.5 C 598 370.5 600 372.5 603 372.5 L 646 372.5 C 649 372.5 651 370.5 651 367.5 C 651 364.5 649 362.5 646 362.5 Z M 646 362.5 " fill-opacity="1" fill-rule="nonzero"/><path fill="#c96bdb" d="M 584.5 362.5 L 511 362.5 C 508 362.5 506 364.5 506 367.5 C 506 370.5 508 372.5 511 372.5 L 584.5 372.5 C 587.5 372.5 589.5 370.5 589.5 367.5 C 589.5 364.5 587.5 362.5 584.5 362.5 Z M 584.5 362.5 " fill-opacity="1" fill-rule="nonzero"/><path fill="#c96bdb" d="M 266 547 L 308 566.5 L 308 556 L 276.5 541.5 L 276.5 540.5 L 308 526.5 L 308 516.5 L 266 536 Z M 266 547 " fill-opacity="1" fill-rule="nonzero"/><path fill="#c96bdb" d="M 326 587 L 364.5 504.5 L 355.5 504.5 L 317 587 Z M 326 587 " fill-opacity="1" fill-rule="nonzero"/><path fill="#c96bdb" d="M 373.5 526.5 L 404.5 540.5 L 404.5 541.5 L 373.5 556 L 373.5 566.5 L 415 547 L 415 536 L 373.5 516.5 Z M 373.5 526.5 " fill-opacity="1" fill-rule="nonzero"/><path fill="#c96bdb" d="M 244.5 211.5 C 220.5 211.5 201.5 231 201.5 254.5 C 201.5 276.5 236.5 327.5 240.5 333.5 C 241.5 335 243 335.5 244.5 335.5 C 246 335.5 247.5 334.5 248.5 333.5 C 252.5 327.5 287.5 276.5 287.5 254.5 C 287.5 231 268 211.5 244.5 211.5 Z M 244.5 322 C 232.5 304 211.5 269 211.5 255 C 211.5 236.5 226.5 222 244.5 222 C 263 222 277.5 237 277.5 255 C 277.5 269 256.5 304 244.5 322 Z M 244.5 322 " fill-opacity="1" fill-rule="nonzero"/><path fill="#c96bdb" d="M 244.5 231.5 C 232 231.5 221.5 242 221.5 254.5 C 221.5 267.5 232 277.5 244.5 277.5 C 257 277.5 267.5 267 267.5 254.5 C 267.5 242 257 231.5 244.5 231.5 Z M 244.5 268 C 237.5 268 231.5 262 231.5 255 C 231.5 248 237.5 242 244.5 242 C 251.5 242 257.5 248 257.5 255 C 257.5 262 251.5 268 244.5 268 Z M 244.5 268 " fill-opacity="1" fill-rule="nonzero"/><path fill="#c96bdb" d="M 344.5 79 C 354 79 362 71 362 61.5 C 362 52 354 44 344.5 44 C 335 44 327 52 327 61.5 C 327 71 335 79 344.5 79 Z M 344.5 54 C 348.5 54 352 57.5 352 61.5 C 352 65.5 348.5 69 344.5 69 C 340.5 69 337 65.5 337 61.5 C 337 57.5 340.5 54 344.5 54 Z M 344.5 54 " fill-opacity="1" fill-rule="nonzero"/><path fill="#c96bdb" d="M 391.5 79 C 401 79 409 71 409 61.5 C 409 52 401 44 391.5 44 C 382 44 374 52 374 61.5 C 374 71 381.5 79 391.5 79 Z M 391.5 54 C 395.5 54 399 57.5 399 61.5 C 399 65.5 395.5 69 391.5 69 C 387.5 69 384 65.5 384 61.5 C 384 57.5 387 54 391.5 54 Z M 391.5 54 " fill-opacity="1" fill-rule="nonzero"/><path fill="#c96bdb" d="M 438 79 C 447.5 79 455.5 71 455.5 61.5 C 455.5 52 447.5 44 438 44 C 428.5 44 420.5 52 420.5 61.5 C 420.5 71 428.5 79 438 79 Z M 438 54 C 442 54 445.5 57.5 445.5 61.5 C 445.5 65.5 442 69 438 69 C 434 69 430.5 65.5 430.5 61.5 C 430.5 57.5 434 54 438 54 Z M 438 54 " fill-opacity="1" fill-rule="nonzero"/><path fill="#c96bdb" d="M 488.5 79 L 685 79 C 694.5 79 702.5 71.5 702.5 61.5 C 702.5 51.5 695 44 685 44 L 488.5 44 C 479 44 471 51.5 471 61.5 C 471 71.5 479 79 488.5 79 Z M 488.5 54.5 L 685 54.5 C 689 54.5 692.5 58 692.5 62 C 692.5 66 689 69.5 685 69.5 L 488.5 69.5 C 484.5 69.5 481 66 481 62 C 481.5 57.5 484.5 54.5 488.5 54.5 Z M 488.5 54.5 " fill-opacity="1" fill-rule="nonzero"/></svg>