<svg xmlns="http://www.w3.org/2000/svg" xmlns:xlink="http://www.w3.org/1999/xlink" width="500" zoomAndPan="magnify" viewBox="0 0 375 374.999991" height="500" preserveAspectRatio="xMidYMid meet" version="1.0"><defs><clipPath id="22b8b26f3f"><path d="M 0 5.859375 L 364 5.859375 L 364 368.859375 L 0 368.859375 Z M 0 5.859375 " clip-rule="nonzero"/></clipPath><clipPath id="eebb020cd9"><path d="M 298.699219 254 L 374.910156 254 L 374.910156 330.632812 L 298.699219 330.632812 Z M 298.699219 254 " clip-rule="nonzero"/></clipPath></defs><path fill="#c96bdb" d="M 17.578125 225.90625 L 346.355469 225.90625 C 348.273438 214.714844 351.410156 194.910156 351.410156 187.5 C 351.410156 180.085938 348.273438 160.285156 346.355469 149.097656 L 17.578125 149.097656 L 12.800781 187.5 Z M 355.984375 237.402344 L 7.417969 237.402344 L 1.214844 187.5 L 7.417969 137.597656 L 355.984375 137.597656 L 356.839844 142.324219 C 357.085938 143.699219 362.90625 176.078125 362.90625 187.5 C 362.90625 198.921875 357.085938 231.300781 356.839844 232.675781 L 355.984375 237.402344 " fill-opacity="1" fill-rule="nonzero"/><path fill="#c96bdb" d="M 148.507812 165.320312 L 135.648438 213.789062 L 123.152344 213.789062 L 116.371094 187.050781 L 109.96875 213.789062 L 96.9375 213.789062 L 84.0625 165.320312 L 98.058594 165.320312 L 104.839844 193.214844 L 111.453125 165.320312 L 123.132812 165.320312 L 130.328125 193.269531 L 137.121094 165.320312 L 148.507812 165.320312 " fill-opacity="1" fill-rule="nonzero"/><path fill="#c96bdb" d="M 213.949219 165.320312 L 201.089844 213.789062 L 188.59375 213.789062 L 181.8125 187.050781 L 175.410156 213.789062 L 162.378906 213.789062 L 149.5 165.320312 L 163.5 165.320312 L 170.28125 193.214844 L 176.894531 165.320312 L 188.574219 165.320312 L 195.769531 193.269531 L 202.558594 165.320312 L 213.949219 165.320312 " fill-opacity="1" fill-rule="nonzero"/><path fill="#c96bdb" d="M 279.386719 165.320312 L 266.53125 213.789062 L 254.035156 213.789062 L 247.253906 187.050781 L 240.851562 213.789062 L 227.816406 213.789062 L 214.941406 165.320312 L 228.941406 165.320312 L 235.71875 193.214844 L 242.335938 165.320312 L 254.015625 165.320312 L 261.207031 193.269531 L 268 165.320312 L 279.386719 165.320312 " fill-opacity="1" fill-rule="nonzero"/><path fill="#c96bdb" d="M 56.890625 280.617188 C 64.375 276.589844 80.765625 268.730469 104.699219 262.496094 C 102.257812 252.65625 100.332031 242.320312 98.902344 231.652344 L 32.339844 231.652344 C 37.621094 249.511719 46 266.050781 56.890625 280.617188 " fill-opacity="1" fill-rule="nonzero"/><path fill="#c96bdb" d="M 186.5625 109.152344 L 186.5625 143.347656 L 248.628906 143.347656 C 246.742188 129.515625 244.03125 116.675781 240.625 105.042969 C 221.109375 107.460938 203.027344 108.714844 186.5625 109.152344 " fill-opacity="1" fill-rule="nonzero"/><path fill="#c96bdb" d="M 172.585938 109.34375 C 153.117188 109.34375 136.269531 108.234375 122.382812 106.734375 C 121.789062 106.667969 121.214844 106.601562 120.625 106.535156 C 117.421875 117.769531 114.855469 130.101562 113.050781 143.347656 L 175.128906 143.347656 L 175.128906 109.335938 C 174.28125 109.335938 173.429688 109.34375 172.585938 109.34375 " fill-opacity="1" fill-rule="nonzero"/><path fill="#c96bdb" d="M 57.40625 93.707031 C 46.265625 108.4375 37.707031 125.214844 32.339844 143.347656 L 98.894531 143.347656 C 100.707031 129.839844 103.332031 116.878906 106.753906 104.75 C 81.484375 101.054688 64.710938 96.132812 57.40625 93.707031 " fill-opacity="1" fill-rule="nonzero"/><path fill="#c96bdb" d="M 118.226562 259.351562 C 120.246094 258.9375 122.292969 258.53125 124.394531 258.148438 C 140.941406 255.132812 157.914062 253.601562 175.128906 253.558594 L 175.128906 231.652344 L 113.058594 231.652344 C 114.386719 241.40625 116.113281 250.675781 118.226562 259.351562 " fill-opacity="1" fill-rule="nonzero"/><path fill="#c96bdb" d="M 119.246094 303.78125 C 114.792969 294.53125 110.9375 284.386719 107.710938 273.546875 C 86.8125 279 71.875 285.78125 64.234375 289.703125 C 84.796875 313.3125 112.34375 330.679688 143.617188 338.574219 C 134.535156 330.09375 126.289062 318.402344 119.246094 303.78125 " fill-opacity="1" fill-rule="nonzero"/><path fill="#c96bdb" d="M 242.441406 303.78125 C 235.238281 318.746094 226.769531 330.636719 217.433594 339.160156 C 249.421875 331.628906 277.632812 314.210938 298.664062 290.324219 C 282.996094 283.929688 267.898438 279 253.46875 275.261719 C 250.351562 285.457031 246.664062 295.019531 242.441406 303.78125 " fill-opacity="1" fill-rule="nonzero"/><path fill="#c96bdb" d="M 121.199219 270.417969 C 133.492188 312.085938 154.351562 338.546875 175.128906 342.710938 L 175.128906 265.0625 C 156.65625 265.082031 140.480469 266.871094 127.023438 269.296875 C 125.039062 269.648438 123.105469 270.03125 121.199219 270.417969 " fill-opacity="1" fill-rule="nonzero"/><path fill="#c96bdb" d="M 186.5625 265.273438 L 186.5625 342.710938 C 207.0625 338.605469 227.644531 312.785156 240 272.066406 C 220.789062 267.9375 202.890625 265.894531 186.5625 265.273438 " fill-opacity="1" fill-rule="nonzero"/><path fill="#c96bdb" d="M 186.5625 32.289062 L 186.5625 97.710938 C 201.992188 97.289062 218.867188 96.148438 237.066406 93.960938 C 224.535156 58.4375 205.511719 36.085938 186.5625 32.289062 " fill-opacity="1" fill-rule="nonzero"/><path fill="#c96bdb" d="M 119.246094 71.21875 C 126.289062 56.597656 134.535156 44.90625 143.617188 36.425781 C 112.84375 44.191406 85.691406 61.136719 65.234375 84.167969 C 73.734375 86.71875 89.003906 90.671875 110.167969 93.683594 C 112.84375 85.742188 115.875 78.21875 119.246094 71.21875 " fill-opacity="1" fill-rule="nonzero"/><path fill="#c96bdb" d="M 124.148438 95.421875 C 138.160156 96.917969 155.285156 97.996094 175.128906 97.898438 L 175.128906 32.289062 C 155.917969 36.136719 136.636719 59.050781 124.121094 95.417969 C 124.128906 95.421875 124.136719 95.421875 124.148438 95.421875 " fill-opacity="1" fill-rule="nonzero"/><path fill="#c96bdb" d="M 186.5625 253.757812 C 192.960938 253.984375 199.382812 254.410156 205.824219 255.046875 C 218.175781 256.269531 230.605469 258.261719 243.0625 260.980469 C 245.355469 251.832031 247.226562 242.015625 248.636719 231.652344 L 186.5625 231.652344 L 186.5625 253.757812 " fill-opacity="1" fill-rule="nonzero"/><path fill="#c96bdb" d="M 254.488281 103.160156 C 258.132812 115.738281 260.898438 129.25 262.785156 143.347656 L 331.105469 143.347656 C 325.695312 125.066406 317.039062 108.164062 305.765625 93.347656 C 287.824219 97.554688 270.703125 100.761719 254.488281 103.160156 " fill-opacity="1" fill-rule="nonzero"/><path fill="#c96bdb" d="M 242.441406 71.21875 C 245.59375 77.757812 248.441406 84.75 250.984375 92.117188 C 265.765625 89.976562 281.328125 87.144531 297.605469 83.484375 C 276.691406 60.210938 248.886719 43.242188 217.433594 35.839844 C 226.769531 44.363281 235.238281 56.257812 242.441406 71.21875 " fill-opacity="1" fill-rule="nonzero"/><path fill="#c96bdb" d="M 256.558594 264.21875 C 270.171875 267.769531 283.800781 272.222656 297.390625 277.527344 L 282.648438 237.84375 L 323.097656 252.875 C 326.261719 246.050781 328.945312 238.964844 331.109375 231.652344 L 262.796875 231.652344 C 261.28125 242.945312 259.203125 253.859375 256.558594 264.21875 " fill-opacity="1" fill-rule="nonzero"/><g clip-path="url(#22b8b26f3f)"><path fill="#c96bdb" d="M 181.722656 5.859375 C 81.566406 5.859375 0.0820312 87.34375 0.0820312 187.5 C 0.0820312 287.65625 81.566406 369.140625 181.722656 369.140625 C 232.375 369.140625 278.238281 348.292969 311.214844 314.742188 L 305.867188 300.34375 C 275.140625 334.113281 230.867188 355.34375 181.722656 355.34375 C 104.457031 355.34375 39.253906 302.84375 19.8125 231.652344 C 15.972656 217.574219 13.878906 202.78125 13.878906 187.5 C 13.878906 172.21875 15.972656 157.425781 19.8125 143.347656 C 39.253906 72.15625 104.457031 19.65625 181.722656 19.65625 C 258.992188 19.65625 324.195312 72.15625 343.632812 143.347656 C 347.476562 157.425781 349.566406 172.21875 349.566406 187.5 C 349.566406 202.78125 347.476562 217.574219 343.632812 231.652344 C 341.234375 240.4375 338.136719 248.925781 334.40625 257.078125 L 347.414062 261.90625 C 357.65625 239.1875 363.363281 213.996094 363.363281 187.5 C 363.363281 87.34375 281.882812 5.859375 181.722656 5.859375 " fill-opacity="1" fill-rule="nonzero"/></g><g clip-path="url(#eebb020cd9)"><path fill="#c96bdb" d="M 374.90625 320.742188 L 346.777344 292.613281 L 368.898438 280.089844 L 298.882812 254.082031 L 324.894531 324.097656 L 337.414062 301.980469 L 365.542969 330.109375 L 374.90625 320.742188 " fill-opacity="1" fill-rule="nonzero"/></g></svg>