<svg xmlns="http://www.w3.org/2000/svg" xmlns:xlink="http://www.w3.org/1999/xlink" width="1080" zoomAndPan="magnify" viewBox="0 0 810 809.999993" height="1080" preserveAspectRatio="xMidYMid meet" version="1.0"><path fill="#545454" d="M 632.660156 810 L 595.40625 810 C 577.289062 810 561.570312 797.753906 557.128906 780.246094 C 556.007812 775.960938 553.097656 772.59375 549.21875 770.960938 C 545.035156 769.222656 540.59375 769.53125 537.023438 771.621094 C 521.203125 781.011719 501.453125 778.5625 488.644531 765.753906 L 462.257812 739.421875 C 449.5 726.613281 447 706.863281 456.238281 691.296875 C 458.535156 687.46875 458.839844 682.976562 457.207031 679.046875 C 455.472656 674.964844 452.105469 672.058594 448.125 671.035156 C 430.3125 666.496094 418.066406 650.726562 418.066406 632.660156 L 418.066406 595.40625 C 418.066406 577.339844 430.3125 561.570312 447.816406 557.128906 C 452.105469 556.007812 455.472656 553.097656 457.105469 549.21875 C 458.839844 545.085938 458.535156 540.59375 456.390625 537.023438 C 447 521.203125 449.5 501.453125 462.257812 488.644531 L 488.644531 462.308594 C 501.402344 449.5 521.203125 447 536.769531 456.238281 C 540.59375 458.535156 545.085938 458.839844 549.015625 457.207031 C 553.097656 455.472656 556.007812 452.105469 557.027344 448.125 C 561.570312 430.3125 577.289062 418.066406 595.40625 418.066406 L 632.660156 418.066406 C 650.777344 418.066406 666.496094 430.3125 670.933594 447.816406 C 672.058594 452.105469 674.964844 455.472656 678.84375 457.105469 C 682.976562 458.839844 687.46875 458.535156 691.042969 456.390625 C 706.863281 447.050781 726.664062 449.5 739.421875 462.308594 L 765.804688 488.644531 C 778.5625 501.453125 781.0625 521.203125 771.828125 536.769531 C 769.53125 540.59375 769.222656 545.085938 770.859375 549.015625 C 772.59375 553.097656 775.960938 556.007812 779.941406 557.027344 C 797.753906 561.570312 810 577.339844 810 595.40625 L 810 632.660156 C 810 650.726562 797.753906 666.496094 780.246094 670.933594 C 775.960938 672.058594 772.59375 674.964844 770.960938 678.84375 C 769.222656 682.976562 769.53125 687.46875 771.675781 691.042969 C 781.0625 706.863281 778.5625 726.613281 765.804688 739.421875 L 739.421875 765.753906 C 726.613281 778.5625 706.863281 781.0625 691.296875 771.777344 C 687.46875 769.480469 683.027344 769.171875 679.101562 770.859375 C 674.964844 772.59375 672.058594 775.960938 671.035156 779.941406 C 666.496094 797.753906 650.777344 810 632.660156 810 " fill-opacity="1" fill-rule="nonzero"/><path fill="#545454" d="M 209.03125 391.933594 C 206.632812 391.933594 204.285156 391.273438 202.144531 389.996094 C 198.316406 387.597656 195.96875 383.414062 195.96875 378.871094 L 195.96875 274.355469 C 195.96875 269.8125 198.316406 265.628906 202.144531 263.230469 C 206.019531 260.882812 210.820312 260.679688 214.902344 262.667969 L 319.417969 314.925781 C 323.804688 317.171875 326.613281 321.664062 326.613281 326.613281 C 326.613281 331.5625 323.804688 336.054688 319.417969 338.300781 L 214.902344 390.558594 C 213.011719 391.476562 211.023438 391.933594 209.03125 391.933594 " fill-opacity="1" fill-rule="nonzero"/><path fill="#545454" d="M 391.933594 535.644531 L 209.03125 535.644531 L 209.03125 470.324219 L 391.933594 470.324219 L 391.933594 535.644531 " fill-opacity="1" fill-rule="nonzero"/><path fill="#c96bdb" d="M 26.128906 156.773438 L 26.128906 39.195312 C 26.128906 31.996094 31.996094 26.128906 39.195312 26.128906 L 718.546875 26.128906 C 725.742188 26.128906 731.613281 31.996094 731.613281 39.195312 L 731.613281 156.773438 Z M 718.546875 0 L 39.195312 0 C 17.554688 0 0 17.554688 0 39.195312 L 0 587.902344 C 0 609.542969 17.554688 627.097656 39.195312 627.097656 L 418.066406 627.097656 L 418.066406 600.96875 L 39.195312 600.96875 C 31.996094 600.96875 26.128906 595.097656 26.128906 587.902344 L 26.128906 182.902344 L 731.613281 182.902344 L 731.613281 456.390625 C 734.417969 458.023438 737.074219 459.910156 739.421875 462.308594 L 757.742188 480.582031 L 757.742188 39.195312 C 757.742188 17.554688 740.1875 0 718.546875 0 " fill-opacity="1" fill-rule="nonzero"/><path fill="#c96bdb" d="M 563.152344 686.550781 L 586.523438 698.289062 L 664.914062 541.515625 L 641.539062 529.777344 L 563.152344 686.550781 " fill-opacity="1" fill-rule="nonzero"/><path fill="#c96bdb" d="M 668.179688 555.445312 L 703.339844 614.03125 L 668.179688 672.617188 L 690.53125 686.089844 L 733.757812 614.03125 L 690.53125 541.972656 L 668.179688 555.445312 " fill-opacity="1" fill-rule="nonzero"/><path fill="#c96bdb" d="M 537.535156 541.972656 L 494.308594 614.03125 L 537.535156 686.089844 L 559.886719 672.617188 L 524.722656 614.03125 L 559.886719 555.445312 L 537.535156 541.972656 " fill-opacity="1" fill-rule="nonzero"/><path fill="#c96bdb" d="M 78.386719 78.386719 L 104.515625 78.386719 L 104.515625 104.515625 L 78.386719 104.515625 Z M 52.257812 130.644531 L 130.644531 130.644531 L 130.644531 52.257812 L 52.257812 52.257812 L 52.257812 130.644531 " fill-opacity="1" fill-rule="nonzero"/><path fill="#c96bdb" d="M 182.902344 78.386719 L 209.03125 78.386719 L 209.03125 104.515625 L 182.902344 104.515625 Z M 156.773438 130.644531 L 235.160156 130.644531 L 235.160156 52.257812 L 156.773438 52.257812 L 156.773438 130.644531 " fill-opacity="1" fill-rule="nonzero"/><path fill="#c96bdb" d="M 287.417969 78.386719 L 313.546875 78.386719 L 313.546875 104.515625 L 287.417969 104.515625 Z M 261.289062 130.644531 L 339.675781 130.644531 L 339.675781 52.257812 L 261.289062 52.257812 L 261.289062 130.644531 " fill-opacity="1" fill-rule="nonzero"/><path fill="#c96bdb" d="M 444.195312 405 C 444.195312 412.195312 438.324219 418.066406 431.128906 418.066406 L 91.453125 418.066406 C 84.257812 418.066406 78.386719 412.195312 78.386719 405 L 78.386719 248.226562 C 78.386719 241.03125 84.257812 235.160156 91.453125 235.160156 L 431.128906 235.160156 C 438.324219 235.160156 444.195312 241.03125 444.195312 248.226562 Z M 431.128906 209.03125 L 91.453125 209.03125 C 69.8125 209.03125 52.257812 226.585938 52.257812 248.226562 L 52.257812 405 C 52.257812 426.636719 69.8125 444.195312 91.453125 444.195312 L 431.128906 444.195312 C 452.765625 444.195312 470.324219 426.636719 470.324219 405 L 470.324219 248.226562 C 470.324219 226.585938 452.765625 209.03125 431.128906 209.03125 " fill-opacity="1" fill-rule="nonzero"/><path fill="#c96bdb" d="M 679.355469 261.289062 L 522.582031 261.289062 L 522.582031 235.160156 L 679.355469 235.160156 Z M 705.484375 209.03125 L 496.453125 209.03125 L 496.453125 287.417969 L 705.484375 287.417969 L 705.484375 209.03125 " fill-opacity="1" fill-rule="nonzero"/><path fill="#c96bdb" d="M 522.582031 339.675781 L 679.355469 339.675781 L 679.355469 365.804688 L 522.582031 365.804688 Z M 496.453125 391.933594 L 705.484375 391.933594 L 705.484375 313.546875 L 496.453125 313.546875 L 496.453125 391.933594 " fill-opacity="1" fill-rule="nonzero"/><path fill="#c96bdb" d="M 78.386719 496.453125 L 156.773438 496.453125 L 156.773438 548.710938 L 78.386719 548.710938 Z M 52.257812 574.839844 L 182.902344 574.839844 L 182.902344 470.324219 L 52.257812 470.324219 L 52.257812 574.839844 " fill-opacity="1" fill-rule="nonzero"/><path fill="#c96bdb" d="M 209.03125 470.324219 L 209.03125 496.453125 L 235.160156 496.453125 L 235.160156 470.324219 L 209.03125 470.324219 " fill-opacity="1" fill-rule="nonzero"/><path fill="#c96bdb" d="M 391.933594 470.324219 L 261.289062 470.324219 L 261.289062 496.453125 L 391.933594 496.453125 L 391.933594 470.324219 " fill-opacity="1" fill-rule="nonzero"/><path fill="#c96bdb" d="M 209.03125 548.710938 L 391.933594 548.710938 L 391.933594 522.582031 L 209.03125 522.582031 L 209.03125 548.710938 " fill-opacity="1" fill-rule="nonzero"/></svg>